<svg xmlns="http://www.w3.org/2000/svg" viewBox="0 0 128 128" width="24" height="24">
  <path
     style="fill:#000002;fill-opacity:1;stroke:#000000;stroke-width:1;stroke-opacity:1"
     d="M 64 1.8964844 A 62.97834 62.102619 0 0 0 1.0214844 64 A 62.97834 62.102619 0 0 0 64 126.10352 A 62.97834 62.102619 0 0 0 126.97852 64 A 62.97834 62.102619 0 0 0 64 1.8964844 z M 43.724609 26.089844 L 62.285156 26.089844 C 82.338552 26.089844 88.738281 37.50309 88.738281 48.703125 C 88.738281 59.263158 83.085471 66.196918 73.912109 69.183594 L 88.525391 91.158203 C 92.045402 96.491553 86.819546 102.14453 82.019531 102.14453 C 79.352856 102.14453 77.11128 100.97123 75.724609 98.837891 L 57.804688 70.783203 L 50.552734 70.783203 L 50.552734 95.210938 C 50.552734 98.944282 47.031862 102.25 42.978516 102.25 C 39.031837 102.25 35.619141 99.050949 35.619141 95.210938 L 35.619141 33.771484 C 35.619141 29.611471 39.351262 26.089844 43.724609 26.089844 z M 50.552734 39.636719 L 50.552734 57.34375 L 62.498047 57.34375 C 69.85807 57.34375 73.804688 54.249809 73.804688 48.703125 C 73.804688 44.223111 71.566072 39.636719 61.859375 39.636719 L 50.552734 39.636719 z " />
</svg>
