<svg xmlns="http://www.w3.org/2000/svg" id="mermaid-diagram-desktop" width="900" aria-roledescription="flowchart-v2" class="flowchart" style="font-family:Arial,sans-serif;font-size:16px;fill:#333;max-width:1158.3211669921875px" viewBox="0 0 1158.321 177.402"><style><![CDATA[@keyframes edge-animation-frame{0%{stroke-dashoffset:0}}@keyframes dash{to{stroke-dashoffset:0}}#mermaid-diagram-desktop .edge-thickness-normal{stroke-width:1px}#mermaid-diagram-desktop .edge-pattern-solid{stroke-dasharray:0}#mermaid-diagram-desktop .marker{fill:#333;stroke:#333}#mermaid-diagram-desktop .marker.cross{stroke:#333}#mermaid-diagram-desktop svg{font-family:Arial,sans-serif;font-size:16px}#mermaid-diagram-desktop p{margin:0}#mermaid-diagram-desktop .label{font-family:Arial,sans-serif;color:#333}#mermaid-diagram-desktop span{fill:#333;color:#333}#mermaid-diagram-desktop .node circle,#mermaid-diagram-desktop .node path,#mermaid-diagram-desktop .node rect{fill:#ececff;stroke:#9370db;stroke-width:1px}#mermaid-diagram-desktop .flowchart-link{stroke:#333;fill:none}#mermaid-diagram-desktop .edgeLabel,#mermaid-diagram-desktop .node .label{text-align:center}#mermaid-diagram-desktop .edgeLabel,#mermaid-diagram-desktop .edgeLabel p{background-color:rgba(232,232,232,.8)}#mermaid-diagram-desktop .edgeLabel rect{opacity:.5;background-color:rgba(232,232,232,.8);fill:rgba(232,232,232,.8)}#mermaid-diagram-desktop .labelBkg{background-color:rgba(232,232,232,.5)}#mermaid-diagram-desktop :root{--mermaid-font-family:Arial,sans-serif}#mermaid-diagram-desktop .operation>*{fill:#fef0e3!important;color:#b86a1c!important}#mermaid-diagram-desktop .transform span,#mermaid-diagram-desktop .transform>*{fill:#e3f0e8!important;color:#2f7a5c!important}#mermaid-diagram-desktop .terminal>*{fill:#f2e3f5!important;color:#8a4f9e!important}#mermaid-diagram-desktop .failure>*{fill:#f8e3e3!important;color:#b13e3e!important}#mermaid-diagram-desktop .success>*{fill:#e6f6ea!important;color:#1c7e4f!important}]]></style><marker id="mermaid-diagram-desktop_flowchart-v2-pointEnd" class="marker flowchart-v2" markerHeight="8" markerUnits="userSpaceOnUse" markerWidth="8" orient="auto" refX="5" refY="5" viewBox="0 0 10 10"><path d="m0 0 10 5-10 5z" class="arrowMarkerPath" style="stroke-width:1;stroke-dasharray:1,0"/></marker><marker id="mermaid-diagram-desktop_flowchart-v2-pointStart" class="marker flowchart-v2" markerHeight="8" markerUnits="userSpaceOnUse" markerWidth="8" orient="auto" refX="4.5" refY="5" viewBox="0 0 10 10"><path d="m0 5 10 5V0z" class="arrowMarkerPath" style="stroke-width:1;stroke-dasharray:1,0"/></marker><marker id="mermaid-diagram-desktop_flowchart-v2-circleEnd" class="marker flowchart-v2" markerHeight="11" markerUnits="userSpaceOnUse" markerWidth="11" orient="auto" refX="11" refY="5" viewBox="0 0 10 10"><circle cx="5" cy="5" r="5" class="arrowMarkerPath" style="stroke-width:1;stroke-dasharray:1,0"/></marker><marker id="mermaid-diagram-desktop_flowchart-v2-circleStart" class="marker flowchart-v2" markerHeight="11" markerUnits="userSpaceOnUse" markerWidth="11" orient="auto" refX="-1" refY="5" viewBox="0 0 10 10"><circle cx="5" cy="5" r="5" class="arrowMarkerPath" style="stroke-width:1;stroke-dasharray:1,0"/></marker><marker id="mermaid-diagram-desktop_flowchart-v2-crossEnd" class="marker cross flowchart-v2" markerHeight="11" markerUnits="userSpaceOnUse" markerWidth="11" orient="auto" refX="12" refY="5.2" viewBox="0 0 11 11"><path d="m1 1 9 9m0-9-9 9" class="arrowMarkerPath" style="stroke-width:2;stroke-dasharray:1,0"/></marker><marker id="mermaid-diagram-desktop_flowchart-v2-crossStart" class="marker cross flowchart-v2" markerHeight="11" markerUnits="userSpaceOnUse" markerWidth="11" orient="auto" refX="-1" refY="5.2" viewBox="0 0 11 11"><path d="m1 1 9 9m0-9-9 9" class="arrowMarkerPath" style="stroke-width:2;stroke-dasharray:1,0"/></marker><g class="root"><g class="edgePaths"><path id="L_N0_Checkout_N1_Validate_0" marker-end="url(#mermaid-diagram-desktop_flowchart-v2-pointEnd)" d="M135.594 116h46" class="edge-thickness-normal edge-pattern-solid edge-thickness-normal edge-pattern-solid flowchart-link"/><path id="L_N1_Validate_N2_ReserveInventory_0" marker-end="url(#mermaid-diagram-desktop_flowchart-v2-pointEnd)" d="M302.234 116h46" class="edge-thickness-normal edge-pattern-solid edge-thickness-normal edge-pattern-solid flowchart-link"/><path id="L_N2_ReserveInventory_N3_ProcessPayment_0" marker-end="url(#mermaid-diagram-desktop_flowchart-v2-pointEnd)" d="M537.625 116h46" class="edge-thickness-normal edge-pattern-solid edge-thickness-normal edge-pattern-solid flowchart-link"/><path id="L_N3_ProcessPayment_N4_Match_0" marker-end="url(#mermaid-diagram-desktop_flowchart-v2-pointEnd)" d="M768.563 116h4.166c4.167 0 12.5 0 20.25.07s14.917.211 18.501.281l3.583.071" class="edge-thickness-normal edge-pattern-solid edge-thickness-normal edge-pattern-solid flowchart-link"/><path id="L_N4_Match_SUCCESS_0" marker-end="url(#mermaid-diagram-desktop_flowchart-v2-pointEnd)" d="m893.816 97 16.11-11.583c16.109-11.584 48.329-34.75 76.742-46.255 28.413-11.504 53.02-11.346 65.323-11.267l12.303.079" class="edge-thickness-normal edge-pattern-solid edge-thickness-normal edge-pattern-solid flowchart-link"/><path id="L_N4_Match_FAIL_0" marker-end="url(#mermaid-diagram-desktop_flowchart-v2-pointEnd)" d="m906.557 102.306 13.986-5.051c13.986-5.051 41.959-15.153 71.678-14.25s61.184 12.811 76.917 18.765l15.733 5.954" class="edge-thickness-normal edge-pattern-solid edge-thickness-normal edge-pattern-solid flowchart-link"/><path id="L_N4_Match_FAIL_2" marker-end="url(#mermaid-diagram-desktop_flowchart-v2-pointEnd)" d="m913.654 116.5 12.803-.083c12.803-.084 38.41-.25 66.629-.189s59.05.35 74.465.495l15.415.144" class="edge-thickness-normal edge-pattern-solid edge-thickness-normal edge-pattern-solid flowchart-link"/><path id="L_N4_Match_FAIL_3" marker-end="url(#mermaid-diagram-desktop_flowchart-v2-pointEnd)" d="m906.557 130.694 13.986 4.884c13.986 4.884 41.959 14.653 71.663 13.881 29.705-.772 61.142-12.085 76.861-17.742l15.719-5.656" class="edge-thickness-normal edge-pattern-solid edge-thickness-normal edge-pattern-solid flowchart-link"/></g><g class="edgeLabels"><g class="edgeLabel"><foreignObject width="0" height="0" class="label"><div xmlns="http://www.w3.org/1999/xhtml" class="labelBkg" style="display:table-cell;white-space:nowrap;line-height:1.5;max-width:200px;text-align:center"><span class="edgeLabel"/></div></foreignObject></g><g class="edgeLabel"><foreignObject width="0" height="0" class="label"><div xmlns="http://www.w3.org/1999/xhtml" class="labelBkg" style="display:table-cell;white-space:nowrap;line-height:1.5;max-width:200px;text-align:center"><span class="edgeLabel"/></div></foreignObject></g><g class="edgeLabel"><foreignObject width="0" height="0" class="label"><div xmlns="http://www.w3.org/1999/xhtml" class="labelBkg" style="display:table-cell;white-space:nowrap;line-height:1.5;max-width:200px;text-align:center"><span class="edgeLabel"/></div></foreignObject></g><g class="edgeLabel"><foreignObject width="0" height="0" class="label"><div xmlns="http://www.w3.org/1999/xhtml" class="labelBkg" style="display:table-cell;white-space:nowrap;line-height:1.5;max-width:200px;text-align:center"><span class="edgeLabel"/></div></foreignObject></g><g class="edgeLabel"><foreignObject width="16.906" height="24" class="label" transform="translate(982.02 15.5)"><div xmlns="http://www.w3.org/1999/xhtml" class="labelBkg" style="display:table-cell;white-space:nowrap;line-height:1.5;max-width:200px;text-align:center"><span class="edgeLabel"><p>ok</p></span></div></foreignObject></g><g class="edgeLabel"><foreignObject width="104.641" height="24" class="label" transform="translate(945.5 62.78)"><div xmlns="http://www.w3.org/1999/xhtml" class="labelBkg" style="display:table-cell;white-space:nowrap;line-height:1.5;max-width:200px;text-align:center"><span class="edgeLabel"><p>ValidationError</p></span></div></foreignObject></g><g class="edgeLabel"><foreignObject width="101.375" height="24" class="label" transform="translate(939.786 104)"><div xmlns="http://www.w3.org/1999/xhtml" class="labelBkg" style="display:table-cell;white-space:nowrap;line-height:1.5;max-width:200px;text-align:center"><span class="edgeLabel"><p>InventoryError</p></span></div></foreignObject></g><g class="edgeLabel"><foreignObject width="98.703" height="24" class="label" transform="translate(948.342 145.402)"><div xmlns="http://www.w3.org/1999/xhtml" class="labelBkg" style="display:table-cell;white-space:nowrap;line-height:1.5;max-width:200px;text-align:center"><span class="edgeLabel"><p>PaymentError</p></span></div></foreignObject></g></g><g class="nodes"><g id="flowchart-N0_Checkout-0" class="node default operation" transform="translate(71.797 116)"><rect width="127.594" height="54" x="-63.797" y="-27" class="basic label-container" style="fill:#fef0e3!important"/><g class="label" style="color:#b86a1c!important" transform="translate(-33.797 -12)"><rect/><foreignObject width="67.594" height="24"><div xmlns="http://www.w3.org/1999/xhtml" style="color:#b86a1c!important;display:table-cell;white-space:nowrap;line-height:1.5;max-width:200px;text-align:center"><span class="nodeLabel" style="fill:#fef0e3!important;color:#b86a1c!important"><p>Checkout</p></span></div></foreignObject></g></g><g id="flowchart-N1_Validate-1" class="node default transform" transform="translate(243.914 116)"><rect width="116.641" height="54" x="-58.32" y="-27" class="basic label-container" style="fill:#e3f0e8!important"/><g class="label" style="color:#2f7a5c!important" transform="translate(-28.32 -12)"><rect/><foreignObject width="56.641" height="24"><div xmlns="http://www.w3.org/1999/xhtml" style="color:#2f7a5c!important;display:table-cell;white-space:nowrap;line-height:1.5;max-width:200px;text-align:center"><span class="nodeLabel" style="color:#2f7a5c!important"><p>Validate</p></span></div></foreignObject></g></g><g id="flowchart-N2_ReserveInventory-2" class="node default transform" transform="translate(444.93 116)"><rect width="185.391" height="54" x="-92.695" y="-27" class="basic label-container" style="fill:#e3f0e8!important"/><g class="label" style="color:#2f7a5c!important" transform="translate(-62.695 -12)"><rect/><foreignObject width="125.391" height="24"><div xmlns="http://www.w3.org/1999/xhtml" style="color:#2f7a5c!important;display:table-cell;white-space:nowrap;line-height:1.5;max-width:200px;text-align:center"><span class="nodeLabel" style="color:#2f7a5c!important"><p>ReserveInventory</p></span></div></foreignObject></g></g><g id="flowchart-N3_ProcessPayment-3" class="node default transform" transform="translate(678.094 116)"><rect width="180.938" height="54" x="-90.469" y="-27" class="basic label-container" style="fill:#e3f0e8!important"/><g class="label" style="color:#2f7a5c!important" transform="translate(-60.469 -12)"><rect/><foreignObject width="120.938" height="24"><div xmlns="http://www.w3.org/1999/xhtml" style="color:#2f7a5c!important;display:table-cell;white-space:nowrap;line-height:1.5;max-width:200px;text-align:center"><span class="nodeLabel" style="color:#2f7a5c!important"><p>ProcessPayment</p></span></div></foreignObject></g></g><g id="flowchart-N4_Match-4" class="node default terminal"><g class="basic label-container"><path stroke-width="0" d="M-37.546-19.5h75.092L47.296 0l-9.75 19.5h-75.092L-47.296 0l9.75-19.5" style="fill:#f2e3f5!important" transform="translate(865.858 116)"/><path fill="none" stroke="#9370db" stroke-dasharray="0 0" stroke-width="1.3" d="M-37.546-19.5H0m-37.546 0H0m0 0h37.546M0-19.5h37.546m0 0L47.296 0m-9.75-19.5L47.296 0m0 0c-2.605 5.209-5.21 10.417-9.75 19.5M47.296 0l-9.75 19.5m0 0H0m37.546 0H0m0 0h-37.546M0 19.5h-37.546m0 0L-47.296 0m9.75 19.5L-47.296 0m0 0 9.75-19.5M-47.296 0l9.75-19.5" style="fill:#f2e3f5!important" transform="translate(865.858 116)"/></g><g class="label" style="color:#8a4f9e!important" transform="translate(844.069 104)"><rect/><foreignObject width="43.578" height="24"><div xmlns="http://www.w3.org/1999/xhtml" style="color:#8a4f9e!important;display:table-cell;white-space:nowrap;line-height:1.5;max-width:200px;text-align:center"><span class="nodeLabel" style="fill:#f2e3f5!important;color:#8a4f9e!important"><p>Match</p></span></div></foreignObject></g></g><g id="flowchart-SUCCESS-11" class="node default success"><g class="basic label-container outer-path"><path stroke-width="0" d="M-21.773-19.5h43.546l1.25.04 1.244.12 1.234.2 1.219.278 1.198.355c.297.11.594.22 1.173.432l1.143.506 1.108.578c.338.205.675.41 1.07.648l1.025.715.977.78.925.84.87.898.81.952.748 1.002.682 1.047.613 1.09.542 1.126.47 1.158.393 1.187.318 1.209.238 1.227.16 1.24.08 1.247v1.25l-.08 1.247-.16 1.24-.238 1.227-.318 1.21-.393 1.186-.47 1.158-.542 1.126-.613 1.09-.682 1.047-.748 1.002-.81.952-.87.898-.925.84-.977.78-1.026.715-1.069.648-1.108.578-1.143.506-1.173.432-1.198.355-1.219.278-1.234.2-1.244.12-1.25.04h-43.546l-1.25-.04-1.244-.12-1.234-.2-1.219-.278-1.198-.355-1.173-.432-1.143-.506-1.108-.578-1.07-.648c-.246-.173-.494-.345-1.025-.715l-.977-.78c-.2-.18-.398-.362-.925-.84l-.87-.898-.81-.952-.748-1.002-.682-1.047-.613-1.09-.542-1.126-.47-1.158-.393-1.187-.318-1.209-.238-1.227-.16-1.24-.08-1.247v-1.25l.08-1.247.16-1.24.238-1.227.318-1.21.393-1.186.47-1.158.542-1.126.613-1.09.682-1.047.748-1.002.81-.952.87-.898.925-.84.977-.78c.289-.2.577-.402 1.026-.715l1.069-.648 1.108-.578 1.143-.506 1.173-.432 1.198-.355 1.219-.278 1.234-.2 1.244-.12 1.25-.04" style="fill:#e6f6ea!important" transform="translate(1109.058 27.5)"/><path fill="none" stroke="#9370db" stroke-dasharray="0 0" stroke-width="1.3" d="M-21.773-19.5h43.546m-43.546 0h43.546m0 0 1.25.04m-1.25-.04 1.25.04m0 0 1.244.12m-1.244-.12 1.244.12m0 0 1.234.2m-1.234-.2 1.234.2m0 0 1.219.278m-1.22-.278 1.219.278m0 0 1.198.355m-1.198-.355 1.198.355m0 0 1.173.432m-1.173-.432 1.173.432m0 0 1.143.506m-1.143-.506 1.143.506m0 0 1.108.578m-1.108-.578 1.108.578m0 0 1.07.648m-1.07-.648 1.07.648m0 0 1.025.715m-1.026-.715 1.026.715m0 0 .977.78m-.977-.78.977.78m0 0 .925.84m-.925-.84.925.84m0 0 .87.898m-.87-.898.87.898m0 0 .81.952m-.81-.952.81.952m0 0 .748 1.002m-.748-1.002.748 1.002m0 0 .682 1.047m-.682-1.047.682 1.047m0 0 .613 1.09m-.613-1.09.613 1.09m0 0 .542 1.126m-.542-1.126.542 1.126m0 0 .47 1.158m-.47-1.158.47 1.158m0 0 .393 1.187m-.393-1.187.393 1.187m0 0 .318 1.209m-.318-1.21.318 1.21m0 0 .238 1.227m-.238-1.227.238 1.227m0 0 .16 1.24m-.16-1.24c.045.344.09.688.16 1.24m0 0 .08 1.247m-.08-1.247.08 1.247m0 0v1.25m0-1.25v1.25m0 0-.08 1.247m.08-1.247-.08 1.247m0 0-.16 1.24m.16-1.24c-.06.47-.12.94-.16 1.24m0 0-.238 1.227m.238-1.227-.238 1.227m0 0-.318 1.21m.318-1.21-.318 1.21m0 0-.393 1.186m.393-1.187-.393 1.187m0 0-.47 1.158m.47-1.158-.47 1.158m0 0-.542 1.126m.542-1.126c-.12.252-.242.504-.542 1.126m0 0-.613 1.09m.613-1.09-.613 1.09m0 0-.682 1.047m.682-1.047-.682 1.047m0 0-.748 1.002m.748-1.002-.748 1.002m0 0-.81.952m.81-.952-.81.952m0 0-.87.898m.87-.898-.87.898m0 0-.925.84m.925-.84-.925.84m0 0-.977.78m.977-.78-.977.78m0 0-1.026.715m1.026-.715-1.026.715m0 0-1.069.648m1.07-.648-1.07.648m0 0-1.108.578m1.108-.578-1.108.578m0 0-1.143.506m1.143-.506-1.143.506m0 0-1.173.432m1.173-.432-1.173.432m0 0-1.198.355m1.198-.355-1.198.355m0 0-1.219.278m1.219-.278-1.219.278m0 0-1.234.2m1.234-.2-1.234.2m0 0-1.244.12m1.244-.12-1.244.12m0 0-1.25.04m1.25-.04-1.25.04m0 0h-43.546m43.546 0h-43.546m0 0-1.25-.04m1.25.04-1.25-.04m0 0-1.244-.12m1.244.12-1.244-.12m0 0-1.234-.2m1.234.2-1.234-.2m0 0-1.219-.278m1.219.278-1.219-.278m0 0-1.198-.355m1.198.355-1.198-.355m0 0-1.173-.432m1.173.432-1.173-.432m0 0-1.143-.506m1.143.506-1.143-.506m0 0-1.108-.578m1.108.578-1.108-.578m0 0-1.07-.648m1.07.648-1.07-.648m0 0-1.025-.715m1.026.715-1.026-.715m0 0-.977-.78m.977.78-.977-.78m0 0-.925-.84m.925.84-.925-.84m0 0-.87-.898m.87.898-.87-.898m0 0-.81-.952m.81.952-.81-.952m0 0-.748-1.002m.748 1.002-.748-1.002m0 0-.682-1.047m.682 1.047-.682-1.047m0 0-.613-1.09m.613 1.09-.613-1.09m0 0-.542-1.126m.542 1.126-.542-1.126m0 0-.47-1.158m.47 1.158-.47-1.158m0 0-.393-1.187m.393 1.187-.393-1.187m0 0-.318-1.209m.318 1.21-.318-1.21m0 0-.238-1.227m.238 1.227-.238-1.227m0 0-.16-1.24m.16 1.24-.16-1.24m0 0-.08-1.247m.08 1.247-.08-1.247m0 0v-1.25m0 1.25v-1.25m0 0 .08-1.247m-.08 1.247.08-1.247m0 0 .16-1.24m-.16 1.24.16-1.24m0 0 .238-1.227m-.238 1.227.238-1.227m0 0 .318-1.21m-.318 1.21.318-1.21m0 0 .393-1.186m-.393 1.187.393-1.187m0 0 .47-1.158m-.47 1.158.47-1.158m0 0 .542-1.126m-.542 1.126.542-1.126m0 0 .613-1.09m-.613 1.09.613-1.09m0 0 .682-1.047m-.682 1.047.682-1.047m0 0 .748-1.002m-.748 1.002.748-1.002m0 0 .81-.952m-.81.952.81-.952m0 0 .87-.898m-.87.898.87-.898m0 0 .925-.84m-.925.84.925-.84m0 0 .977-.78m-.977.78.977-.78m0 0 1.026-.715m-1.026.715 1.026-.715m0 0 1.069-.648m-1.07.648c.382-.23.763-.462 1.07-.648m0 0 1.108-.578m-1.108.578 1.108-.578m0 0 1.143-.506m-1.143.506 1.143-.506m0 0 1.173-.432m-1.173.432 1.173-.432m0 0 1.198-.355m-1.198.355 1.198-.355m0 0 1.219-.278m-1.219.278 1.219-.278m0 0 1.234-.2m-1.234.2 1.234-.2m0 0 1.244-.12m-1.244.12 1.244-.12m0 0 1.25-.04m-1.25.04 1.25-.04m0 0" style="fill:#e6f6ea!important" transform="translate(1109.058 27.5)"/></g><g class="label" style="color:#1c7e4f!important" transform="translate(1080.16 15.5)"><rect/><foreignObject width="57.797" height="24"><div xmlns="http://www.w3.org/1999/xhtml" style="color:#1c7e4f!important;display:table-cell;white-space:nowrap;line-height:1.5;max-width:200px;text-align:center"><span class="nodeLabel" style="fill:#e6f6ea!important;color:#1c7e4f!important"><p>success</p></span></div></foreignObject></g></g><g id="flowchart-FAIL-13" class="node default failure"><g class="basic label-container outer-path"><path stroke-width="0" d="M-3.102-19.5h6.204l1.249.04 1.244.12 1.234.2 1.219.278 1.198.355 1.173.432 1.143.506 1.109.578 1.068.648 1.026.715.977.78.925.84.87.898.81.952.748 1.002.682 1.047.613 1.09c.186.384.37.77.543 1.126l.469 1.158.394 1.187.317 1.209.239 1.227.16 1.24.08 1.247v1.25l-.08 1.247-.16 1.24-.24 1.227-.316 1.21-.394 1.186-.47 1.158-.542 1.126-.613 1.09-.682 1.047-.748 1.002-.81.952-.87.898-.925.84-.977.78-1.026.715-1.068.648-1.109.578-1.143.506-1.173.432-1.198.355-1.219.278-1.234.2-1.244.12-1.25.04h-6.203l-1.249-.04-1.244-.12-1.234-.2-1.219-.278-1.198-.355-1.173-.432-1.143-.506-1.109-.578-1.068-.648-1.026-.715-.977-.78-.925-.84-.87-.898-.81-.952-.748-1.002-.682-1.047-.613-1.09-.543-1.126-.469-1.158-.394-1.187-.317-1.209-.239-1.227-.16-1.24-.08-1.247v-1.25l.08-1.247c.05-.379.098-.758.16-1.24l.24-1.227.316-1.21.394-1.186.47-1.158.542-1.126.613-1.09.682-1.047.748-1.002.81-.952.87-.898.925-.84.977-.78 1.026-.715 1.068-.648 1.109-.578 1.143-.506 1.173-.432 1.198-.355 1.219-.278 1.234-.2 1.244-.12 1.25-.04" style="fill:#f8e3e3!important" transform="translate(1109.058 116.5)"/><path fill="none" stroke="#9370db" stroke-dasharray="0 0" stroke-width="1.3" d="M-3.102-19.5h6.204m-6.204 0h6.204m0 0 1.249.04M3.1-19.5l1.25.04m0 0 1.244.12m-1.244-.12 1.244.12m0 0 1.234.2m-1.234-.2 1.234.2m0 0 1.219.278m-1.219-.278 1.219.278m0 0 1.198.355m-1.198-.355 1.198.355m0 0 1.173.432m-1.173-.432 1.173.432m0 0 1.143.506m-1.143-.506 1.143.506m0 0 1.109.578m-1.109-.578 1.109.578m0 0 1.068.648m-1.068-.648 1.068.648m0 0 1.026.715m-1.026-.715 1.026.715m0 0 .977.78m-.977-.78.977.78m0 0 .925.84m-.925-.84.925.84m0 0 .87.898m-.87-.898.87.898m0 0 .81.952m-.81-.952.81.952m0 0 .748 1.002m-.748-1.002.748 1.002m0 0 .682 1.047m-.682-1.047.682 1.047m0 0 .613 1.09m-.613-1.09.613 1.09m0 0 .543 1.126M20.39-9.02l.543 1.126m0 0 .469 1.158m-.47-1.158.47 1.158m0 0 .394 1.187m-.394-1.187.394 1.187m0 0 .317 1.209m-.317-1.21c.088.34.177.678.317 1.21m0 0 .239 1.227m-.24-1.227.24 1.227m0 0 .16 1.24m-.16-1.24.16 1.24m0 0 .08 1.247m-.08-1.247.08 1.247m0 0v1.25m0-1.25v1.25m0 0-.08 1.247m.08-1.247-.08 1.247m0 0-.16 1.24m.16-1.24-.16 1.24m0 0-.24 1.227m.24-1.227-.24 1.227m0 0-.316 1.21m.317-1.21-.317 1.21m0 0c-.116.346-.23.694-.394 1.186m.394-1.187-.394 1.187m0 0-.47 1.158m.47-1.158-.47 1.158m0 0L20.39 9.02m.543-1.126L20.39 9.02m0 0-.613 1.09m.613-1.09-.613 1.09m0 0-.682 1.047m.682-1.047-.682 1.047m0 0-.748 1.002m.748-1.002-.748 1.002m0 0-.81.952m.81-.952-.81.952m0 0-.87.898m.87-.898-.87.898m0 0-.925.84m.925-.84-.925.84m0 0-.977.78m.977-.78-.977.78m0 0-1.026.715m1.026-.715-1.026.715m0 0-1.068.648m1.068-.648-1.068.648m0 0-1.109.578m1.109-.578-1.109.578m0 0-1.143.506m1.143-.506-1.143.506m0 0-1.173.432m1.173-.432-1.173.432m0 0-1.198.355m1.198-.355-1.198.355m0 0-1.219.278m1.219-.278-1.219.278m0 0c-.487.08-.974.158-1.234.2m1.234-.2-1.234.2m0 0-1.244.12m1.244-.12-1.244.12m0 0-1.25.04m1.25-.04-1.25.04m0 0h-6.203m6.204 0h-6.204m0 0-1.249-.04m1.25.04-1.25-.04m0 0-1.244-.12m1.244.12-1.244-.12m0 0-1.234-.2m1.234.2-1.234-.2m0 0-1.219-.278m1.219.278-1.219-.278m0 0-1.198-.355m1.198.355-1.198-.355m0 0-1.173-.432m1.173.432-1.173-.432m0 0-1.143-.506m1.143.506-1.143-.506m0 0-1.109-.578m1.109.578-1.109-.578m0 0-1.068-.648m1.068.648-1.068-.648m0 0-1.026-.715m1.026.715-1.026-.715m0 0c-.211-.17-.423-.338-.977-.78m.977.78-.977-.78m0 0-.925-.84m.925.84-.925-.84m0 0-.87-.898m.87.898-.87-.898m0 0-.81-.952m.81.952-.81-.952m0 0-.748-1.002m.748 1.002-.748-1.002m0 0-.682-1.047m.682 1.047-.682-1.047m0 0-.613-1.09m.613 1.09-.613-1.09m0 0-.543-1.126m.543 1.126-.543-1.126m0 0-.469-1.158m.47 1.158-.47-1.158m0 0-.394-1.187m.394 1.187c-.15-.455-.301-.91-.394-1.187m0 0-.317-1.209m.317 1.21c-.12-.463-.242-.925-.317-1.21m0 0-.239-1.227m.24 1.227c-.05-.25-.098-.499-.24-1.227m0 0-.16-1.24m.16 1.24-.16-1.24m0 0c-.02-.32-.04-.64-.08-1.247m.08 1.247-.08-1.247m0 0v-1.25m0 1.25v-1.25m0 0c.03-.45.058-.9.08-1.247m-.08 1.247.08-1.247m0 0 .16-1.24m-.16 1.24.16-1.24m0 0 .24-1.227m-.24 1.227.24-1.227m0 0 .316-1.21m-.317 1.21.317-1.21m0 0 .394-1.186m-.394 1.187.394-1.187m0 0 .47-1.158m-.47 1.158.47-1.158m0 0 .542-1.126m-.543 1.126.543-1.126m0 0 .613-1.09m-.613 1.09.613-1.09m0 0 .682-1.047m-.682 1.047.682-1.047m0 0 .748-1.002m-.748 1.002.748-1.002m0 0 .81-.952m-.81.952.81-.952m0 0 .87-.898m-.87.898.87-.898m0 0 .925-.84m-.925.84.925-.84m0 0 .977-.78m-.977.78.977-.78m0 0 1.026-.715m-1.026.715 1.026-.715m0 0 1.068-.648m-1.068.648 1.068-.648m0 0 1.109-.578m-1.109.578 1.109-.578m0 0 1.143-.506m-1.143.506 1.143-.506m0 0 1.173-.432m-1.173.432 1.173-.432m0 0 1.198-.355m-1.198.355 1.198-.355m0 0 1.219-.278m-1.219.278 1.219-.278m0 0 1.234-.2m-1.234.2 1.234-.2m0 0 1.244-.12m-1.244.12 1.244-.12m0 0 1.25-.04m-1.25.04 1.25-.04m0 0" style="fill:#f8e3e3!important" transform="translate(1109.058 116.5)"/></g><g class="label" style="color:#b13e3e!important" transform="translate(1098.831 104.5)"><rect/><foreignObject width="20.453" height="24"><div xmlns="http://www.w3.org/1999/xhtml" style="color:#b13e3e!important;display:table-cell;white-space:nowrap;line-height:1.5;max-width:200px;text-align:center"><span class="nodeLabel" style="fill:#f8e3e3!important;color:#b13e3e!important"><p>fail</p></span></div></foreignObject></g></g></g></g></svg>