<svg xmlns="http://www.w3.org/2000/svg" id="mermaid-diagram-desktop" width="900" aria-roledescription="flowchart-v2" class="flowchart" style="font-family:Arial,sans-serif;font-size:16px;fill:#333;max-width:1215.5068359375px" viewBox="0 0 1215.507 373"><style><![CDATA[@keyframes edge-animation-frame{0%{stroke-dashoffset:0}}@keyframes dash{to{stroke-dashoffset:0}}#mermaid-diagram-desktop .edge-thickness-normal{stroke-width:1px}#mermaid-diagram-desktop .edge-pattern-solid{stroke-dasharray:0}#mermaid-diagram-desktop .marker{fill:#333;stroke:#333}#mermaid-diagram-desktop .marker.cross{stroke:#333}#mermaid-diagram-desktop svg{font-family:Arial,sans-serif;font-size:16px}#mermaid-diagram-desktop p{margin:0}#mermaid-diagram-desktop .label{font-family:Arial,sans-serif;color:#333}#mermaid-diagram-desktop span{fill:#333;color:#333}#mermaid-diagram-desktop .node circle,#mermaid-diagram-desktop .node path,#mermaid-diagram-desktop .node rect{fill:#ececff;stroke:#9370db;stroke-width:1px}#mermaid-diagram-desktop .flowchart-link{stroke:#333;fill:none}#mermaid-diagram-desktop .edgeLabel,#mermaid-diagram-desktop .node .label{text-align:center}#mermaid-diagram-desktop .edgeLabel,#mermaid-diagram-desktop .edgeLabel p{background-color:rgba(232,232,232,.8)}#mermaid-diagram-desktop .edgeLabel rect{opacity:.5;background-color:rgba(232,232,232,.8);fill:rgba(232,232,232,.8)}#mermaid-diagram-desktop .labelBkg{background-color:rgba(232,232,232,.5)}#mermaid-diagram-desktop :root{--mermaid-font-family:Arial,sans-serif}#mermaid-diagram-desktop .operation>*{fill:#fef0e3!important;color:#b86a1c!important}#mermaid-diagram-desktop .transform span,#mermaid-diagram-desktop .transform>*{fill:#e3f0e8!important;color:#2f7a5c!important}#mermaid-diagram-desktop .failure>*{fill:#f8e3e3!important;color:#b13e3e!important}#mermaid-diagram-desktop .success>*{fill:#e6f6ea!important;color:#1c7e4f!important}#mermaid-diagram-desktop .entry>*{fill:none!important;stroke:none!important}]]></style><marker id="mermaid-diagram-desktop_flowchart-v2-pointEnd" class="marker flowchart-v2" markerHeight="8" markerUnits="userSpaceOnUse" markerWidth="8" orient="auto" refX="5" refY="5" viewBox="0 0 10 10"><path d="m0 0 10 5-10 5z" class="arrowMarkerPath" style="stroke-width:1;stroke-dasharray:1,0"/></marker><marker id="mermaid-diagram-desktop_flowchart-v2-pointStart" class="marker flowchart-v2" markerHeight="8" markerUnits="userSpaceOnUse" markerWidth="8" orient="auto" refX="4.5" refY="5" viewBox="0 0 10 10"><path d="m0 5 10 5V0z" class="arrowMarkerPath" style="stroke-width:1;stroke-dasharray:1,0"/></marker><marker id="mermaid-diagram-desktop_flowchart-v2-circleEnd" class="marker flowchart-v2" markerHeight="11" markerUnits="userSpaceOnUse" markerWidth="11" orient="auto" refX="11" refY="5" viewBox="0 0 10 10"><circle cx="5" cy="5" r="5" class="arrowMarkerPath" style="stroke-width:1;stroke-dasharray:1,0"/></marker><marker id="mermaid-diagram-desktop_flowchart-v2-circleStart" class="marker flowchart-v2" markerHeight="11" markerUnits="userSpaceOnUse" markerWidth="11" orient="auto" refX="-1" refY="5" viewBox="0 0 10 10"><circle cx="5" cy="5" r="5" class="arrowMarkerPath" style="stroke-width:1;stroke-dasharray:1,0"/></marker><marker id="mermaid-diagram-desktop_flowchart-v2-crossEnd" class="marker cross flowchart-v2" markerHeight="11" markerUnits="userSpaceOnUse" markerWidth="11" orient="auto" refX="12" refY="5.2" viewBox="0 0 11 11"><path d="m1 1 9 9m0-9-9 9" class="arrowMarkerPath" style="stroke-width:2;stroke-dasharray:1,0"/></marker><marker id="mermaid-diagram-desktop_flowchart-v2-crossStart" class="marker cross flowchart-v2" markerHeight="11" markerUnits="userSpaceOnUse" markerWidth="11" orient="auto" refX="-1" refY="5.2" viewBox="0 0 11 11"><path d="m1 1 9 9m0-9-9 9" class="arrowMarkerPath" style="stroke-width:2;stroke-dasharray:1,0"/></marker><g class="root"><g class="clusters"><g id="sg_N1_ValidateUser" class="cluster" data-look="classic"><rect width="720.433" height="268" x="8" y="8" style="fill:#ffffde;stroke:#aa3;stroke-width:1px"/><foreignObject width="90.422" height="24" class="cluster-label" transform="translate(323.006 8)"><div xmlns="http://www.w3.org/1999/xhtml" style="display:table-cell;white-space:nowrap;line-height:1.5;max-width:200px;text-align:center"><span class="nodeLabel" style="color:#333"><p style="background-color:transparent">ValidateUser</p></span></div></foreignObject></g></g><g class="edgePaths"><path id="L_N0_PlaceOrder_FAIL_0" marker-end="url(#mermaid-diagram-desktop_flowchart-v2-pointEnd)" d="m408.834 311 23.766-18.5c23.766-18.5 71.298-55.5 112.321-76.043s75.538-24.631 92.795-26.674l17.257-2.044" class="edge-thickness-normal edge-pattern-solid edge-thickness-normal edge-pattern-solid flowchart-link"/><path id="L_ENTRY_N1_ValidateUser_N1_0_Bind_0" marker-end="url(#mermaid-diagram-desktop_flowchart-v2-pointEnd)" d="M93 113.75h46" class="edge-pattern-solid edge-thickness-normal flowchart-link" style="stroke-width:3.5px"/><path id="L_N1_0_Bind_N1_1_Bind_0" marker-end="url(#mermaid-diagram-desktop_flowchart-v2-pointEnd)" d="m236.781 95.22 5.576-2.203c5.575-2.204 16.726-6.61 31.139-8.814S305.583 82 314.421 82h8.837" class="edge-thickness-normal edge-pattern-solid edge-thickness-normal edge-pattern-solid flowchart-link"/><path id="L_N1_0_Bind_FAIL_0" marker-end="url(#mermaid-diagram-desktop_flowchart-v2-pointEnd)" d="m236.781 145.412 5.576 3.764c5.575 3.765 16.726 11.295 39.621 15.059C304.872 168 339.51 168 386.376 168s105.96 0 152.765 2.204 81.321 6.612 98.579 8.816l17.258 2.204" class="edge-thickness-normal edge-pattern-solid edge-thickness-normal edge-pattern-solid flowchart-link"/><path id="L_N1_1_Bind_FAIL_0" marker-end="url(#mermaid-diagram-desktop_flowchart-v2-pointEnd)" d="M421.039 82h21.732c21.732 0 65.195 0 105.198 14.418s76.545 43.254 94.816 57.672l18.271 14.418" class="edge-thickness-normal edge-pattern-solid edge-thickness-normal edge-pattern-solid flowchart-link"/><path id="L_N2_ProcessPayment_FAIL_0" marker-end="url(#mermaid-diagram-desktop_flowchart-v2-pointEnd)" d="m877.136 214.052-12.392 4.116c-12.392 4.117-37.175 12.349-61.959 16.466-24.784 4.116-49.568 4.116-67.033-1.732s-27.613-17.544-32.686-23.392l-5.073-5.848" class="edge-thickness-normal edge-pattern-solid edge-thickness-normal edge-pattern-solid flowchart-link"/><path id="L_N2_ProcessPayment_SUCCESS_0" marker-end="url(#mermaid-diagram-desktop_flowchart-v2-pointEnd)" d="M1058.074 184h5.575c5.576 0 16.727 0 27.295.074 10.567.073 20.552.22 25.544.294l4.992.073" class="edge-thickness-normal edge-pattern-solid edge-thickness-normal edge-pattern-solid flowchart-link"/><path id="L_N0_PlaceOrder_sg_N1_ValidateUser_0" marker-end="url(#mermaid-diagram-desktop_flowchart-v2-pointEnd)" d="m425.07 311 62.475-33.126" class="edge-thickness-normal edge-pattern-solid edge-thickness-normal edge-pattern-solid flowchart-link"/><path id="L_sg_N1_ValidateUser_N2_ProcessPayment_0" marker-end="url(#mermaid-diagram-desktop_flowchart-v2-pointEnd)" d="M728.433 65h12.392c12.392 0 37.176 0 67.494 12.943 30.319 12.943 66.173 38.829 84.099 51.772l17.927 12.944" class="edge-thickness-normal edge-pattern-solid edge-thickness-normal edge-pattern-solid flowchart-link"/></g><g class="edgeLabels"><g class="edgeLabel"><foreignObject width="139.609" height="24" class="label" transform="translate(453.044 210.248)"><div xmlns="http://www.w3.org/1999/xhtml" class="labelBkg" style="display:table-cell;white-space:nowrap;line-height:1.5;max-width:200px;text-align:center"><span class="edgeLabel"><p>UserNotFoundError</p></span></div></foreignObject></g><g class="edgeLabel"><foreignObject width="0" height="0" class="label"><div xmlns="http://www.w3.org/1999/xhtml" class="labelBkg" style="display:table-cell;white-space:nowrap;line-height:1.5;max-width:200px;text-align:center"><span class="edgeLabel"/></div></foreignObject></g><g class="edgeLabel"><foreignObject width="16.906" height="24" class="label" transform="translate(261.781 70)"><div xmlns="http://www.w3.org/1999/xhtml" class="labelBkg" style="display:table-cell;white-space:nowrap;line-height:1.5;max-width:200px;text-align:center"><span class="edgeLabel"><p>ok</p></span></div></foreignObject></g><g class="edgeLabel"><foreignObject width="124.484" height="24" class="label" transform="translate(311.906 156)"><div xmlns="http://www.w3.org/1999/xhtml" class="labelBkg" style="display:table-cell;white-space:nowrap;line-height:1.5;max-width:200px;text-align:center"><span class="edgeLabel"><p>UserInactiveError</p></span></div></foreignObject></g><g class="edgeLabel"><foreignObject width="163.641" height="24" class="label" transform="translate(469.61 70)"><div xmlns="http://www.w3.org/1999/xhtml" class="labelBkg" style="display:table-cell;white-space:nowrap;line-height:1.5;max-width:200px;text-align:center"><span class="edgeLabel"><p>UnauthorizedRoleError</p></span></div></foreignObject></g><g class="edgeLabel"><foreignObject width="98.703" height="24" class="label" transform="translate(753.433 226.75)"><div xmlns="http://www.w3.org/1999/xhtml" class="labelBkg" style="display:table-cell;white-space:nowrap;line-height:1.5;max-width:200px;text-align:center"><span class="edgeLabel"><p>PaymentError</p></span></div></foreignObject></g><g class="edgeLabel"><foreignObject width="16.906" height="24" class="label" transform="translate(1083.074 172)"><div xmlns="http://www.w3.org/1999/xhtml" class="labelBkg" style="display:table-cell;white-space:nowrap;line-height:1.5;max-width:200px;text-align:center"><span class="edgeLabel"><p>ok</p></span></div></foreignObject></g><g class="edgeLabel"><foreignObject width="16.906" height="24" class="label" transform="translate(449.621 281.5)"><div xmlns="http://www.w3.org/1999/xhtml" class="labelBkg" style="display:table-cell;white-space:nowrap;line-height:1.5;max-width:200px;text-align:center"><span class="edgeLabel"><p>ok</p></span></div></foreignObject></g><g class="edgeLabel"><foreignObject width="16.906" height="24" class="label" transform="translate(819.592 71.238)"><div xmlns="http://www.w3.org/1999/xhtml" class="labelBkg" style="display:table-cell;white-space:nowrap;line-height:1.5;max-width:200px;text-align:center"><span class="edgeLabel"><p>ok</p></span></div></foreignObject></g></g><g class="nodes"><g id="flowchart-N0_PlaceOrder-0" class="node default operation" transform="translate(374.148 338)"><rect width="140.922" height="54" x="-70.461" y="-27" class="basic label-container" style="fill:#fef0e3!important"/><g class="label" style="color:#b86a1c!important" transform="translate(-40.46 -12)"><rect/><foreignObject width="80.922" height="24"><div xmlns="http://www.w3.org/1999/xhtml" style="color:#b86a1c!important;display:table-cell;white-space:nowrap;line-height:1.5;max-width:200px;text-align:center"><span class="nodeLabel" style="fill:#fef0e3!important;color:#b86a1c!important"><p>PlaceOrder</p></span></div></foreignObject></g></g><g id="flowchart-FAIL-4" class="node default failure"><g class="basic label-container outer-path"><path stroke-width="0" d="M-3.102-19.5h6.204l1.249.04 1.244.12 1.234.2 1.219.278 1.198.355 1.173.432 1.143.506 1.109.578 1.068.648 1.026.715.977.78.925.84.87.898.81.952.748 1.002.682 1.047.613 1.09.543 1.126.469 1.158.394 1.187.317 1.209.239 1.227c.05.397.102.793.16 1.24l.08 1.247v1.25l-.08 1.247-.16 1.24-.24 1.227-.316 1.21-.394 1.186-.47 1.158-.542 1.126-.613 1.09-.682 1.047-.748 1.002-.81.952-.87.898-.925.84-.977.78-1.026.715-1.068.648-1.109.578-1.143.506-1.173.432-1.198.355-1.219.278-1.234.2-1.244.12-1.25.04h-6.203l-1.249-.04-1.244-.12-1.234-.2-1.219-.278-1.198-.355-1.173-.432-1.143-.506-1.109-.578-1.068-.648-1.026-.715-.977-.78-.925-.84-.87-.898-.81-.952-.748-1.002-.682-1.047-.613-1.09-.543-1.126-.469-1.158-.394-1.187q-.157-.603-.317-1.209l-.239-1.227-.16-1.24-.08-1.247v-1.25c.02-.291.038-.583.08-1.247l.16-1.24.24-1.227.316-1.21.394-1.186.47-1.158c.213-.445.427-.889.542-1.126l.613-1.09.682-1.047.748-1.002.81-.952.87-.898.925-.84.977-.78 1.026-.715 1.068-.648 1.109-.578 1.143-.506 1.173-.432 1.198-.355 1.219-.278 1.234-.2 1.244-.12 1.25-.04" style="fill:#f8e3e3!important" transform="translate(680.842 184)"/><path fill="none" stroke="#9370db" stroke-dasharray="0 0" stroke-width="1.3" d="M-3.102-19.5h6.204m-6.204 0h6.204m0 0 1.249.04M3.1-19.5l1.25.04m0 0 1.244.12m-1.244-.12 1.244.12m0 0 1.234.2m-1.234-.2 1.234.2m0 0c.375.085.75.17 1.219.278m-1.219-.278c.419.095.838.19 1.219.278m0 0c.24.07.48.142 1.198.355m-1.198-.355 1.198.355m0 0 1.173.432m-1.173-.432 1.173.432m0 0 1.143.506m-1.143-.506 1.143.506m0 0 1.109.578m-1.109-.578 1.109.578m0 0 1.068.648m-1.068-.648 1.068.648m0 0 1.026.715m-1.026-.715 1.026.715m0 0 .977.78m-.977-.78.977.78m0 0 .925.84m-.925-.84.925.84m0 0 .87.898m-.87-.898.87.898m0 0 .81.952m-.81-.952.81.952m0 0 .748 1.002m-.748-1.002.748 1.002m0 0 .682 1.047m-.682-1.047c.2.308.4.616.682 1.047m0 0 .613 1.09m-.613-1.09.613 1.09m0 0 .543 1.126M20.39-9.02l.543 1.126m0 0 .469 1.158m-.47-1.158c.1.243.198.486.47 1.158m0 0 .394 1.187m-.394-1.187.394 1.187m0 0 .317 1.209m-.317-1.21.317 1.21m0 0 .239 1.227m-.24-1.227.24 1.227m0 0 .16 1.24m-.16-1.24c.04.318.082.637.16 1.24m0 0 .08 1.247m-.08-1.247.08 1.247m0 0v1.25m0-1.25v1.25m0 0-.08 1.247m.08-1.247-.08 1.247m0 0-.16 1.24m.16-1.24-.16 1.24m0 0-.24 1.227m.24-1.227-.24 1.227m0 0-.316 1.21m.317-1.21-.317 1.21m0 0-.394 1.186m.394-1.187-.394 1.187m0 0-.47 1.158m.47-1.158-.47 1.158m0 0c-.183.383-.368.765-.542 1.126m.543-1.126L20.39 9.02m0 0-.613 1.09m.613-1.09-.613 1.09m0 0-.682 1.047m.682-1.047-.682 1.047m0 0-.748 1.002m.748-1.002-.748 1.002m0 0-.81.952m.81-.952-.81.952m0 0-.87.898m.87-.898-.87.898m0 0-.925.84m.925-.84-.925.84m0 0-.977.78m.977-.78-.977.78m0 0-1.026.715m1.026-.715-1.026.715m0 0-1.068.648m1.068-.648-1.068.648m0 0-1.109.578m1.109-.578-1.109.578m0 0-1.143.506m1.143-.506-1.143.506m0 0-1.173.432m1.173-.432-1.173.432m0 0-1.198.355m1.198-.355-1.198.355m0 0-1.219.278m1.219-.278-1.219.278m0 0-1.234.2m1.234-.2-1.234.2m0 0-1.244.12m1.244-.12-1.244.12m0 0-1.25.04m1.25-.04-1.25.04m0 0h-6.203m6.204 0h-6.204m0 0-1.249-.04m1.25.04-1.25-.04m0 0-1.244-.12m1.244.12-1.244-.12m0 0-1.234-.2m1.234.2-1.234-.2m0 0-1.219-.278m1.219.278-1.219-.278m0 0-1.198-.355m1.198.355-1.198-.355m0 0-1.173-.432m1.173.432-1.173-.432m0 0-1.143-.506m1.143.506-1.143-.506m0 0-1.109-.578m1.109.578-1.109-.578m0 0-1.068-.648m1.068.648-1.068-.648m0 0-1.026-.715m1.026.715-1.026-.715m0 0-.977-.78m.977.78-.977-.78m0 0-.925-.84m.925.84-.925-.84m0 0-.87-.898m.87.898-.87-.898m0 0-.81-.952m.81.952-.81-.952m0 0-.748-1.002m.748 1.002-.748-1.002m0 0-.682-1.047m.682 1.047-.682-1.047m0 0-.613-1.09m.613 1.09-.613-1.09m0 0-.543-1.126m.543 1.126-.543-1.126m0 0-.469-1.158m.47 1.158-.47-1.158m0 0-.394-1.187m.394 1.187-.394-1.187m0 0-.317-1.209m.317 1.21-.317-1.21m0 0-.239-1.227m.24 1.227-.24-1.227m0 0-.16-1.24m.16 1.24-.16-1.24m0 0c-.03-.484-.062-.968-.08-1.247m.08 1.247-.08-1.247m0 0v-1.25m0 1.25v-1.25m0 0 .08-1.247m-.08 1.247.08-1.247m0 0 .16-1.24m-.16 1.24c.06-.456.118-.912.16-1.24m0 0 .24-1.227m-.24 1.227.24-1.227m0 0c.07-.272.142-.543.316-1.21m-.317 1.21.317-1.21m0 0 .394-1.186m-.394 1.187.394-1.187m0 0 .47-1.158m-.47 1.158.47-1.158m0 0 .542-1.126m-.543 1.126.543-1.126m0 0 .613-1.09m-.613 1.09.613-1.09m0 0 .682-1.047m-.682 1.047.682-1.047m0 0 .748-1.002m-.748 1.002.748-1.002m0 0 .81-.952m-.81.952.81-.952m0 0 .87-.898m-.87.898.87-.898m0 0 .925-.84m-.925.84.925-.84m0 0 .977-.78m-.977.78.977-.78m0 0 1.026-.715m-1.026.715 1.026-.715m0 0c.339-.205.678-.41 1.068-.648m-1.068.648 1.068-.648m0 0 1.109-.578m-1.109.578 1.109-.578m0 0 1.143-.506m-1.143.506 1.143-.506m0 0 1.173-.432m-1.173.432 1.173-.432m0 0 1.198-.355m-1.198.355 1.198-.355m0 0c.346-.08.691-.158 1.219-.278m-1.219.278 1.219-.278m0 0 1.234-.2m-1.234.2 1.234-.2m0 0 1.244-.12m-1.244.12 1.244-.12m0 0 1.25-.04m-1.25.04 1.25-.04m0 0" style="fill:#f8e3e3!important" transform="translate(680.842 184)"/></g><g class="label" style="color:#b13e3e!important" transform="translate(670.615 172)"><rect/><foreignObject width="20.453" height="24"><div xmlns="http://www.w3.org/1999/xhtml" style="color:#b13e3e!important;display:table-cell;white-space:nowrap;line-height:1.5;max-width:200px;text-align:center"><span class="nodeLabel" style="fill:#f8e3e3!important;color:#b13e3e!important"><p>fail</p></span></div></foreignObject></g></g><g id="flowchart-ENTRY_N1_ValidateUser-5" class="node default entry" transform="translate(63 113.75)"><rect width="60" height="30" x="-30" y="-15" class="basic label-container" style="fill:none!important;stroke:none!important"/><g class="label"><rect/><foreignObject width="0" height="0"><div xmlns="http://www.w3.org/1999/xhtml" style="display:table-cell;white-space:nowrap;line-height:1.5;max-width:200px;text-align:center"><span class="nodeLabel" style="fill:none!important;stroke:none!important"/></div></foreignObject></g></g><g id="flowchart-N1_0_Bind-7" class="node default transform" transform="translate(189.89 113.75)"><rect width="93.781" height="78" x="-46.891" y="-39" class="basic label-container" style="fill:#e3f0e8!important"/><g class="label" style="color:#2f7a5c!important" transform="translate(-16.89 -24)"><rect/><foreignObject width="33.781" height="48"><div xmlns="http://www.w3.org/1999/xhtml" style="color:#2f7a5c!important;display:table-cell;white-space:nowrap;line-height:1.5;max-width:200px;text-align:center"><span class="nodeLabel" style="color:#2f7a5c!important"><p>Bind<br/>User</p></span></div></foreignObject></g></g><g id="flowchart-N1_1_Bind-10" class="node default transform" transform="translate(374.148 82)"><rect width="93.781" height="78" x="-46.891" y="-39" class="basic label-container" style="fill:#e3f0e8!important"/><g class="label" style="color:#2f7a5c!important" transform="translate(-16.89 -24)"><rect/><foreignObject width="33.781" height="48"><div xmlns="http://www.w3.org/1999/xhtml" style="color:#2f7a5c!important;display:table-cell;white-space:nowrap;line-height:1.5;max-width:200px;text-align:center"><span class="nodeLabel" style="color:#2f7a5c!important"><p>Bind<br/>User</p></span></div></foreignObject></g></g><g id="flowchart-N2_ProcessPayment-17" class="node default transform" transform="translate(967.605 184)"><rect width="180.938" height="78" x="-90.469" y="-39" class="basic label-container" style="fill:#e3f0e8!important"/><g class="label" style="color:#2f7a5c!important" transform="translate(-60.469 -24)"><rect/><foreignObject width="120.938" height="48"><div xmlns="http://www.w3.org/1999/xhtml" style="color:#2f7a5c!important;display:table-cell;white-space:nowrap;line-height:1.5;max-width:200px;text-align:center"><span class="nodeLabel" style="color:#2f7a5c!important"><p>ProcessPayment<br/>User → Order</p></span></div></foreignObject></g></g><g id="flowchart-SUCCESS-22" class="node default success"><g class="basic label-container outer-path"><path stroke-width="0" d="M-21.773-19.5h43.546l1.25.04 1.244.12 1.234.2 1.219.278 1.198.355 1.173.432 1.143.506 1.108.578 1.07.648 1.025.715.977.78.925.84.87.898.81.952.748 1.002.682 1.047.613 1.09.542 1.126.47 1.158.393 1.187.318 1.209.238 1.227.16 1.24.08 1.247v1.25c-.02.333-.042.665-.08 1.247l-.16 1.24-.238 1.227-.318 1.21-.393 1.186-.47 1.158-.542 1.126-.613 1.09-.682 1.047-.748 1.002-.81.952-.87.898-.925.84-.977.78-1.026.715-1.069.648-1.108.578-1.143.506-1.173.432-1.198.355-1.219.278-1.234.2-1.244.12-1.25.04h-43.546l-1.25-.04-1.244-.12-1.234-.2-1.219-.278-1.198-.355-1.173-.432-1.143-.506-1.108-.578-1.07-.648-1.025-.715-.977-.78-.925-.84-.87-.898-.81-.952-.748-1.002-.682-1.047-.613-1.09-.542-1.126-.47-1.158-.393-1.187-.318-1.209-.238-1.227-.16-1.24-.08-1.247v-1.25l.08-1.247.16-1.24.238-1.227.318-1.21.393-1.186.47-1.158.542-1.126.613-1.09.682-1.047.748-1.002.81-.952.87-.898.925-.84.977-.78 1.026-.715 1.069-.648 1.108-.578 1.143-.506 1.173-.432 1.198-.355 1.219-.278 1.234-.2 1.244-.12 1.25-.04" style="fill:#e6f6ea!important" transform="translate(1166.243 184)"/><path fill="none" stroke="#9370db" stroke-dasharray="0 0" stroke-width="1.3" d="M-21.773-19.5h43.546m-43.546 0h43.546m0 0 1.25.04m-1.25-.04 1.25.04m0 0 1.244.12m-1.244-.12 1.244.12m0 0 1.234.2m-1.234-.2 1.234.2m0 0 1.219.278m-1.22-.278 1.219.278m0 0 1.198.355m-1.198-.355 1.198.355m0 0 1.173.432m-1.173-.432 1.173.432m0 0 1.143.506m-1.143-.506 1.143.506m0 0 1.108.578m-1.108-.578 1.108.578m0 0 1.07.648m-1.07-.648 1.07.648m0 0 1.025.715m-1.026-.715c.372.26.744.52 1.026.715m0 0 .977.78m-.977-.78.977.78m0 0 .925.84m-.925-.84.925.84m0 0 .87.898m-.87-.898.87.898m0 0 .81.952m-.81-.952.81.952m0 0 .748 1.002m-.748-1.002.748 1.002m0 0 .682 1.047m-.682-1.047.682 1.047m0 0 .613 1.09m-.613-1.09.613 1.09m0 0 .542 1.126m-.542-1.126.542 1.126m0 0 .47 1.158m-.47-1.158.47 1.158m0 0 .393 1.187m-.393-1.187.393 1.187m0 0 .318 1.209m-.318-1.21.318 1.21m0 0 .238 1.227m-.238-1.227.238 1.227m0 0 .16 1.24m-.16-1.24.16 1.24m0 0 .08 1.247m-.08-1.247.08 1.247m0 0v1.25m0-1.25v1.25m0 0-.08 1.247m.08-1.247-.08 1.247m0 0-.16 1.24m.16-1.24-.16 1.24m0 0-.238 1.227m.238-1.227-.238 1.227m0 0-.318 1.21m.318-1.21-.318 1.21m0 0-.393 1.186m.393-1.187-.393 1.187m0 0-.47 1.158m.47-1.158-.47 1.158m0 0-.542 1.126m.542-1.126-.542 1.126m0 0-.613 1.09m.613-1.09-.613 1.09m0 0-.682 1.047m.682-1.047-.682 1.047m0 0-.748 1.002m.748-1.002-.748 1.002m0 0-.81.952m.81-.952-.81.952m0 0-.87.898m.87-.898-.87.898m0 0-.925.84m.925-.84-.925.84m0 0-.977.78m.977-.78-.977.78m0 0-1.026.715m1.026-.715-1.026.715m0 0-1.069.648m1.07-.648-1.07.648m0 0-1.108.578m1.108-.578-1.108.578m0 0-1.143.506m1.143-.506-1.143.506m0 0-1.173.432m1.173-.432-1.173.432m0 0-1.198.355m1.198-.355-1.198.355m0 0-1.219.278m1.219-.278-1.219.278m0 0-1.234.2m1.234-.2-1.234.2m0 0-1.244.12m1.244-.12-1.244.12m0 0-1.25.04m1.25-.04-1.25.04m0 0h-43.546m43.546 0h-43.546m0 0-1.25-.04m1.25.04-1.25-.04m0 0-1.244-.12m1.244.12-1.244-.12m0 0-1.234-.2m1.234.2-1.234-.2m0 0-1.219-.278m1.219.278-1.219-.278m0 0-1.198-.355m1.198.355-1.198-.355m0 0c-.284-.105-.567-.21-1.173-.432m1.173.432-1.173-.432m0 0-1.143-.506m1.143.506-1.143-.506m0 0-1.108-.578m1.108.578-1.108-.578m0 0-1.07-.648m1.07.648-1.07-.648m0 0-1.025-.715m1.026.715-1.026-.715m0 0-.977-.78m.977.78-.977-.78m0 0-.925-.84m.925.84-.925-.84m0 0-.87-.898m.87.898-.87-.898m0 0-.81-.952m.81.952-.81-.952m0 0-.748-1.002m.748 1.002-.748-1.002m0 0-.682-1.047m.682 1.047-.682-1.047m0 0-.613-1.09m.613 1.09-.613-1.09m0 0-.542-1.126m.542 1.126-.542-1.126m0 0-.47-1.158m.47 1.158-.47-1.158m0 0-.393-1.187m.393 1.187-.393-1.187m0 0-.318-1.209m.318 1.21-.318-1.21m0 0-.238-1.227m.238 1.227-.238-1.227m0 0-.16-1.24m.16 1.24-.16-1.24m0 0-.08-1.247m.08 1.247-.08-1.247m0 0v-1.25m0 1.25v-1.25m0 0 .08-1.247m-.08 1.247.08-1.247m0 0 .16-1.24m-.16 1.24.16-1.24m0 0 .238-1.227m-.238 1.227.238-1.227m0 0 .318-1.21m-.318 1.21.318-1.21m0 0 .393-1.186m-.393 1.187.393-1.187m0 0 .47-1.158m-.47 1.158.47-1.158m0 0 .542-1.126m-.542 1.126.542-1.126m0 0 .613-1.09m-.613 1.09.613-1.09m0 0 .682-1.047m-.682 1.047.682-1.047m0 0 .748-1.002m-.748 1.002.748-1.002m0 0 .81-.952m-.81.952.81-.952m0 0 .87-.898m-.87.898.87-.898m0 0 .925-.84m-.925.84c.21-.19.42-.38.925-.84m0 0 .977-.78m-.977.78.977-.78m0 0 1.026-.715m-1.026.715 1.026-.715m0 0 1.069-.648m-1.07.648c.217-.13.433-.262 1.07-.648m0 0 1.108-.578m-1.108.578 1.108-.578m0 0 1.143-.506m-1.143.506 1.143-.506m0 0 1.173-.432m-1.173.432 1.173-.432m0 0 1.198-.355m-1.198.355 1.198-.355m0 0 1.219-.278m-1.219.278 1.219-.278m0 0 1.234-.2m-1.234.2 1.234-.2m0 0 1.244-.12m-1.244.12 1.244-.12m0 0 1.25-.04m-1.25.04 1.25-.04m0 0" style="fill:#e6f6ea!important" transform="translate(1166.243 184)"/></g><g class="label" style="color:#1c7e4f!important" transform="translate(1137.345 172)"><rect/><foreignObject width="57.797" height="24"><div xmlns="http://www.w3.org/1999/xhtml" style="color:#1c7e4f!important;display:table-cell;white-space:nowrap;line-height:1.5;max-width:200px;text-align:center"><span class="nodeLabel" style="fill:#e6f6ea!important;color:#1c7e4f!important"><p>success</p></span></div></foreignObject></g></g></g></g></svg>