<svg xmlns="http://www.w3.org/2000/svg" id="my-svg" aria-roledescription="flowchart-v2" class="flowchart" style="font-family:&quot;trebuchet ms&quot;,verdana,arial,sans-serif;font-size:16px;fill:#333;max-width:1000.24px" viewBox="0 0 1000.241 437.1" width="450"><style><![CDATA[@keyframes edge-animation-frame{0%{stroke-dashoffset:0}}@keyframes dash{to{stroke-dashoffset:0}}#my-svg .edge-thickness-normal{stroke-width:1px}#my-svg .edge-pattern-solid{stroke-dasharray:0}#my-svg .marker{fill:#333;stroke:#333}#my-svg .marker.cross{stroke:#333}#my-svg .label,#my-svg svg{font-family:"trebuchet ms",verdana,arial,sans-serif}#my-svg svg{font-size:16px}#my-svg p{margin:0}#my-svg .cluster span,#my-svg .cluster-label span,#my-svg .label{color:#333}#my-svg .cluster-label span p{background-color:transparent}#my-svg span{fill:#333;color:#333}#my-svg .node circle,#my-svg .node path,#my-svg .node rect{fill:#ececff;stroke:#9370db;stroke-width:1px}#my-svg .flowchart-link{stroke:#333;fill:none}#my-svg .edgeLabel,#my-svg .node .label{text-align:center}#my-svg .edgeLabel,#my-svg .edgeLabel p,#my-svg .edgeLabel rect{background-color:rgba(232,232,232,.8)}#my-svg .edgeLabel rect{opacity:.5;fill:rgba(232,232,232,.8)}#my-svg .labelBkg{background-color:rgba(232,232,232,.5)}#my-svg .cluster rect{fill:#ffffde;stroke:#aa3;stroke-width:1px}#my-svg :root{--mermaid-font-family:"trebuchet ms",verdana,arial,sans-serif}#my-svg .layerDomain span,#my-svg .layerDomain>*{fill:#fff6e5!important;color:#a36b00!important}#my-svg .layerInfra span,#my-svg .layerInfra>*{fill:#f4e8ff!important;color:#6a3fa0!important}#my-svg .failure>*{fill:#f8e3e3!important;color:#b13e3e!important}#my-svg .success>*{fill:#e6f6ea!important;color:#1c7e4f!important}]]></style><marker id="my-svg_flowchart-v2-pointEnd" class="marker flowchart-v2" markerHeight="8" markerUnits="userSpaceOnUse" markerWidth="8" orient="auto" refX="5" refY="5" viewBox="0 0 10 10"><path d="m0 0 10 5-10 5z" class="arrowMarkerPath" style="stroke-width:1;stroke-dasharray:1,0"/></marker><marker id="my-svg_flowchart-v2-pointStart" class="marker flowchart-v2" markerHeight="8" markerUnits="userSpaceOnUse" markerWidth="8" orient="auto" refX="4.5" refY="5" viewBox="0 0 10 10"><path d="m0 5 10 5V0z" class="arrowMarkerPath" style="stroke-width:1;stroke-dasharray:1,0"/></marker><marker id="my-svg_flowchart-v2-circleEnd" class="marker flowchart-v2" markerHeight="11" markerUnits="userSpaceOnUse" markerWidth="11" orient="auto" refX="11" refY="5" viewBox="0 0 10 10"><circle cx="5" cy="5" r="5" class="arrowMarkerPath" style="stroke-width:1;stroke-dasharray:1,0"/></marker><marker id="my-svg_flowchart-v2-circleStart" class="marker flowchart-v2" markerHeight="11" markerUnits="userSpaceOnUse" markerWidth="11" orient="auto" refX="-1" refY="5" viewBox="0 0 10 10"><circle cx="5" cy="5" r="5" class="arrowMarkerPath" style="stroke-width:1;stroke-dasharray:1,0"/></marker><marker id="my-svg_flowchart-v2-crossEnd" class="marker cross flowchart-v2" markerHeight="11" markerUnits="userSpaceOnUse" markerWidth="11" orient="auto" refX="12" refY="5.2" viewBox="0 0 11 11"><path d="m1 1 9 9m0-9-9 9" class="arrowMarkerPath" style="stroke-width:2;stroke-dasharray:1,0"/></marker><marker id="my-svg_flowchart-v2-crossStart" class="marker cross flowchart-v2" markerHeight="11" markerUnits="userSpaceOnUse" markerWidth="11" orient="auto" refX="-1" refY="5.2" viewBox="0 0 11 11"><path d="m1 1 9 9m0-9-9 9" class="arrowMarkerPath" style="stroke-width:2;stroke-dasharray:1,0"/></marker><g class="root"><g class="clusters"><g id="Domain" class="cluster layerDomain" data-look="classic"><rect width="512.188" height="421.1" x="269.234" y="8" style="fill:#fff6e5!important"/><foreignObject width="53.391" height="24" class="cluster-label" transform="translate(498.633 8)"><div xmlns="http://www.w3.org/1999/xhtml" style="display:table-cell;white-space:nowrap;line-height:1.5"><span class="nodeLabel" style="color:#a36b00!important"><p>Domain</p></span></div></foreignObject></g><g id="WarehouseService" class="cluster" data-look="classic"><rect width="472.188" height="371.1" x="289.234" y="33"/><foreignObject width="129.063" height="24" class="cluster-label" transform="translate(460.797 33)"><div xmlns="http://www.w3.org/1999/xhtml" style="display:table-cell;white-space:nowrap;line-height:1.5"><span class="nodeLabel"><p>WarehouseService</p></span></div></foreignObject></g></g><g class="edgePaths"><path id="N_ReserveStock-cyclic-special-1" d="m528.554 140-19.887 10.833c-19.886 10.834-59.659 32.5-79.546 52.742s-19.887 39.058-19.887 48.467v9.408" class="edge-thickness-normal edge-pattern-solid edge-thickness-normal edge-pattern-solid flowchart-link" data-edge="true" data-et="edge" data-id="N_ReserveStock-cyclic-special-1" data-points="W3sieCI6NTI4LjU1Mzc1MzM5NjczOTEsInkiOjE0MH0seyJ4Ijo0MDkuMjM0Mzc1LCJ5IjoyMDV9LHsieCI6NDA5LjIzNDM3NSwieSI6MjYxLjQ0OTk5OTk5OTI1NDk0fV0="/><path id="N_ReserveStock-cyclic-special-mid" d="M409.234 261.55v11.408c0 11.409 0 34.225 3.025 53.8s9.072 35.909 12.097 44.075L427.38 379" class="edge-thickness-normal edge-pattern-solid edge-thickness-normal edge-pattern-solid flowchart-link" data-edge="true" data-et="edge" data-id="N_ReserveStock-cyclic-special-mid" data-points="W3sieCI6NDA5LjIzNDM3NSwieSI6MjYxLjU1MDAwMDAwMDc0NTA2fSx7IngiOjQwOS4yMzQzNzUsInkiOjMzMH0seyJ4Ijo0MjcuMzc5OTIxNjM1ODEsInkiOjM3OX1d"/><path id="N_ReserveStock-cyclic-special-2" marker-end="url(#my-svg_flowchart-v2-pointEnd)" d="m427.448 379.026 16.965-8.171c16.964-8.171 50.893-24.513 67.857-44.101s16.964-42.421 16.964-63.254 0-39.667 5.444-59.328c5.443-19.661 16.33-40.15 21.773-50.395l5.443-10.245" class="edge-thickness-normal edge-pattern-solid edge-thickness-normal edge-pattern-solid flowchart-link" data-edge="true" data-et="edge" data-id="N_ReserveStock-cyclic-special-2" data-points="W3sieCI6NDI3LjQ0ODQzNzUwMDc0NTA2LCJ5IjozNzkuMDI1OTE3MTQ2NTMwODR9LHsieCI6NTI5LjIzNDM3NSwieSI6MzMwfSx7IngiOjUyOS4yMzQzNzUsInkiOjI2MS41fSx7IngiOjUyOS4yMzQzNzUsInkiOjIwNX0seyJ4Ijo1NjMuNzcxMTQ0NzAxMDg3LCJ5IjoxNDB9XQ=="/><path id="L_N_ReserveStock_FAIL_0" marker-end="url(#my-svg_flowchart-v2-pointEnd)" d="m592.463 140 5.756 10.833c5.756 10.834 17.269 32.5 54.199 51.64s99.28 35.753 130.454 44.059l31.174 8.306" class="edge-thickness-normal edge-pattern-solid edge-thickness-normal edge-pattern-solid flowchart-link" data-edge="true" data-et="edge" data-id="L_N_ReserveStock_FAIL_0" data-points="W3sieCI6NTkyLjQ2MzIzMDI5ODkxMywieSI6MTQwfSx7IngiOjYyNywieSI6MjA1fSx7IngiOjgxNy45MTE1MjYzMTE4MDk0LCJ5IjoyNTUuODY4MzM4OTEyNDc2NzN9XQ=="/><path id="L_N_ReserveStock_SUCCESS_0" marker-end="url(#my-svg_flowchart-v2-pointEnd)" d="m623.599 140 18.249 10.833c18.25 10.834 54.748 32.5 103.108 51.113s108.582 34.172 138.693 41.951l30.111 7.78" class="edge-thickness-normal edge-pattern-solid edge-thickness-normal edge-pattern-solid flowchart-link" data-edge="true" data-et="edge" data-id="L_N_ReserveStock_SUCCESS_0" data-points="W3sieCI6NjIzLjU5OTQzOTUzODA0MzUsInkiOjE0MH0seyJ4Ijo3MzMuMDkzNzUsInkiOjIwNX0seyJ4Ijo5MTcuNjMzMjU2NzkwMDU0OSwieSI6MjUyLjY3NzMxODI2NTI4Nzc0fV0="/></g><g class="edgeLabels"><g class="edgeLabel"><foreignObject width="0" height="0" class="label" data-id="N_ReserveStock-cyclic-special-1"><div xmlns="http://www.w3.org/1999/xhtml" class="labelBkg" style="display:table-cell;white-space:nowrap;line-height:1.5;max-width:200px;text-align:center"><span class="edgeLabel"/></div></foreignObject></g><g class="edgeLabel"><foreignObject width="200" height="48" class="label" data-id="N_ReserveStock-cyclic-special-mid" transform="translate(309.234 306)"><div xmlns="http://www.w3.org/1999/xhtml" class="labelBkg" style="display:table;white-space:break-spaces;line-height:1.5;max-width:200px;text-align:center;width:200px"><span class="edgeLabel"><p>Product / InsufficientStockError</p></span></div></foreignObject></g><g class="edgeLabel"><foreignObject width="0" height="0" class="label" data-id="N_ReserveStock-cyclic-special-2"><div xmlns="http://www.w3.org/1999/xhtml" class="labelBkg" style="display:table-cell;white-space:nowrap;line-height:1.5;max-width:200px;text-align:center"><span class="edgeLabel"/></div></foreignObject></g><g class="edgeLabel"><foreignObject width="155.531" height="24" class="label" data-id="L_N_ReserveStock_FAIL_0" transform="translate(609.128 208.959)"><div xmlns="http://www.w3.org/1999/xhtml" class="labelBkg" style="display:table-cell;white-space:nowrap;line-height:1.5;max-width:200px;text-align:center"><span class="edgeLabel"><p>InsufficientStockError</p></span></div></foreignObject></g><g class="edgeLabel"><foreignObject width="16.656" height="24" class="label" data-id="L_N_ReserveStock_SUCCESS_0" transform="translate(755.392 200.913)"><div xmlns="http://www.w3.org/1999/xhtml" class="labelBkg" style="display:table-cell;white-space:nowrap;line-height:1.5;max-width:200px;text-align:center"><span class="edgeLabel"><p>ok</p></span></div></foreignObject></g></g><g class="nodes"><g class="root"><g class="clusters" transform="translate(0 50)"><g id="Infrastructure" class="cluster layerInfra" data-look="classic"><rect width="226.234" height="110" x="8" y="8" style="fill:#f4e8ff!important"/><foreignObject width="99.469" height="24" class="cluster-label" transform="translate(71.383 8)"><div xmlns="http://www.w3.org/1999/xhtml" style="display:table-cell;white-space:nowrap;line-height:1.5"><span class="nodeLabel" style="color:#6a3fa0!important"><p>Infrastructure</p></span></div></foreignObject></g></g><g class="nodes" transform="translate(0 50)"><g id="InventoryService" class="node" transform="translate(121.117 63)"><rect width="151.234" height="40" x="-75.617" y="-20" class="basic label-container"/><g class="label" transform="translate(-59.617 -12)"><rect/><foreignObject width="119.234" height="24"><div xmlns="http://www.w3.org/1999/xhtml" style="display:table-cell;white-space:nowrap;line-height:1.5;max-width:200px;text-align:center"><span class="nodeLabel"><p>InventoryService</p></span></div></foreignObject></g></g></g></g><g id="flowchart-N_ReserveStock-0" class="node default layerDomain layerInfra" transform="translate(578.117 113)"><rect width="154" height="54" x="-77" y="-27" class="basic label-container" style="fill:#f4e8ff!important"/><g class="label" style="color:#6a3fa0!important" transform="translate(-47 -12)"><rect/><foreignObject width="94" height="24"><div xmlns="http://www.w3.org/1999/xhtml" style="color:#6a3fa0!important;display:table-cell;white-space:nowrap;line-height:1.5;max-width:200px;text-align:center"><span class="nodeLabel" style="color:#6a3fa0!important"><p>ReserveStock</p></span></div></foreignObject></g></g><g id="flowchart-FAIL-5" class="node default failure"><g class="basic label-container outer-path"><path stroke-width="0" d="M-4.68-19.5h9.36l1.25.04 1.243.12 1.234.2 1.219.278 1.198.355 1.173.432 1.143.506 1.109.578 1.069.648c.25.175.5.35 1.025.715l.977.78.925.84.87.898.81.952.748 1.002.682 1.047.613 1.09.543 1.126.469 1.158.394 1.187.317 1.209.239 1.227.16 1.24.08 1.247v1.25l-.08 1.247-.16 1.24-.24 1.227-.316 1.21-.394 1.186-.47 1.158-.542 1.126-.613 1.09-.682 1.047-.748 1.002-.81.952-.87.898-.925.84-.977.78-1.025.715-1.07.648-1.108.578-1.143.506-1.173.432-1.198.355-1.219.278-1.234.2-1.244.12-1.25.04H-4.68l-1.25-.04-1.243-.12-1.234-.2-1.219-.278-1.198-.355-1.173-.432-1.143-.506-1.109-.578-1.069-.648-1.025-.715-.977-.78-.925-.84-.87-.898-.81-.952-.748-1.002-.682-1.047-.613-1.09-.543-1.126-.469-1.158-.394-1.187-.317-1.209-.239-1.227-.16-1.24-.08-1.247v-1.25l.08-1.247.16-1.24.24-1.227.316-1.21.394-1.186.47-1.158c.195-.407.39-.813.542-1.126l.613-1.09.682-1.047.748-1.002.81-.952.87-.898.925-.84.977-.78c.238-.165.475-.33 1.025-.715l1.07-.648 1.108-.578 1.143-.506 1.173-.432 1.198-.355 1.219-.278 1.234-.2 1.244-.12 1.25-.04" style="fill:#f8e3e3!important" transform="translate(840.592 261.5)"/><path fill="none" stroke="#9370db" stroke-dasharray="0 0" stroke-width="1.3" d="M-4.68-19.5h9.36m-9.36 0h9.36m0 0 1.25.04m-1.25-.04 1.25.04m0 0 1.243.12m-1.244-.12 1.244.12m0 0 1.234.2m-1.234-.2 1.234.2m0 0 1.219.278m-1.219-.278 1.219.278m0 0 1.198.355m-1.198-.355 1.198.355m0 0 1.173.432m-1.173-.432 1.173.432m0 0 1.143.506m-1.143-.506 1.143.506m0 0 1.109.578m-1.109-.578 1.109.578m0 0 1.069.648m-1.07-.648 1.07.648m0 0 1.025.715m-1.025-.715 1.025.715m0 0 .977.78m-.977-.78.977.78m0 0 .925.84m-.925-.84.925.84m0 0 .87.898m-.87-.898.87.898m0 0 .81.952m-.81-.952.81.952m0 0 .748 1.002m-.748-1.002.748 1.002m0 0 .682 1.047m-.682-1.047.682 1.047m0 0 .613 1.09m-.613-1.09.613 1.09m0 0 .543 1.126m-.543-1.126.543 1.126m0 0 .469 1.158m-.47-1.158.47 1.158m0 0 .394 1.187m-.394-1.187.394 1.187m0 0 .317 1.209m-.317-1.21.317 1.21m0 0 .239 1.227m-.24-1.227.24 1.227m0 0 .16 1.24m-.16-1.24.16 1.24m0 0 .08 1.247m-.08-1.247.08 1.247m0 0v1.25m0-1.25v1.25m0 0-.08 1.247m.08-1.247-.08 1.247m0 0-.16 1.24m.16-1.24-.16 1.24m0 0-.24 1.227m.24-1.227-.24 1.227m0 0-.316 1.21m.317-1.21-.317 1.21m0 0-.394 1.186m.394-1.187-.394 1.187m0 0c-.16.396-.32.792-.47 1.158m.47-1.158-.47 1.158m0 0-.542 1.126m.543-1.126-.543 1.126m0 0-.613 1.09m.613-1.09c-.2.358-.402.715-.613 1.09m0 0-.682 1.047m.682-1.047-.682 1.047m0 0-.748 1.002m.748-1.002-.748 1.002m0 0-.81.952m.81-.952-.81.952m0 0-.87.898m.87-.898-.87.898m0 0-.925.84m.925-.84-.925.84m0 0-.977.78m.977-.78-.977.78m0 0-1.025.715m1.025-.715-1.025.715m0 0-1.07.648m1.07-.648-1.07.648m0 0-1.108.578m1.109-.578-1.109.578m0 0-1.143.506m1.143-.506-1.143.506m0 0-1.173.432m1.173-.432c-.35.13-.702.258-1.173.432m0 0-1.198.355m1.198-.355-1.198.355m0 0-1.219.278m1.219-.278-1.219.278m0 0-1.234.2m1.234-.2-1.234.2m0 0-1.244.12m1.244-.12-1.244.12m0 0-1.25.04m1.25-.04-1.25.04m0 0H-4.68m9.36 0h-9.36m0 0-1.25-.04m1.25.04-1.25-.04m0 0-1.243-.12m1.244.12-1.244-.12m0 0-1.234-.2m1.234.2-1.234-.2m0 0-1.219-.278m1.219.278-1.219-.278m0 0-1.198-.355m1.198.355-1.198-.355m0 0-1.173-.432m1.173.432-1.173-.432m0 0-1.143-.506m1.143.506-1.143-.506m0 0-1.109-.578m1.109.578-1.109-.578m0 0-1.069-.648m1.07.648-1.07-.648m0 0-1.025-.715m1.025.715-1.025-.715m0 0-.977-.78m.977.78-.977-.78m0 0-.925-.84m.925.84-.925-.84m0 0-.87-.898m.87.898-.87-.898m0 0-.81-.952m.81.952-.81-.952m0 0-.748-1.002m.748 1.002-.748-1.002m0 0-.682-1.047m.682 1.047-.682-1.047m0 0-.613-1.09m.613 1.09-.613-1.09m0 0-.543-1.126m.543 1.126-.543-1.126m0 0-.469-1.158m.47 1.158-.47-1.158m0 0-.394-1.187m.394 1.187-.394-1.187m0 0-.317-1.209m.317 1.21-.317-1.21m0 0-.239-1.227m.24 1.227-.24-1.227m0 0-.16-1.24m.16 1.24-.16-1.24m0 0-.08-1.247m.08 1.247-.08-1.247m0 0v-1.25m0 1.25v-1.25m0 0 .08-1.247m-.08 1.247.08-1.247m0 0 .16-1.24m-.16 1.24.16-1.24m0 0 .24-1.227m-.24 1.227c.08-.412.16-.825.24-1.227m0 0 .316-1.21m-.317 1.21.317-1.21m0 0 .394-1.186m-.394 1.187.394-1.187m0 0 .47-1.158m-.47 1.158.47-1.158m0 0 .542-1.126m-.543 1.126.543-1.126m0 0 .613-1.09m-.613 1.09.613-1.09m0 0 .682-1.047m-.682 1.047.682-1.047m0 0 .748-1.002m-.748 1.002.748-1.002m0 0 .81-.952m-.81.952.81-.952m0 0 .87-.898m-.87.898.87-.898m0 0 .925-.84m-.925.84.925-.84m0 0 .977-.78m-.977.78.977-.78m0 0 1.025-.715m-1.025.715 1.025-.715m0 0 1.07-.648m-1.07.648 1.07-.648m0 0 1.108-.578m-1.109.578 1.109-.578m0 0 1.143-.506m-1.143.506 1.143-.506m0 0 1.173-.432m-1.173.432 1.173-.432m0 0 1.198-.355m-1.198.355 1.198-.355m0 0c.414-.095.828-.19 1.219-.278m-1.219.278 1.219-.278m0 0 1.234-.2m-1.234.2 1.234-.2m0 0 1.244-.12m-1.244.12 1.244-.12m0 0 1.25-.04m-1.25.04 1.25-.04m0 0" style="fill:#f8e3e3!important" transform="translate(840.592 261.5)"/></g><g class="label" style="color:#b13e3e!important" transform="translate(828.787 249.5)"><rect/><foreignObject width="23.609" height="24"><div xmlns="http://www.w3.org/1999/xhtml" style="color:#b13e3e!important;display:table-cell;white-space:nowrap;line-height:1.5;max-width:200px;text-align:center"><span class="nodeLabel" style="fill:#f8e3e3!important;color:#b13e3e!important"><p>fail</p></span></div></foreignObject></g></g><g id="flowchart-SUCCESS-7" class="node default success"><g class="basic label-container outer-path"><path stroke-width="0" d="M-19.25-19.5h38.5l1.25.04 1.244.12 1.234.2 1.218.278 1.199.355 1.173.432 1.143.506 1.108.578 1.069.648 1.025.715.977.78.926.84.87.898.81.952.747 1.002.682 1.047.614 1.09.542 1.126.47 1.158.393 1.187.317 1.209.239 1.227.16 1.24.08 1.247v1.25l-.08 1.247-.16 1.24-.239 1.227-.317 1.21-.394 1.186-.469 1.158-.542 1.126-.614 1.09-.682 1.047-.747 1.002-.81.952-.87.898-.926.84-.977.78-1.025.715-1.069.648-1.108.578-1.143.506-1.173.432-1.199.355-1.218.278-1.234.2-1.245.12-1.249.04h-38.5l-1.25-.04-1.244-.12-1.234-.2-1.218-.278-1.199-.355-1.173-.432-1.143-.506-1.108-.578-1.069-.648-1.025-.715-.977-.78-.926-.84-.87-.898-.81-.952-.747-1.002-.682-1.047-.614-1.09-.542-1.126-.47-1.158-.393-1.187-.317-1.209-.239-1.227-.16-1.24-.08-1.247v-1.25l.08-1.247.16-1.24.239-1.227.317-1.21.394-1.186.469-1.158.542-1.126.614-1.09.682-1.047.747-1.002.81-.952c.232-.238.463-.477.87-.898l.926-.84.977-.78 1.025-.715 1.069-.648 1.108-.578 1.143-.506c.468-.172.937-.344 1.173-.432l1.199-.355 1.218-.278 1.234-.2 1.245-.12 1.249-.04" style="fill:#e6f6ea!important" transform="translate(953.501 261.5)"/><path fill="none" stroke="#9370db" stroke-dasharray="0 0" stroke-width="1.3" d="M-19.25-19.5h38.5m-38.5 0h38.5m0 0 1.25.04m-1.25-.04 1.25.04m0 0 1.244.12m-1.245-.12 1.245.12m0 0 1.234.2m-1.234-.2 1.234.2m0 0 1.218.278m-1.218-.278 1.218.278m0 0 1.199.355m-1.199-.355 1.199.355m0 0 1.173.432m-1.173-.432 1.173.432m0 0 1.143.506m-1.143-.506 1.143.506m0 0 1.108.578m-1.108-.578 1.108.578m0 0 1.069.648m-1.069-.648 1.069.648m0 0 1.025.715m-1.025-.715 1.025.715m0 0 .977.78m-.977-.78.977.78m0 0 .926.84m-.926-.84.926.84m0 0 .87.898m-.87-.898.87.898m0 0 .81.952m-.81-.952.81.952m0 0 .747 1.002m-.747-1.002.747 1.002m0 0 .682 1.047m-.682-1.047c.18.275.36.55.682 1.047m0 0 .614 1.09m-.614-1.09.614 1.09m0 0 .542 1.126m-.542-1.126.542 1.126m0 0 .47 1.158m-.47-1.158.47 1.158m0 0 .393 1.187m-.394-1.187.394 1.187m0 0 .317 1.209m-.317-1.21.317 1.21m0 0 .239 1.227m-.239-1.227.239 1.227m0 0 .16 1.24m-.16-1.24.16 1.24m0 0 .08 1.247m-.08-1.247.08 1.247m0 0v1.25m0-1.25v1.25m0 0-.08 1.247m.08-1.247-.08 1.247m0 0-.16 1.24m.16-1.24-.16 1.24m0 0-.239 1.227m.239-1.227-.239 1.227m0 0-.317 1.21m.317-1.21-.317 1.21m0 0-.394 1.186m.394-1.187-.394 1.187m0 0-.469 1.158m.47-1.158-.47 1.158m0 0-.542 1.126m.542-1.126-.542 1.126m0 0-.614 1.09m.614-1.09-.614 1.09m0 0-.682 1.047m.682-1.047c-.155.239-.31.478-.682 1.047m0 0-.747 1.002m.747-1.002-.747 1.002m0 0-.81.952m.81-.952c-.265.31-.53.621-.81.952m0 0-.87.898m.87-.898-.87.898m0 0-.926.84m.926-.84-.926.84m0 0-.977.78m.977-.78-.977.78m0 0-1.025.715m1.025-.715-1.025.715m0 0-1.069.648m1.069-.648-1.069.648m0 0-1.108.578m1.108-.578-1.108.578m0 0-1.143.506m1.143-.506-1.143.506m0 0-1.173.432m1.173-.432-1.173.432m0 0-1.199.355m1.199-.355-1.199.355m0 0-1.218.278m1.218-.278-1.218.278m0 0-1.234.2m1.234-.2-1.234.2m0 0-1.245.12m1.245-.12c-.265.025-.53.05-1.245.12m0 0-1.249.04m1.25-.04-1.25.04m0 0h-38.5m38.5 0h-38.5m0 0-1.25-.04m1.25.04-1.25-.04m0 0-1.244-.12m1.245.12-1.245-.12m0 0-1.234-.2m1.234.2-1.234-.2m0 0-1.218-.278m1.218.278-1.218-.278m0 0-1.199-.355m1.199.355-1.199-.355m0 0-1.173-.432m1.173.432-1.173-.432m0 0-1.143-.506m1.143.506-1.143-.506m0 0-1.108-.578m1.108.578-1.108-.578m0 0-1.069-.648m1.069.648-1.069-.648m0 0-1.025-.715m1.025.715-1.025-.715m0 0-.977-.78m.977.78-.977-.78m0 0-.926-.84m.926.84-.926-.84m0 0-.87-.898m.87.898-.87-.898m0 0-.81-.952m.81.952-.81-.952m0 0-.747-1.002m.747 1.002-.747-1.002m0 0c-.2-.305-.398-.61-.682-1.047m.682 1.047-.682-1.047m0 0-.614-1.09m.614 1.09-.614-1.09m0 0-.542-1.126m.542 1.126-.542-1.126m0 0-.47-1.158m.47 1.158-.47-1.158m0 0-.393-1.187m.394 1.187-.394-1.187m0 0-.317-1.209m.317 1.21-.317-1.21m0 0-.239-1.227m.239 1.227-.239-1.227m0 0-.16-1.24m.16 1.24-.16-1.24m0 0-.08-1.247m.08 1.247-.08-1.247m0 0v-1.25m0 1.25v-1.25m0 0 .08-1.247m-.08 1.247.08-1.247m0 0 .16-1.24m-.16 1.24.16-1.24m0 0 .239-1.227m-.239 1.227.239-1.227m0 0 .317-1.21m-.317 1.21.317-1.21m0 0 .394-1.186m-.394 1.187.394-1.187m0 0 .469-1.158m-.47 1.158.47-1.158m0 0 .542-1.126m-.542 1.126.542-1.126m0 0 .614-1.09m-.614 1.09.614-1.09m0 0 .682-1.047m-.682 1.047.682-1.047m0 0 .747-1.002m-.747 1.002.747-1.002m0 0 .81-.952m-.81.952.81-.952m0 0 .87-.898m-.87.898.87-.898m0 0 .926-.84m-.926.84.926-.84m0 0 .977-.78m-.977.78.977-.78m0 0 1.025-.715m-1.025.715 1.025-.715m0 0 1.069-.648m-1.069.648 1.069-.648m0 0 1.108-.578m-1.108.578 1.108-.578m0 0 1.143-.506m-1.143.506 1.143-.506m0 0 1.173-.432m-1.173.432 1.173-.432m0 0 1.199-.355m-1.199.355 1.199-.355m0 0 1.218-.278m-1.218.278 1.218-.278m0 0c.487-.08.974-.158 1.234-.2m-1.234.2 1.234-.2m0 0 1.245-.12m-1.245.12 1.245-.12m0 0 1.249-.04m-1.25.04 1.25-.04m0 0" style="fill:#e6f6ea!important" transform="translate(953.501 261.5)"/></g><g class="label" style="color:#1c7e4f!important" transform="translate(927.126 249.5)"><rect/><foreignObject width="52.75" height="24"><div xmlns="http://www.w3.org/1999/xhtml" style="color:#1c7e4f!important;display:table-cell;white-space:nowrap;line-height:1.5;max-width:200px;text-align:center"><span class="nodeLabel" style="fill:#e6f6ea!important;color:#1c7e4f!important"><p>success</p></span></div></foreignObject></g></g><g id="N_ReserveStock---N_ReserveStock---1" class="label edgeLabel" transform="translate(409.234 261.5)"><rect width=".1" height=".1"/><g class="label"><rect/><foreignObject width="0" height="0"><div xmlns="http://www.w3.org/1999/xhtml" style="display:table-cell;white-space:nowrap;line-height:1.5;max-width:10px;text-align:center"><span class="nodeLabel"/></div></foreignObject></g></g><g id="N_ReserveStock---N_ReserveStock---2" class="label edgeLabel" transform="translate(427.398 379.05)"><rect width=".1" height=".1"/><g class="label"><rect/><foreignObject width="0" height="0"><div xmlns="http://www.w3.org/1999/xhtml" style="display:table-cell;white-space:nowrap;line-height:1.5;max-width:10px;text-align:center"><span class="nodeLabel"/></div></foreignObject></g></g></g></g></svg>