<svg xmlns="http://www.w3.org/2000/svg" id="my-svg" aria-roledescription="flowchart-v2" class="flowchart" style="font-family:&quot;trebuchet ms&quot;,verdana,arial,sans-serif;font-size:16px;fill:#333;max-width:423.871px" viewBox="0 0 423.871 278" width="900"><style><![CDATA[@keyframes edge-animation-frame{0%{stroke-dashoffset:0}}@keyframes dash{to{stroke-dashoffset:0}}#my-svg .edge-thickness-normal{stroke-width:1px}#my-svg .edge-pattern-solid{stroke-dasharray:0}#my-svg .marker{fill:#0b0b0b;stroke:#0b0b0b}#my-svg .marker.cross{stroke:#0b0b0b}#my-svg .label,#my-svg svg{font-family:"trebuchet ms",verdana,arial,sans-serif}#my-svg svg{font-size:16px}#my-svg p{margin:0}#my-svg .label{color:#333}#my-svg span{fill:#333;color:#333}#my-svg .node circle,#my-svg .node path,#my-svg .node rect{fill:#fff4dd;stroke:#edb;stroke-width:1px}#my-svg .flowchart-link{stroke:#0b0b0b;fill:none}#my-svg .edgeLabel,#my-svg .node .label{text-align:center}#my-svg .edgeLabel,#my-svg .edgeLabel p{background-color:#fdd}#my-svg .edgeLabel rect{opacity:.5;background-color:#fdd;fill:#fdd}#my-svg .labelBkg{background-color:rgba(244,221,255,.5)}#my-svg :root{--mermaid-font-family:"trebuchet ms",verdana,arial,sans-serif}#my-svg .failure>*{fill:#f8e3e3!important;color:#b13e3e!important}]]></style><marker id="my-svg_flowchart-v2-pointEnd" class="marker flowchart-v2" markerHeight="8" markerUnits="userSpaceOnUse" markerWidth="8" orient="auto" refX="5" refY="5" viewBox="0 0 10 10"><path d="m0 0 10 5-10 5z" class="arrowMarkerPath" style="stroke-width:1;stroke-dasharray:1,0"/></marker><marker id="my-svg_flowchart-v2-pointStart" class="marker flowchart-v2" markerHeight="8" markerUnits="userSpaceOnUse" markerWidth="8" orient="auto" refX="4.5" refY="5" viewBox="0 0 10 10"><path d="m0 5 10 5V0z" class="arrowMarkerPath" style="stroke-width:1;stroke-dasharray:1,0"/></marker><marker id="my-svg_flowchart-v2-circleEnd" class="marker flowchart-v2" markerHeight="11" markerUnits="userSpaceOnUse" markerWidth="11" orient="auto" refX="11" refY="5" viewBox="0 0 10 10"><circle cx="5" cy="5" r="5" class="arrowMarkerPath" style="stroke-width:1;stroke-dasharray:1,0"/></marker><marker id="my-svg_flowchart-v2-circleStart" class="marker flowchart-v2" markerHeight="11" markerUnits="userSpaceOnUse" markerWidth="11" orient="auto" refX="-1" refY="5" viewBox="0 0 10 10"><circle cx="5" cy="5" r="5" class="arrowMarkerPath" style="stroke-width:1;stroke-dasharray:1,0"/></marker><marker id="my-svg_flowchart-v2-crossEnd" class="marker cross flowchart-v2" markerHeight="11" markerUnits="userSpaceOnUse" markerWidth="11" orient="auto" refX="12" refY="5.2" viewBox="0 0 11 11"><path d="m1 1 9 9m0-9-9 9" class="arrowMarkerPath" style="stroke-width:2;stroke-dasharray:1,0"/></marker><marker id="my-svg_flowchart-v2-crossStart" class="marker cross flowchart-v2" markerHeight="11" markerUnits="userSpaceOnUse" markerWidth="11" orient="auto" refX="-1" refY="5.2" viewBox="0 0 11 11"><path d="m1 1 9 9m0-9-9 9" class="arrowMarkerPath" style="stroke-width:2;stroke-dasharray:1,0"/></marker><g class="root"><g class="edgePaths"><path id="L_N0_Ensure_FAIL_0" marker-end="url(#my-svg_flowchart-v2-pointEnd__888)" d="M138.742 35h21.004c21.004 0 63.012 0 101.789 14.577s74.325 43.73 92.099 58.307l17.773 14.577" class="edge-thickness-normal edge-pattern-solid edge-thickness-normal edge-pattern-solid flowchart-link" data-edge="true" data-et="edge" data-id="L_N0_Ensure_FAIL_0" data-points="W3sieCI6MTM4Ljc0MjE4NzUsInkiOjM1fSx7IngiOjI2NC43NjU2MjUsInkiOjM1fSx7IngiOjM3NC41MDAxNDE4Nzc3NDA2NSwieSI6MTI0Ljk5NzQ4NzAxOTYwNjc0fV0=" style="stroke:#888;stroke-width:1.5px"/><path id="L_N1_ReserveStock_FAIL_0" marker-end="url(#my-svg_flowchart-v2-pointEnd__888)" d="M162 139h17.128c17.127 0 51.382 0 85.054.08s66.761.24 83.305.321l16.544.08" class="edge-thickness-normal edge-pattern-solid edge-thickness-normal edge-pattern-solid flowchart-link" data-edge="true" data-et="edge" data-id="L_N1_ReserveStock_FAIL_0" data-points="W3sieCI6MTYyLCJ5IjoxMzl9LHsieCI6MjY0Ljc2NTYyNSwieSI6MTM5fSx7IngiOjM2OC4wMzEyNTAwMDAwMDExNCwieSI6MTM5LjV9XQ==" style="stroke:#888;stroke-width:1.5px"/><path id="L_N2_Bind_FAIL_0" marker-end="url(#my-svg_flowchart-v2-pointEnd__888)" d="M130.641 243h22.354c22.354 0 67.062 0 107.188-14.413 40.125-14.413 75.668-43.239 93.439-57.652l17.771-14.413" class="edge-thickness-normal edge-pattern-solid edge-thickness-normal edge-pattern-solid flowchart-link" data-edge="true" data-et="edge" data-id="L_N2_Bind_FAIL_0" data-points="W3sieCI6MTMwLjY0MDYyNSwieSI6MjQzfSx7IngiOjI2NC43NjU2MjUsInkiOjI0M30seyJ4IjozNzQuNTAwMTQxODc3NzM0OSwieSI6MTU0LjAwMjUxMjk4MDM5OH1d" style="stroke:#888;stroke-width:1.5px"/></g><g class="edgeLabels"><g class="edgeLabel"><foreignObject width="23.609" height="24" class="label" data-id="L_N0_Ensure_FAIL_0" transform="translate(252.96 23)"><div xmlns="http://www.w3.org/1999/xhtml" class="labelBkg" style="display:table-cell;white-space:nowrap;line-height:1.5;max-width:200px;text-align:center"><span class="edgeLabel"><p>fail</p></span></div></foreignObject></g><g class="edgeLabel"><foreignObject width="23.609" height="24" class="label" data-id="L_N1_ReserveStock_FAIL_0" transform="translate(252.96 127)"><div xmlns="http://www.w3.org/1999/xhtml" class="labelBkg" style="display:table-cell;white-space:nowrap;line-height:1.5;max-width:200px;text-align:center"><span class="edgeLabel"><p>fail</p></span></div></foreignObject></g><g class="edgeLabel"><foreignObject width="155.531" height="24" class="label" data-id="L_N2_Bind_FAIL_0" transform="translate(187 231)"><div xmlns="http://www.w3.org/1999/xhtml" class="labelBkg" style="display:table-cell;white-space:nowrap;line-height:1.5;max-width:200px;text-align:center"><span class="edgeLabel"><p>InsufficientStockError</p></span></div></foreignObject></g></g><g class="nodes"><g id="flowchart-N0_Ensure-0" class="node default" transform="translate(85 35)"><rect width="107.484" height="54" x="-53.742" y="-27" class="basic label-container"/><g class="label" transform="translate(-23.742 -12)"><rect/><foreignObject width="47.484" height="24"><div xmlns="http://www.w3.org/1999/xhtml" style="display:table-cell;white-space:nowrap;line-height:1.5;max-width:200px;text-align:center"><span class="nodeLabel"><p>Ensure</p></span></div></foreignObject></g></g><g id="flowchart-FAIL-1" class="node default failure"><g class="basic label-container outer-path"><path stroke-width="0" d="M-4.68-19.5h9.36l1.25.04 1.243.12 1.234.2 1.219.278 1.198.355 1.173.432 1.143.506 1.109.578 1.069.648 1.025.715c.39.31.778.621.977.78l.925.84.87.898.81.952.748 1.002.682 1.047.613 1.09.543 1.126.469 1.158.394 1.187.317 1.209.239 1.227.16 1.24.08 1.247v1.25l-.08 1.247-.16 1.24-.24 1.227-.316 1.21-.394 1.186-.47 1.158-.542 1.126-.613 1.09-.682 1.047-.748 1.002-.81.952-.87.898-.925.84-.977.78-1.025.715-1.07.648-1.108.578-1.143.506-1.173.432-1.198.355-1.219.278-1.234.2-1.244.12-1.25.04H-4.68l-1.25-.04-1.243-.12-1.234-.2-1.219-.278-1.198-.355-1.173-.432-1.143-.506-1.109-.578-1.069-.648-1.025-.715-.977-.78-.925-.84-.87-.898-.81-.952-.748-1.002-.682-1.047-.613-1.09-.543-1.126-.469-1.158-.394-1.187-.317-1.209-.239-1.227-.16-1.24-.08-1.247v-1.25l.08-1.247.16-1.24.24-1.227.316-1.21.394-1.186.47-1.158c.195-.408.392-.815.542-1.126l.613-1.09.682-1.047.748-1.002.81-.952.87-.898.925-.84.977-.78 1.025-.715 1.07-.648 1.108-.578 1.143-.506 1.173-.432 1.198-.355 1.219-.278 1.234-.2 1.244-.12 1.25-.04" style="fill:#f8e3e3!important" transform="translate(391.7 139)"/><path fill="none" stroke="hsl(40.5882352941, 60%, 83.3333333333%)" stroke-dasharray="0 0" stroke-width="1.3" d="M-4.68-19.5h9.36m-9.36 0h9.36m0 0 1.25.04m-1.25-.04 1.25.04m0 0 1.243.12m-1.244-.12 1.244.12m0 0 1.234.2m-1.234-.2 1.234.2m0 0 1.219.278m-1.219-.278c.31.07.62.14 1.219.278m0 0 1.198.355m-1.198-.355 1.198.355m0 0 1.173.432m-1.173-.432 1.173.432m0 0 1.143.506m-1.143-.506 1.143.506m0 0 1.109.578m-1.109-.578 1.109.578m0 0 1.069.648m-1.07-.648 1.07.648m0 0c.379.265.758.53 1.025.715m-1.025-.715 1.025.715m0 0 .977.78m-.977-.78.977.78m0 0 .925.84m-.925-.84.925.84m0 0 .87.898m-.87-.898.87.898m0 0 .81.952m-.81-.952.81.952m0 0 .748 1.002m-.748-1.002.748 1.002m0 0 .682 1.047m-.682-1.047.682 1.047m0 0 .613 1.09m-.613-1.09.613 1.09m0 0 .543 1.126m-.543-1.126.543 1.126m0 0 .469 1.158m-.47-1.158.47 1.158m0 0c.14.425.282.85.394 1.187m-.394-1.187.394 1.187m0 0 .317 1.209m-.317-1.21.317 1.21m0 0 .239 1.227m-.24-1.227c.093.47.184.942.24 1.227m0 0 .16 1.24m-.16-1.24.16 1.24m0 0 .08 1.247m-.08-1.247.08 1.247m0 0v1.25m0-1.25v1.25m0 0-.08 1.247m.08-1.247-.08 1.247m0 0-.16 1.24m.16-1.24-.16 1.24m0 0-.24 1.227m.24-1.227-.24 1.227m0 0-.316 1.21m.317-1.21-.317 1.21m0 0-.394 1.186m.394-1.187-.394 1.187m0 0-.47 1.158m.47-1.158-.47 1.158m0 0c-.137.287-.275.573-.542 1.126m.543-1.126c-.185.385-.37.77-.543 1.126m0 0-.613 1.09m.613-1.09-.613 1.09m0 0-.682 1.047m.682-1.047-.682 1.047m0 0-.748 1.002m.748-1.002-.748 1.002m0 0-.81.952m.81-.952-.81.952m0 0-.87.898m.87-.898-.87.898m0 0-.925.84m.925-.84-.925.84m0 0-.977.78m.977-.78-.977.78m0 0-1.025.715m1.025-.715-1.025.715m0 0-1.07.648m1.07-.648-1.07.648m0 0-1.108.578m1.109-.578-1.109.578m0 0-1.143.506m1.143-.506-1.143.506m0 0-1.173.432m1.173-.432-1.173.432m0 0-1.198.355m1.198-.355-1.198.355m0 0-1.219.278m1.219-.278-1.219.278m0 0-1.234.2m1.234-.2-1.234.2m0 0-1.244.12m1.244-.12-1.244.12m0 0-1.25.04m1.25-.04-1.25.04m0 0H-4.68m9.36 0h-9.36m0 0-1.25-.04m1.25.04-1.25-.04m0 0-1.243-.12m1.244.12-1.244-.12m0 0-1.234-.2m1.234.2-1.234-.2m0 0-1.219-.278m1.219.278-1.219-.278m0 0-1.198-.355m1.198.355-1.198-.355m0 0-1.173-.432m1.173.432-1.173-.432m0 0-1.143-.506m1.143.506-1.143-.506m0 0-1.109-.578m1.109.578-1.109-.578m0 0-1.069-.648m1.07.648-1.07-.648m0 0-1.025-.715m1.025.715-1.025-.715m0 0-.977-.78m.977.78-.977-.78m0 0-.925-.84m.925.84-.925-.84m0 0-.87-.898m.87.898-.87-.898m0 0-.81-.952m.81.952-.81-.952m0 0c-.206-.275-.412-.55-.748-1.002m.748 1.002-.748-1.002m0 0-.682-1.047m.682 1.047-.682-1.047m0 0-.613-1.09m.613 1.09-.613-1.09m0 0-.543-1.126m.543 1.126-.543-1.126m0 0-.469-1.158m.47 1.158-.47-1.158m0 0-.394-1.187m.394 1.187-.394-1.187m0 0-.317-1.209m.317 1.21-.317-1.21m0 0-.239-1.227m.24 1.227-.24-1.227m0 0-.16-1.24m.16 1.24-.16-1.24m0 0-.08-1.247m.08 1.247-.08-1.247m0 0v-1.25m0 1.25v-1.25m0 0 .08-1.247m-.08 1.247.08-1.247m0 0 .16-1.24m-.16 1.24.16-1.24m0 0 .24-1.227m-.24 1.227.24-1.227m0 0 .316-1.21m-.317 1.21.317-1.21m0 0 .394-1.186m-.394 1.187.394-1.187m0 0 .47-1.158m-.47 1.158.47-1.158m0 0c.137-.287.276-.574.542-1.126m-.543 1.126.543-1.126m0 0 .613-1.09m-.613 1.09.613-1.09m0 0 .682-1.047m-.682 1.047.682-1.047m0 0 .748-1.002m-.748 1.002.748-1.002m0 0 .81-.952m-.81.952.81-.952m0 0 .87-.898m-.87.898.87-.898m0 0 .925-.84m-.925.84.925-.84m0 0 .977-.78m-.977.78.977-.78m0 0 1.025-.715m-1.025.715 1.025-.715m0 0 1.07-.648m-1.07.648 1.07-.648m0 0 1.108-.578m-1.109.578 1.109-.578m0 0 1.143-.506m-1.143.506 1.143-.506m0 0 1.173-.432m-1.173.432 1.173-.432m0 0 1.198-.355m-1.198.355 1.198-.355m0 0 1.219-.278m-1.219.278 1.219-.278m0 0 1.234-.2m-1.234.2 1.234-.2m0 0 1.244-.12m-1.244.12 1.244-.12m0 0 1.25-.04m-1.25.04 1.25-.04m0 0" style="fill:#f8e3e3!important" transform="translate(391.7 139)"/></g><g class="label" style="color:#b13e3e!important" transform="translate(379.896 127)"><rect/><foreignObject width="23.609" height="24"><div xmlns="http://www.w3.org/1999/xhtml" style="color:#b13e3e!important;display:table-cell;white-space:nowrap;line-height:1.5;max-width:200px;text-align:center"><span class="nodeLabel" style="fill:#f8e3e3!important;color:#b13e3e!important"><p>fail</p></span></div></foreignObject></g></g><g id="flowchart-N1_ReserveStock-2" class="node default" transform="translate(85 139)"><rect width="154" height="54" x="-77" y="-27" class="basic label-container"/><g class="label" transform="translate(-47 -12)"><rect/><foreignObject width="94" height="24"><div xmlns="http://www.w3.org/1999/xhtml" style="display:table-cell;white-space:nowrap;line-height:1.5;max-width:200px;text-align:center"><span class="nodeLabel"><p>ReserveStock</p></span></div></foreignObject></g></g><g id="flowchart-N2_Bind-4" class="node default" transform="translate(85 243)"><rect width="91.281" height="54" x="-45.641" y="-27" class="basic label-container"/><g class="label" transform="translate(-15.64 -12)"><rect/><foreignObject width="31.281" height="24"><div xmlns="http://www.w3.org/1999/xhtml" style="display:table-cell;white-space:nowrap;line-height:1.5;max-width:200px;text-align:center"><span class="nodeLabel"><p>Bind</p></span></div></foreignObject></g></g></g></g><marker id="my-svg_flowchart-v2-pointEnd__888" class="marker flowchart-v2" markerHeight="8" markerUnits="userSpaceOnUse" markerWidth="8" orient="auto" refX="5" refY="5" viewBox="0 0 10 10"><path fill="#888" stroke="#888" d="m0 0 10 5-10 5z" class="arrowMarkerPath" style="stroke-width:1;stroke-dasharray:1,0"/></marker></svg>