<svg xmlns="http://www.w3.org/2000/svg" id="my-svg" aria-roledescription="flowchart-v2" class="flowchart" style="font-family:&quot;trebuchet ms&quot;,verdana,arial,sans-serif;font-size:16px;fill:#333;max-width:310.91px" viewBox="0 0 310.91 535" width="450"><style><![CDATA[@keyframes edge-animation-frame{0%{stroke-dashoffset:0}}@keyframes dash{to{stroke-dashoffset:0}}#my-svg .edge-thickness-normal{stroke-width:1px}#my-svg .edge-pattern-solid{stroke-dasharray:0}#my-svg .marker{fill:#0b0b0b;stroke:#0b0b0b}#my-svg .marker.cross{stroke:#0b0b0b}#my-svg .label,#my-svg svg{font-family:"trebuchet ms",verdana,arial,sans-serif}#my-svg svg{font-size:16px}#my-svg p{margin:0}#my-svg .label{color:#333}#my-svg .cluster span,#my-svg .cluster-label span{color:#090600}#my-svg .cluster-label span p{background-color:transparent}#my-svg span{fill:#333;color:#333}#my-svg .node circle,#my-svg .node path,#my-svg .node rect{fill:#fff4dd;stroke:#edb;stroke-width:1px}#my-svg .flowchart-link{stroke:#0b0b0b;fill:none}#my-svg .edgeLabel,#my-svg .node .label{text-align:center}#my-svg .edgeLabel,#my-svg .edgeLabel p{background-color:#fdd}#my-svg .edgeLabel rect{opacity:.5;background-color:#fdd;fill:#fdd}#my-svg .labelBkg{background-color:rgba(244,221,255,.5)}#my-svg .cluster rect{fill:#f6f9ff;stroke:#cfdbf3;stroke-width:1px}#my-svg :root{--mermaid-font-family:"trebuchet ms",verdana,arial,sans-serif}#my-svg .operation>*{fill:#faf0e3!important;color:#b45f2b!important}#my-svg .bind>*{fill:#e3f0e8!important;color:#2f7a5c!important;stroke:#1a5c3c!important;stroke-width:3px!important}#my-svg .success>*{fill:#e8f4f0!important;color:#1c7e6f!important}#my-svg .failure>*{fill:#f8e3e3!important;color:#b13e3e!important}#my-svg .Layer0_Style>*,#my-svg .Layer1_Style>*{fill:#eff4ff!important;color:#2b4c7e!important;stroke:#c0d0f0!important;stroke-width:1px!important}#my-svg .Layer1_Style>*{fill:#f0f8f0!important;color:#1e6f43!important;stroke:#b8d8c0!important}]]></style><marker id="my-svg_flowchart-v2-pointEnd" class="marker flowchart-v2" markerHeight="8" markerUnits="userSpaceOnUse" markerWidth="8" orient="auto" refX="5" refY="5" viewBox="0 0 10 10"><path d="m0 0 10 5-10 5z" class="arrowMarkerPath" style="stroke-width:1;stroke-dasharray:1,0"/></marker><marker id="my-svg_flowchart-v2-pointStart" class="marker flowchart-v2" markerHeight="8" markerUnits="userSpaceOnUse" markerWidth="8" orient="auto" refX="4.5" refY="5" viewBox="0 0 10 10"><path d="m0 5 10 5V0z" class="arrowMarkerPath" style="stroke-width:1;stroke-dasharray:1,0"/></marker><marker id="my-svg_flowchart-v2-circleEnd" class="marker flowchart-v2" markerHeight="11" markerUnits="userSpaceOnUse" markerWidth="11" orient="auto" refX="11" refY="5" viewBox="0 0 10 10"><circle cx="5" cy="5" r="5" class="arrowMarkerPath" style="stroke-width:1;stroke-dasharray:1,0"/></marker><marker id="my-svg_flowchart-v2-circleStart" class="marker flowchart-v2" markerHeight="11" markerUnits="userSpaceOnUse" markerWidth="11" orient="auto" refX="-1" refY="5" viewBox="0 0 10 10"><circle cx="5" cy="5" r="5" class="arrowMarkerPath" style="stroke-width:1;stroke-dasharray:1,0"/></marker><marker id="my-svg_flowchart-v2-crossEnd" class="marker cross flowchart-v2" markerHeight="11" markerUnits="userSpaceOnUse" markerWidth="11" orient="auto" refX="12" refY="5.2" viewBox="0 0 11 11"><path d="m1 1 9 9m0-9-9 9" class="arrowMarkerPath" style="stroke-width:2;stroke-dasharray:1,0"/></marker><marker id="my-svg_flowchart-v2-crossStart" class="marker cross flowchart-v2" markerHeight="11" markerUnits="userSpaceOnUse" markerWidth="11" orient="auto" refX="-1" refY="5.2" viewBox="0 0 11 11"><path d="m1 1 9 9m0-9-9 9" class="arrowMarkerPath" style="stroke-width:2;stroke-dasharray:1,0"/></marker><g class="root"><g class="clusters"><g id="Layer1" class="cluster Layer1_Style" data-look="classic"><rect width="251.656" height="154" x="34.627" y="8" style="fill:#f0f8f0!important;stroke:#b8d8c0!important;stroke-width:1px!important"/><foreignObject width="99.469" height="24" class="cluster-label" transform="translate(110.72 8)"><div xmlns="http://www.w3.org/1999/xhtml" style="display:table-cell;white-space:nowrap;line-height:1.5"><span class="nodeLabel" style="fill:#f0f8f0!important;stroke:#b8d8c0!important;stroke-width:1px!important;color:#1e6f43!important"><p>Infrastructure</p></span></div></foreignObject></g><g id="Layer0" class="cluster Layer0_Style" data-look="classic"><rect width="294.91" height="154" x="8" y="260" style="fill:#eff4ff!important;stroke:#c0d0f0!important;stroke-width:1px!important"/><foreignObject width="53.391" height="24" class="cluster-label" transform="translate(128.76 260)"><div xmlns="http://www.w3.org/1999/xhtml" style="display:table-cell;white-space:nowrap;line-height:1.5"><span class="nodeLabel" style="fill:#eff4ff!important;stroke:#c0d0f0!important;stroke-width:1px!important;color:#2b4c7e!important"><p>Domain</p></span></div></foreignObject></g><g id="L1_InventoryService" class="cluster" data-look="classic"><rect width="211.656" height="104" x="54.627" y="33"/><foreignObject width="119.234" height="24" class="cluster-label" transform="translate(100.838 33)"><div xmlns="http://www.w3.org/1999/xhtml" style="display:table-cell;white-space:nowrap;line-height:1.5"><span class="nodeLabel"><p>InventoryService</p></span></div></foreignObject></g><g id="L0_WarehouseService" class="cluster" data-look="classic"><rect width="254.91" height="104" x="28" y="285"/><foreignObject width="129.063" height="24" class="cluster-label" transform="translate(90.924 285)"><div xmlns="http://www.w3.org/1999/xhtml" style="display:table-cell;white-space:nowrap;line-height:1.5"><span class="nodeLabel"><p>WarehouseService</p></span></div></foreignObject></g></g><g class="edgePaths"><path id="L_N_CheckStock_N_ReserveStock_0" marker-end="url(#my-svg_flowchart-v2-pointEnd__888)" d="M160.455 112v194" class="edge-thickness-normal edge-pattern-solid edge-thickness-normal edge-pattern-solid flowchart-link" data-edge="true" data-et="edge" data-id="L_N_CheckStock_N_ReserveStock_0" data-points="W3sieCI6MTYwLjQ1NDgyNTQwMTMwNjE1LCJ5IjoxMTJ9LHsieCI6MTYwLjQ1NDgyNTQwMTMwNjE1LCJ5IjoxMzd9LHsieCI6MTYwLjQ1NDgyNTQwMTMwNjE1LCJ5IjoxNjJ9LHsieCI6MTYwLjQ1NDgyNTQwMTMwNjE1LCJ5IjoyMTF9LHsieCI6MTYwLjQ1NDgyNTQwMTMwNjE1LCJ5IjoyNjB9LHsieCI6MTYwLjQ1NDgyNTQwMTMwNjE1LCJ5IjoyODV9LHsieCI6MTYwLjQ1NDgyNTQwMTMwNjE1LCJ5IjozMTB9XQ==" style="stroke:#888;stroke-width:1.5px"/><path id="L_N_ReserveStock_FAIL_0" marker-end="url(#my-svg_flowchart-v2-pointEnd__888)" d="m131.142 364-4.524 4.167c-4.524 4.166-13.571 12.5-18.094 20.833S104 405.667 104 416s0 22.667.074 34.417c.075 11.75.224 22.917.298 28.5l.075 5.583" class="edge-thickness-normal edge-pattern-solid edge-thickness-normal edge-pattern-solid flowchart-link" data-edge="true" data-et="edge" data-id="L_N_ReserveStock_FAIL_0" data-points="W3sieCI6MTMxLjE0MTc0Mjk4MTM5NzIsInkiOjM2NH0seyJ4IjoxMDQsInkiOjM4OX0seyJ4IjoxMDQsInkiOjQxNH0seyJ4IjoxMDQsInkiOjQ1MX0seyJ4IjoxMDQuNSwieSI6NDg4LjV9XQ==" style="stroke:#888;stroke-width:1.5px"/><path id="L_N_ReserveStock_SUCCESS_0" marker-end="url(#my-svg_flowchart-v2-pointEnd__888)" d="m189.768 364 4.524 4.167c4.523 4.166 13.57 12.5 18.094 20.833s4.524 16.667 4.524 27 0 22.667.074 34.417a4089 4089 0 0 0 .298 28.5l.074 5.583" class="edge-thickness-normal edge-pattern-solid edge-thickness-normal edge-pattern-solid flowchart-link" data-edge="true" data-et="edge" data-id="L_N_ReserveStock_SUCCESS_0" data-points="W3sieCI6MTg5Ljc2NzkwNzgyMTIxNTEyLCJ5IjozNjR9LHsieCI6MjE2LjkwOTY1MDgwMjYxMjMsInkiOjM4OX0seyJ4IjoyMTYuOTA5NjUwODAyNjEyMywieSI6NDE0fSx7IngiOjIxNi45MDk2NTA4MDI2MTIzLCJ5Ijo0NTF9LHsieCI6MjE3LjQwOTY1MDgwMjYxMjMsInkiOjQ4OC41fV0=" style="stroke:#888;stroke-width:1.5px"/></g><g class="edgeLabels"><g class="edgeLabel"><foreignObject width="200" height="48" class="label" data-id="L_N_CheckStock_N_ReserveStock_0" transform="translate(60.455 187)"><div xmlns="http://www.w3.org/1999/xhtml" class="labelBkg" style="display:table;white-space:break-spaces;line-height:1.5;max-width:200px;text-align:center;width:200px"><span class="edgeLabel"><p>Product / InsufficientStockError</p></span></div></foreignObject></g><g class="edgeLabel"><foreignObject width="155.531" height="24" class="label" data-id="L_N_ReserveStock_FAIL_0" transform="translate(26.234 439)"><div xmlns="http://www.w3.org/1999/xhtml" class="labelBkg" style="display:table-cell;white-space:nowrap;line-height:1.5;max-width:200px;text-align:center"><span class="edgeLabel"><p>InsufficientStockError</p></span></div></foreignObject></g><g class="edgeLabel"><foreignObject width="16.656" height="24" class="label" data-id="L_N_ReserveStock_SUCCESS_0" transform="translate(208.582 439)"><div xmlns="http://www.w3.org/1999/xhtml" class="labelBkg" style="display:table-cell;white-space:nowrap;line-height:1.5;max-width:200px;text-align:center"><span class="edgeLabel"><p>ok</p></span></div></foreignObject></g></g><g class="nodes"><g id="flowchart-N_ReserveStock-0" class="node default bind" transform="translate(160.455 337)"><rect width="154" height="54" x="-77" y="-27" class="basic label-container" style="fill:#e3f0e8!important;stroke:#1a5c3c!important;stroke-width:3px!important"/><g class="label" style="color:#2f7a5c!important" transform="translate(-47 -12)"><rect/><foreignObject width="94" height="24"><div xmlns="http://www.w3.org/1999/xhtml" style="color:#2f7a5c!important;display:table-cell;white-space:nowrap;line-height:1.5;max-width:200px;text-align:center"><span class="nodeLabel" style="fill:#e3f0e8!important;stroke:#1a5c3c!important;stroke-width:3px!important;color:#2f7a5c!important"><p>ReserveStock</p></span></div></foreignObject></g></g><g id="flowchart-N_CheckStock-1" class="node default operation" transform="translate(160.455 85)"><rect width="141.656" height="54" x="-70.828" y="-27" class="basic label-container" style="fill:#faf0e3!important"/><g class="label" style="color:#b45f2b!important" transform="translate(-40.828 -12)"><rect/><foreignObject width="81.656" height="24"><div xmlns="http://www.w3.org/1999/xhtml" style="color:#b45f2b!important;display:table-cell;white-space:nowrap;line-height:1.5;max-width:200px;text-align:center"><span class="nodeLabel" style="fill:#faf0e3!important;color:#b45f2b!important"><p>CheckStock</p></span></div></foreignObject></g></g><g id="flowchart-FAIL-5" class="node default failure"><g class="basic label-container outer-path"><path stroke-width="0" d="M-4.68-19.5h9.36l1.25.04 1.243.12 1.234.2 1.219.278 1.198.355 1.173.432 1.143.506 1.109.578 1.069.648 1.025.715.977.78.925.84.87.898.81.952.748 1.002.682 1.047.613 1.09.543 1.126.469 1.158.394 1.187.317 1.209.239 1.227.16 1.24.08 1.247v1.25l-.08 1.247-.16 1.24-.24 1.227-.316 1.21-.394 1.186-.47 1.158c-.171.358-.344.715-.542 1.126l-.613 1.09-.682 1.047-.748 1.002-.81.952-.87.898-.925.84-.977.78-1.025.715-1.07.648-1.108.578-1.143.506-1.173.432-1.198.355-1.219.278-1.234.2-1.244.12-1.25.04H-4.68l-1.25-.04-1.243-.12-1.234-.2-1.219-.278-1.198-.355-1.173-.432-1.143-.506-1.109-.578-1.069-.648-1.025-.715-.977-.78-.925-.84-.87-.898c-.205-.24-.41-.48-.81-.952l-.748-1.002-.682-1.047-.613-1.09-.543-1.126-.469-1.158-.394-1.187-.317-1.209-.239-1.227-.16-1.24c-.03-.477-.06-.955-.08-1.247v-1.25l.08-1.247.16-1.24.24-1.227.316-1.21.394-1.186.47-1.158c.196-.409.392-.817.542-1.126l.613-1.09.682-1.047.748-1.002.81-.952.87-.898.925-.84.977-.78c.31-.215.619-.431 1.025-.715l1.07-.648 1.108-.578 1.143-.506 1.173-.432 1.198-.355 1.219-.278 1.234-.2 1.244-.12 1.25-.04" style="fill:#f8e3e3!important" transform="translate(104 507.5)"/><path fill="none" stroke="hsl(40.5882352941, 60%, 83.3333333333%)" stroke-dasharray="0 0" stroke-width="1.3" d="M-4.68-19.5h9.36m-9.36 0h9.36m0 0 1.25.04m-1.25-.04 1.25.04m0 0 1.243.12m-1.244-.12 1.244.12m0 0 1.234.2m-1.234-.2 1.234.2m0 0 1.219.278m-1.219-.278 1.219.278m0 0 1.198.355m-1.198-.355 1.198.355m0 0 1.173.432m-1.173-.432 1.173.432m0 0 1.143.506m-1.143-.506 1.143.506m0 0c.44.23.88.46 1.109.578m-1.109-.578 1.109.578m0 0 1.069.648m-1.07-.648 1.07.648m0 0 1.025.715m-1.025-.715 1.025.715m0 0 .977.78m-.977-.78.977.78m0 0c.237.215.475.43.925.84m-.925-.84.925.84m0 0 .87.898m-.87-.898.87.898m0 0 .81.952m-.81-.952.81.952m0 0 .748 1.002m-.748-1.002.748 1.002m0 0 .682 1.047m-.682-1.047.682 1.047m0 0 .613 1.09m-.613-1.09.613 1.09m0 0 .543 1.126m-.543-1.126.543 1.126m0 0 .469 1.158m-.47-1.158.47 1.158m0 0 .394 1.187m-.394-1.187.394 1.187m0 0 .317 1.209m-.317-1.21.317 1.21m0 0 .239 1.227m-.24-1.227.24 1.227m0 0 .16 1.24m-.16-1.24.16 1.24m0 0 .08 1.247m-.08-1.247.08 1.247m0 0v1.25m0-1.25v1.25m0 0-.08 1.247m.08-1.247-.08 1.247m0 0-.16 1.24m.16-1.24-.16 1.24m0 0-.24 1.227m.24-1.227-.24 1.227m0 0-.316 1.21m.317-1.21-.317 1.21m0 0-.394 1.186m.394-1.187-.394 1.187m0 0-.47 1.158m.47-1.158-.47 1.158m0 0-.542 1.126m.543-1.126-.543 1.126m0 0-.613 1.09m.613-1.09-.613 1.09m0 0-.682 1.047m.682-1.047-.682 1.047m0 0-.748 1.002m.748-1.002-.748 1.002m0 0-.81.952m.81-.952-.81.952m0 0-.87.898m.87-.898-.87.898m0 0-.925.84m.925-.84-.925.84m0 0-.977.78m.977-.78-.977.78m0 0-1.025.715m1.025-.715-1.025.715m0 0-1.07.648m1.07-.648c-.3.18-.598.362-1.07.648m0 0-1.108.578m1.109-.578-1.109.578m0 0-1.143.506m1.143-.506-1.143.506m0 0-1.173.432m1.173-.432-1.173.432m0 0-1.198.355m1.198-.355-1.198.355m0 0-1.219.278m1.219-.278-1.219.278m0 0-1.234.2m1.234-.2-1.234.2m0 0-1.244.12m1.244-.12-1.244.12m0 0-1.25.04m1.25-.04-1.25.04m0 0H-4.68m9.36 0h-9.36m0 0-1.25-.04m1.25.04-1.25-.04m0 0-1.243-.12m1.244.12-1.244-.12m0 0-1.234-.2m1.234.2-1.234-.2m0 0-1.219-.278m1.219.278-1.219-.278m0 0-1.198-.355m1.198.355-1.198-.355m0 0-1.173-.432m1.173.432-1.173-.432m0 0-1.143-.506m1.143.506-1.143-.506m0 0-1.109-.578m1.109.578-1.109-.578m0 0-1.069-.648m1.07.648-1.07-.648m0 0-1.025-.715m1.025.715-1.025-.715m0 0-.977-.78m.977.78-.977-.78m0 0-.925-.84m.925.84-.925-.84m0 0-.87-.898m.87.898-.87-.898m0 0-.81-.952m.81.952-.81-.952m0 0-.748-1.002m.748 1.002-.748-1.002m0 0-.682-1.047m.682 1.047-.682-1.047m0 0-.613-1.09m.613 1.09-.613-1.09m0 0-.543-1.126m.543 1.126-.543-1.126m0 0-.469-1.158m.47 1.158-.47-1.158m0 0-.394-1.187m.394 1.187-.394-1.187m0 0-.317-1.209m.317 1.21-.317-1.21m0 0-.239-1.227m.24 1.227-.24-1.227m0 0-.16-1.24m.16 1.24-.16-1.24m0 0-.08-1.247m.08 1.247-.08-1.247m0 0v-1.25m0 1.25v-1.25m0 0 .08-1.247m-.08 1.247.08-1.247m0 0 .16-1.24m-.16 1.24.16-1.24m0 0 .24-1.227m-.24 1.227.24-1.227m0 0 .316-1.21m-.317 1.21.317-1.21m0 0 .394-1.186m-.394 1.187.394-1.187m0 0 .47-1.158m-.47 1.158c.15-.37.3-.742.47-1.158m0 0c.215-.449.431-.898.542-1.126m-.543 1.126.543-1.126m0 0 .613-1.09m-.613 1.09.613-1.09m0 0 .682-1.047m-.682 1.047.682-1.047m0 0 .748-1.002m-.748 1.002.748-1.002m0 0 .81-.952m-.81.952.81-.952m0 0 .87-.898m-.87.898.87-.898m0 0 .925-.84m-.925.84.925-.84m0 0 .977-.78m-.977.78.977-.78m0 0 1.025-.715m-1.025.715 1.025-.715m0 0 1.07-.648m-1.07.648 1.07-.648m0 0 1.108-.578m-1.109.578 1.109-.578m0 0 1.143-.506m-1.143.506 1.143-.506m0 0 1.173-.432m-1.173.432 1.173-.432m0 0 1.198-.355m-1.198.355 1.198-.355m0 0 1.219-.278m-1.219.278 1.219-.278m0 0 1.234-.2m-1.234.2 1.234-.2m0 0 1.244-.12m-1.244.12 1.244-.12m0 0 1.25-.04m-1.25.04 1.25-.04m0 0" style="fill:#f8e3e3!important" transform="translate(104 507.5)"/></g><g class="label" style="color:#b13e3e!important" transform="translate(92.195 495.5)"><rect/><foreignObject width="23.609" height="24"><div xmlns="http://www.w3.org/1999/xhtml" style="color:#b13e3e!important;display:table-cell;white-space:nowrap;line-height:1.5;max-width:200px;text-align:center"><span class="nodeLabel" style="fill:#f8e3e3!important;color:#b13e3e!important"><p>fail</p></span></div></foreignObject></g></g><g id="flowchart-SUCCESS-7" class="node default success"><g class="basic label-container outer-path"><path stroke-width="0" d="M-19.25-19.5h38.5l1.25.04 1.244.12 1.234.2 1.218.278 1.199.355 1.173.432 1.143.506 1.108.578 1.069.648 1.025.715.977.78.926.84.87.898.81.952.747 1.002.682 1.047.614 1.09.542 1.126.47 1.158c.111.339.224.677.393 1.187l.317 1.209.239 1.227.16 1.24.08 1.247v1.25l-.08 1.247-.16 1.24-.239 1.227-.317 1.21-.394 1.186-.469 1.158-.542 1.126-.614 1.09-.682 1.047-.747 1.002-.81.952-.87.898-.926.84-.977.78-1.025.715-1.069.648-1.108.578-1.143.506-1.173.432-1.199.355-1.218.278-1.234.2-1.245.12-1.249.04h-38.5l-1.25-.04-1.244-.12-1.234-.2-1.218-.278-1.199-.355-1.173-.432-1.143-.506-1.108-.578-1.069-.648-1.025-.715-.977-.78-.926-.84-.87-.898-.81-.952-.747-1.002-.682-1.047-.614-1.09-.542-1.126c-.134-.331-.268-.663-.47-1.158-.09-.276-.182-.552-.393-1.187l-.317-1.209-.239-1.227-.16-1.24-.08-1.247v-1.25l.08-1.247.16-1.24.239-1.227.317-1.21.394-1.186.469-1.158.542-1.126.614-1.09.682-1.047.747-1.002.81-.952.87-.898.926-.84.977-.78 1.025-.715 1.069-.648 1.108-.578 1.143-.506 1.173-.432 1.199-.355 1.218-.278 1.234-.2 1.245-.12 1.249-.04" style="fill:#e8f4f0!important" transform="translate(216.91 507.5)"/><path fill="none" stroke="hsl(40.5882352941, 60%, 83.3333333333%)" stroke-dasharray="0 0" stroke-width="1.3" d="M-19.25-19.5h38.5m-38.5 0h38.5m0 0 1.25.04m-1.25-.04 1.25.04m0 0 1.244.12m-1.245-.12 1.245.12m0 0 1.234.2m-1.234-.2 1.234.2m0 0 1.218.278m-1.218-.278 1.218.278m0 0 1.199.355m-1.199-.355 1.199.355m0 0 1.173.432m-1.173-.432 1.173.432m0 0 1.143.506m-1.143-.506 1.143.506m0 0 1.108.578m-1.108-.578 1.108.578m0 0 1.069.648m-1.069-.648 1.069.648m0 0 1.025.715m-1.025-.715 1.025.715m0 0 .977.78m-.977-.78.977.78m0 0 .926.84m-.926-.84.926.84m0 0 .87.898m-.87-.898.87.898m0 0c.203.24.407.48.81.952m-.81-.952c.242.286.485.571.81.952m0 0 .747 1.002m-.747-1.002.747 1.002m0 0 .682 1.047m-.682-1.047.682 1.047m0 0 .614 1.09m-.614-1.09.614 1.09m0 0 .542 1.126m-.542-1.126.542 1.126m0 0 .47 1.158m-.47-1.158.47 1.158m0 0c.083.254.167.507.393 1.187m-.394-1.187.394 1.187m0 0 .317 1.209m-.317-1.21.317 1.21m0 0 .239 1.227m-.239-1.227.239 1.227m0 0 .16 1.24m-.16-1.24.16 1.24m0 0 .08 1.247m-.08-1.247.08 1.247m0 0v1.25m0-1.25v1.25m0 0-.08 1.247m.08-1.247-.08 1.247m0 0-.16 1.24m.16-1.24-.16 1.24m0 0-.239 1.227m.239-1.227-.239 1.227m0 0-.317 1.21m.317-1.21-.317 1.21m0 0-.394 1.186m.394-1.187-.394 1.187m0 0-.469 1.158m.47-1.158-.47 1.158m0 0-.542 1.126m.542-1.126-.542 1.126m0 0-.614 1.09m.614-1.09-.614 1.09m0 0-.682 1.047m.682-1.047-.682 1.047m0 0-.747 1.002m.747-1.002-.747 1.002m0 0-.81.952m.81-.952-.81.952m0 0-.87.898m.87-.898-.87.898m0 0-.926.84m.926-.84-.926.84m0 0-.977.78m.977-.78-.977.78m0 0-1.025.715m1.025-.715-1.025.715m0 0-1.069.648m1.069-.648c-.364.22-.728.44-1.069.648m0 0-1.108.578m1.108-.578-1.108.578m0 0-1.143.506m1.143-.506-1.143.506m0 0-1.173.432m1.173-.432-1.173.432m0 0-1.199.355m1.199-.355-1.199.355m0 0-1.218.278m1.218-.278-1.218.278m0 0-1.234.2m1.234-.2-1.234.2m0 0-1.245.12m1.245-.12-1.245.12m0 0-1.249.04m1.25-.04-1.25.04m0 0h-38.5m38.5 0h-38.5m0 0-1.25-.04m1.25.04-1.25-.04m0 0-1.244-.12m1.245.12-1.245-.12m0 0-1.234-.2m1.234.2-1.234-.2m0 0-1.218-.278m1.218.278-1.218-.278m0 0-1.199-.355m1.199.355-1.199-.355m0 0-1.173-.432m1.173.432-1.173-.432m0 0-1.143-.506m1.143.506-1.143-.506m0 0-1.108-.578m1.108.578-1.108-.578m0 0-1.069-.648m1.069.648-1.069-.648m0 0-1.025-.715m1.025.715-1.025-.715m0 0-.977-.78m.977.78-.977-.78m0 0-.926-.84m.926.84-.926-.84m0 0-.87-.898m.87.898-.87-.898m0 0c-.202-.239-.406-.477-.81-.952m.81.952-.81-.952m0 0-.747-1.002m.747 1.002c-.276-.37-.553-.74-.747-1.002m0 0-.682-1.047m.682 1.047-.682-1.047m0 0-.614-1.09m.614 1.09-.614-1.09m0 0-.542-1.126m.542 1.126-.542-1.126m0 0-.47-1.158m.47 1.158-.47-1.158m0 0-.393-1.187m.394 1.187-.394-1.187m0 0-.317-1.209m.317 1.21-.317-1.21m0 0-.239-1.227m.239 1.227-.239-1.227m0 0-.16-1.24m.16 1.24-.16-1.24m0 0-.08-1.247m.08 1.247-.08-1.247m0 0v-1.25m0 1.25v-1.25m0 0 .08-1.247m-.08 1.247.08-1.247m0 0 .16-1.24m-.16 1.24.16-1.24m0 0 .239-1.227m-.239 1.227.239-1.227m0 0 .317-1.21m-.317 1.21.317-1.21m0 0 .394-1.186m-.394 1.187.394-1.187m0 0 .469-1.158m-.47 1.158.47-1.158m0 0 .542-1.126m-.542 1.126.542-1.126m0 0 .614-1.09m-.614 1.09.614-1.09m0 0 .682-1.047m-.682 1.047.682-1.047m0 0 .747-1.002m-.747 1.002.747-1.002m0 0 .81-.952m-.81.952.81-.952m0 0c.194-.2.387-.398.87-.898m-.87.898c.234-.24.467-.481.87-.898m0 0 .926-.84m-.926.84.926-.84m0 0 .977-.78m-.977.78.977-.78m0 0 1.025-.715m-1.025.715 1.025-.715m0 0 1.069-.648m-1.069.648 1.069-.648m0 0 1.108-.578m-1.108.578 1.108-.578m0 0 1.143-.506m-1.143.506 1.143-.506m0 0 1.173-.432m-1.173.432 1.173-.432m0 0 1.199-.355m-1.199.355 1.199-.355m0 0 1.218-.278m-1.218.278 1.218-.278m0 0 1.234-.2m-1.234.2 1.234-.2m0 0 1.245-.12m-1.245.12 1.245-.12m0 0 1.249-.04m-1.25.04 1.25-.04m0 0" style="fill:#e8f4f0!important" transform="translate(216.91 507.5)"/></g><g class="label" style="color:#1c7e6f!important" transform="translate(190.535 495.5)"><rect/><foreignObject width="52.75" height="24"><div xmlns="http://www.w3.org/1999/xhtml" style="color:#1c7e6f!important;display:table-cell;white-space:nowrap;line-height:1.5;max-width:200px;text-align:center"><span class="nodeLabel" style="fill:#e8f4f0!important;color:#1c7e6f!important"><p>success</p></span></div></foreignObject></g></g></g></g><marker id="my-svg_flowchart-v2-pointEnd__888" class="marker flowchart-v2" markerHeight="8" markerUnits="userSpaceOnUse" markerWidth="8" orient="auto" refX="5" refY="5" viewBox="0 0 10 10"><path fill="#888" stroke="#888" d="m0 0 10 5-10 5z" class="arrowMarkerPath" style="stroke-width:1;stroke-dasharray:1,0"/></marker></svg>