<svg xmlns="http://www.w3.org/2000/svg" id="my-svg" aria-roledescription="flowchart-v2" class="flowchart" style="font-family:&quot;trebuchet ms&quot;,verdana,arial,sans-serif;font-size:16px;fill:#333;max-width:1966.93px" viewBox="0 -50 1966.933 336.25" width="900"><style><![CDATA[@keyframes edge-animation-frame{0%{stroke-dashoffset:0}}@keyframes dash{to{stroke-dashoffset:0}}#my-svg .edge-thickness-normal{stroke-width:1px}#my-svg .edge-pattern-solid{stroke-dasharray:0}#my-svg .marker{fill:#0b0b0b;stroke:#0b0b0b}#my-svg .marker.cross{stroke:#0b0b0b}#my-svg .label,#my-svg svg{font-family:"trebuchet ms",verdana,arial,sans-serif}#my-svg svg{font-size:16px}#my-svg p{margin:0}#my-svg .label{color:#333}#my-svg .label text,#my-svg span{fill:#333;color:#333}#my-svg .node circle,#my-svg .node path,#my-svg .node rect{fill:#fff4dd;stroke:#edb;stroke-width:1px}#my-svg .node .label text{text-anchor:middle}#my-svg .flowchart-link{stroke:#0b0b0b;fill:none}#my-svg .edgeLabel,#my-svg .node .label{text-align:center}#my-svg .edgeLabel,#my-svg .edgeLabel p{background-color:#fdd}#my-svg .edgeLabel rect{opacity:.5;background-color:#fdd;fill:#fdd}#my-svg .labelBkg{background-color:rgba(244,221,255,.5)}#my-svg :root{--mermaid-font-family:"trebuchet ms",verdana,arial,sans-serif}#my-svg .operation>*{fill:#faf0e3!important;color:#b45f2b!important}#my-svg .bind span,#my-svg .bind>*{stroke:#1a5c3c!important;stroke-width:3px!important}#my-svg .bind span,#my-svg .bind>*,#my-svg .map span,#my-svg .map>*{fill:#e3f0e8!important;color:#2f7a5c!important}#my-svg .gatekeeper span,#my-svg .gatekeeper>*{fill:#e3e9fa!important;color:#3f5c9a!important}#my-svg .sideeffect span,#my-svg .sideeffect>*{fill:#fff4d9!important;color:#b8882c!important}#my-svg .success>*{fill:#e8f4f0!important;color:#1c7e6f!important}#my-svg .failure>*{fill:#f8e3e3!important;color:#b13e3e!important}]]></style><marker id="my-svg_flowchart-v2-pointEnd" class="marker flowchart-v2" markerHeight="8" markerUnits="userSpaceOnUse" markerWidth="8" orient="auto" refX="5" refY="5" viewBox="0 0 10 10"><path d="m0 0 10 5-10 5z" class="arrowMarkerPath" style="stroke-width:1;stroke-dasharray:1,0"/></marker><marker id="my-svg_flowchart-v2-pointStart" class="marker flowchart-v2" markerHeight="8" markerUnits="userSpaceOnUse" markerWidth="8" orient="auto" refX="4.5" refY="5" viewBox="0 0 10 10"><path d="m0 5 10 5V0z" class="arrowMarkerPath" style="stroke-width:1;stroke-dasharray:1,0"/></marker><marker id="my-svg_flowchart-v2-circleEnd" class="marker flowchart-v2" markerHeight="11" markerUnits="userSpaceOnUse" markerWidth="11" orient="auto" refX="11" refY="5" viewBox="0 0 10 10"><circle cx="5" cy="5" r="5" class="arrowMarkerPath" style="stroke-width:1;stroke-dasharray:1,0"/></marker><marker id="my-svg_flowchart-v2-circleStart" class="marker flowchart-v2" markerHeight="11" markerUnits="userSpaceOnUse" markerWidth="11" orient="auto" refX="-1" refY="5" viewBox="0 0 10 10"><circle cx="5" cy="5" r="5" class="arrowMarkerPath" style="stroke-width:1;stroke-dasharray:1,0"/></marker><marker id="my-svg_flowchart-v2-crossEnd" class="marker cross flowchart-v2" markerHeight="11" markerUnits="userSpaceOnUse" markerWidth="11" orient="auto" refX="12" refY="5.2" viewBox="0 0 11 11"><path d="m1 1 9 9m0-9-9 9" class="arrowMarkerPath" style="stroke-width:2;stroke-dasharray:1,0"/></marker><marker id="my-svg_flowchart-v2-crossStart" class="marker cross flowchart-v2" markerHeight="11" markerUnits="userSpaceOnUse" markerWidth="11" orient="auto" refX="-1" refY="5.2" viewBox="0 0 11 11"><path d="m1 1 9 9m0-9-9 9" class="arrowMarkerPath" style="stroke-width:2;stroke-dasharray:1,0"/></marker><g class="root"><g class="edgePaths"><path id="L_ENTRY_ROOT_N0_EnsureAsync_0" marker-end="url(#my-svg_flowchart-v2-pointEnd__888)" d="M152.391 106.25h46" class="edge-pattern-solid edge-thickness-normal flowchart-link" data-edge="true" data-et="edge" data-id="L_ENTRY_ROOT_N0_EnsureAsync_0" data-points="W3sieCI6MTUyLjM5MDYyNSwieSI6MTA2LjI1fSx7IngiOjE3Ny4zOTA2MjUsInkiOjEwNi4yNX0seyJ4IjoyMDIuMzkwNjI1LCJ5IjoxMDYuMjV9XQ==" style="stroke:#888;stroke-width:1.5px"/><path id="L_N0_EnsureAsync_N1_FindProductAsync_0" marker-end="url(#my-svg_flowchart-v2-pointEnd__888)" d="m331.844 129.087 6.69 2.361c6.69 2.36 20.07 7.081 32.784 9.442s24.76 2.36 30.784 2.36h6.023" class="edge-thickness-normal edge-pattern-solid edge-thickness-normal edge-pattern-solid flowchart-link" data-edge="true" data-et="edge" data-id="L_N0_EnsureAsync_N1_FindProductAsync_0" data-points="W3sieCI6MzMxLjg0Mzc1LCJ5IjoxMjkuMDg3Mjk0MTk2NTI4MzV9LHsieCI6MzcxLjk4NDM3NSwieSI6MTQzLjI1fSx7IngiOjQxMi4xMjUsInkiOjE0My4yNX1d" style="stroke:#888;stroke-width:1.5px"/><path id="L_N0_EnsureAsync_FAIL_0" marker-end="url(#my-svg_flowchart-v2-pointEnd__888)" d="m314.535 67.25 9.575-7.875c9.575-7.875 28.725-23.625 59.352-31.5S456.193 20 497.161 20h696.464c38.185 0 76.37 0 106.448 8.081s52.05 24.243 63.036 32.324l10.985 8.081" class="edge-thickness-normal edge-pattern-solid edge-thickness-normal edge-pattern-solid flowchart-link" data-edge="true" data-et="edge" data-id="L_N0_EnsureAsync_FAIL_0" data-points="W3sieCI6MzE0LjUzNTM5NDAyMTczOTE0LCJ5Ijo2Ny4yNX0seyJ4IjozNzEuOTg0Mzc1LCJ5IjoyMH0seyJ4Ijo0OTguMjk2ODc1LCJ5IjoyMH0seyJ4Ijo2MTcuNzk2ODc1LCJ5IjoyMH0seyJ4Ijo3MTUuODUxNTYyNSwieSI6MjB9LHsieCI6ODIwLjcxODc1LCJ5IjoyMH0seyJ4Ijo5NTEuNTYyNSwieSI6MjB9LHsieCI6MTA3OS4wNzAzMTI1LCJ5IjoyMH0seyJ4IjoxMTkzLjYyNSwieSI6MjB9LHsieCI6MTMwOC4xNzk2ODc1LCJ5IjoyMH0seyJ4IjoxMzc3LjMxNjQ2MjA1OTMwMTMsInkiOjcwLjg1NTc2MzY3NDUyOTY1fV0=" style="stroke:#888;stroke-width:1.5px"/><path id="L_N1_FindProductAsync_N2_EnsureAsync_0" marker-end="url(#my-svg_flowchart-v2-pointEnd__888)" d="m584.469 169.931 5.554 1.72c5.555 1.72 16.665 5.159 27.107 6.879s20.219 1.72 25.107 1.72h4.888" class="edge-thickness-normal edge-pattern-solid edge-thickness-normal edge-pattern-solid flowchart-link" data-edge="true" data-et="edge" data-id="L_N1_FindProductAsync_N2_EnsureAsync_0" data-points="W3sieCI6NTg0LjQ2ODc1LCJ5IjoxNjkuOTMwODMxNTg5OTU4MTZ9LHsieCI6NjE3Ljc5Njg3NSwieSI6MTgwLjI1fSx7IngiOjY1MS4xMjUsInkiOjE4MC4yNX1d" style="stroke:#888;stroke-width:1.5px"/><path id="L_N1_FindProductAsync_FAIL_0" marker-end="url(#my-svg_flowchart-v2-pointEnd__888)" d="m564.639 104.25 8.859-5.208c8.86-5.209 26.579-15.625 51.782-20.834S683.167 73 716.987 73h476.638c38.185 0 76.37 0 105.433 1.326 29.064 1.325 49.007 3.977 58.978 5.302l9.971 1.326" class="edge-thickness-normal edge-pattern-solid edge-thickness-normal edge-pattern-solid flowchart-link" data-edge="true" data-et="edge" data-id="L_N1_FindProductAsync_FAIL_0" data-points="W3sieCI6NTY0LjYzODUxMjAxMDY3NjEsInkiOjEwNC4yNX0seyJ4Ijo2MTcuNzk2ODc1LCJ5Ijo3M30seyJ4Ijo3MTUuODUxNTYyNSwieSI6NzN9LHsieCI6ODIwLjcxODc1LCJ5Ijo3M30seyJ4Ijo5NTEuNTYyNSwieSI6NzN9LHsieCI6MTA3OS4wNzAzMTI1LCJ5Ijo3M30seyJ4IjoxMTkzLjYyNSwieSI6NzN9LHsieCI6MTMwOC4xNzk2ODc1LCJ5Ijo3M30seyJ4IjoxMzcxLjk3MjMxMjIzNzU0MjYsInkiOjgxLjQ4MTAxNTE5MTY5NDQxfV0=" style="stroke:#888;stroke-width:1.5px"/><path id="L_N2_EnsureAsync_N3_MapAsync_0" marker-end="url(#my-svg_flowchart-v2-pointEnd__888)" d="m780.578 203.087 6.69 2.361c6.69 2.36 20.071 7.081 32.784 9.442 12.714 2.36 24.761 2.36 30.784 2.36h6.023" class="edge-thickness-normal edge-pattern-solid edge-thickness-normal edge-pattern-solid flowchart-link" data-edge="true" data-et="edge" data-id="L_N2_EnsureAsync_N3_MapAsync_0" data-points="W3sieCI6NzgwLjU3ODEyNSwieSI6MjAzLjA4NzI5NDE5NjUyODM1fSx7IngiOjgyMC43MTg3NSwieSI6MjE3LjI1fSx7IngiOjg2MC44NTkzNzUsInkiOjIxNy4yNX1d" style="stroke:#888;stroke-width:1.5px"/><path id="L_N2_EnsureAsync_FAIL_0" marker-end="url(#my-svg_flowchart-v2-pointEnd__888)" d="m780.578 146.766 6.69-3.461c6.69-3.461 20.071-10.383 48.568-13.844S907.948 126 951.007 126h242.618c38.185 0 76.37 0 105.936-4.926s50.516-14.779 60.99-19.705l10.474-4.926" class="edge-thickness-normal edge-pattern-solid edge-thickness-normal edge-pattern-solid flowchart-link" data-edge="true" data-et="edge" data-id="L_N2_EnsureAsync_FAIL_0" data-points="W3sieCI6NzgwLjU3ODEyNSwieSI6MTQ2Ljc2NTU4ODkxNDU0OTY1fSx7IngiOjgyMC43MTg3NSwieSI6MTI2fSx7IngiOjk1MS41NjI1LCJ5IjoxMjZ9LHsieCI6MTA3OS4wNzAzMTI1LCJ5IjoxMjZ9LHsieCI6MTE5My42MjUsInkiOjEyNn0seyJ4IjoxMzA4LjE3OTY4NzUsInkiOjEyNn0seyJ4IjoxMzc0LjY0NDgwMzI2MzUyNDksInkiOjk0Ljc0MDMzMTE1MzA3OTk2fV0=" style="stroke:#888;stroke-width:1.5px"/><path id="L_N3_MapAsync_N4_SaveOrderAsync_0" marker-end="url(#my-svg_flowchart-v2-pointEnd__888)" d="M1042.266 217.25h69.609" class="edge-thickness-normal edge-pattern-solid edge-thickness-normal edge-pattern-solid flowchart-link" data-edge="true" data-et="edge" data-id="L_N3_MapAsync_N4_SaveOrderAsync_0" data-points="W3sieCI6MTA0Mi4yNjU2MjUsInkiOjIxNy4yNX0seyJ4IjoxMDc5LjA3MDMxMjUsInkiOjIxNy4yNX0seyJ4IjoxMTE1Ljg3NSwieSI6MjE3LjI1fV0=" style="stroke:#888;stroke-width:1.5px"/><path id="L_N4_SaveOrderAsync_N5_Log_0" marker-end="url(#my-svg_flowchart-v2-pointEnd__888)" d="m1271.375 232.182 6.134 1.178c6.134 1.178 18.402 3.534 30.004 4.712s22.536 1.178 28.004 1.178h5.467" class="edge-thickness-normal edge-pattern-solid edge-thickness-normal edge-pattern-solid flowchart-link" data-edge="true" data-et="edge" data-id="L_N4_SaveOrderAsync_N5_Log_0" data-points="W3sieCI6MTI3MS4zNzUsInkiOjIzMi4xODE3MzI5MzMyMzMzMn0seyJ4IjoxMzA4LjE3OTY4NzUsInkiOjIzOS4yNX0seyJ4IjoxMzQ0Ljk4NDM3NSwieSI6MjM5LjI1fV0=" style="stroke:#888;stroke-width:1.5px"/><path id="L_N4_SaveOrderAsync_FAIL_0" marker-end="url(#my-svg_flowchart-v2-pointEnd__888)" d="m1271.375 191.289 6.134-2.048c6.134-2.048 18.402-6.145 36.185-20.711s41.08-39.602 52.729-52.12l11.648-12.518" class="edge-thickness-normal edge-pattern-solid edge-thickness-normal edge-pattern-solid flowchart-link" data-edge="true" data-et="edge" data-id="L_N4_SaveOrderAsync_FAIL_0" data-points="W3sieCI6MTI3MS4zNzUsInkiOjE5MS4yODkxNDYxNTAxNzM5fSx7IngiOjEzMDguMTc5Njg3NSwieSI6MTc5fSx7IngiOjEzODAuNzk2MTEwMDUwMDI3NCwieSI6MTAwLjk2Mzc1NjIwNTU5NDUyfV0=" style="stroke:#888;stroke-width:1.5px"/><path id="L_N5_Log_N6_Log_0" marker-end="url(#my-svg_flowchart-v2-pointEnd__888)" d="M1445.844 239.25h46" class="edge-thickness-normal edge-pattern-solid edge-thickness-normal edge-pattern-solid flowchart-link" data-edge="true" data-et="edge" data-id="L_N5_Log_N6_Log_0" data-points="W3sieCI6MTQ0NS44NDM3NSwieSI6MjM5LjI1fSx7IngiOjE0NzAuODQzNzUsInkiOjIzOS4yNX0seyJ4IjoxNDk1Ljg0Mzc1LCJ5IjoyMzkuMjV9XQ==" style="stroke:#888;stroke-width:1.5px"/><path id="L_N6_Log_N7_MapAsync_0" marker-end="url(#my-svg_flowchart-v2-pointEnd__888)" d="M1596.703 239.25h46" class="edge-thickness-normal edge-pattern-solid edge-thickness-normal edge-pattern-solid flowchart-link" data-edge="true" data-et="edge" data-id="L_N6_Log_N7_MapAsync_0" data-points="W3sieCI6MTU5Ni43MDMxMjUsInkiOjIzOS4yNX0seyJ4IjoxNjIxLjcwMzEyNSwieSI6MjM5LjI1fSx7IngiOjE2NDYuNzAzMTI1LCJ5IjoyMzkuMjV9XQ==" style="stroke:#888;stroke-width:1.5px"/><path id="L_N7_MapAsync_SUCCESS_0" marker-end="url(#my-svg_flowchart-v2-pointEnd__888)" d="M1814.797 239.25h5.555c5.554 0 16.664 0 27.19.073 10.526.074 20.469.221 25.44.294l4.972.074" class="edge-thickness-normal edge-pattern-solid edge-thickness-normal edge-pattern-solid flowchart-link" data-edge="true" data-et="edge" data-id="L_N7_MapAsync_SUCCESS_0" data-points="W3sieCI6MTgxNC43OTY4NzUsInkiOjIzOS4yNX0seyJ4IjoxODQ4LjEyNSwieSI6MjM5LjI1fSx7IngiOjE4ODEuOTUzMTI0OTk5OTg0OCwieSI6MjM5Ljc1fV0=" style="stroke:#888;stroke-width:1.5px"/></g><g class="edgeLabels"><g class="edgeLabel"><foreignObject width="0" height="0" class="label" data-id="L_ENTRY_ROOT_N0_EnsureAsync_0"><div xmlns="http://www.w3.org/1999/xhtml" class="labelBkg" style="display:table-cell;white-space:nowrap;line-height:1.5;max-width:200px;text-align:center"><span class="edgeLabel"/></div></foreignObject></g><g class="edgeLabel"><foreignObject width="30.281" height="24" class="label" data-id="L_N0_EnsureAsync_N1_FindProductAsync_0" transform="translate(356.844 131.25)"><div xmlns="http://www.w3.org/1999/xhtml" class="labelBkg" style="display:table-cell;white-space:nowrap;line-height:1.5;max-width:200px;text-align:center"><span class="edgeLabel"><p>pass</p></span></div></foreignObject></g><g class="edgeLabel"><foreignObject width="23.609" height="24" class="label" data-id="L_N0_EnsureAsync_FAIL_0" transform="translate(808.914 8)"><div xmlns="http://www.w3.org/1999/xhtml" class="labelBkg" style="display:table-cell;white-space:nowrap;line-height:1.5;max-width:200px;text-align:center"><span class="edgeLabel"><p>fail</p></span></div></foreignObject></g><g class="edgeLabel"><foreignObject width="16.656" height="24" class="label" data-id="L_N1_FindProductAsync_N2_EnsureAsync_0" transform="translate(609.469 168.25)"><div xmlns="http://www.w3.org/1999/xhtml" class="labelBkg" style="display:table-cell;white-space:nowrap;line-height:1.5;max-width:200px;text-align:center"><span class="edgeLabel"><p>ok</p></span></div></foreignObject></g><g class="edgeLabel"><foreignObject width="23.609" height="24" class="label" data-id="L_N1_FindProductAsync_FAIL_0" transform="translate(939.758 61)"><div xmlns="http://www.w3.org/1999/xhtml" class="labelBkg" style="display:table-cell;white-space:nowrap;line-height:1.5;max-width:200px;text-align:center"><span class="edgeLabel"><p>fail</p></span></div></foreignObject></g><g class="edgeLabel"><foreignObject width="30.281" height="24" class="label" data-id="L_N2_EnsureAsync_N3_MapAsync_0" transform="translate(805.578 205.25)"><div xmlns="http://www.w3.org/1999/xhtml" class="labelBkg" style="display:table-cell;white-space:nowrap;line-height:1.5;max-width:200px;text-align:center"><span class="edgeLabel"><p>pass</p></span></div></foreignObject></g><g class="edgeLabel"><foreignObject width="23.609" height="24" class="label" data-id="L_N2_EnsureAsync_FAIL_0" transform="translate(1067.266 114)"><div xmlns="http://www.w3.org/1999/xhtml" class="labelBkg" style="display:table-cell;white-space:nowrap;line-height:1.5;max-width:200px;text-align:center"><span class="edgeLabel"><p>fail</p></span></div></foreignObject></g><g class="edgeLabel"><foreignObject width="0" height="0" class="label" data-id="L_N3_MapAsync_N4_SaveOrderAsync_0"><div xmlns="http://www.w3.org/1999/xhtml" class="labelBkg" style="display:table-cell;white-space:nowrap;line-height:1.5;max-width:200px;text-align:center"><span class="edgeLabel"/></div></foreignObject></g><g class="edgeLabel"><foreignObject width="16.656" height="24" class="label" data-id="L_N4_SaveOrderAsync_N5_Log_0" transform="translate(1299.852 227.25)"><div xmlns="http://www.w3.org/1999/xhtml" class="labelBkg" style="display:table-cell;white-space:nowrap;line-height:1.5;max-width:200px;text-align:center"><span class="edgeLabel"><p>ok</p></span></div></foreignObject></g><g class="edgeLabel"><foreignObject width="23.609" height="24" class="label" data-id="L_N4_SaveOrderAsync_FAIL_0" transform="translate(1319.467 142.185)"><div xmlns="http://www.w3.org/1999/xhtml" class="labelBkg" style="display:table-cell;white-space:nowrap;line-height:1.5;max-width:200px;text-align:center"><span class="edgeLabel"><p>fail</p></span></div></foreignObject></g><g class="edgeLabel"><foreignObject width="0" height="0" class="label" data-id="L_N5_Log_N6_Log_0"><div xmlns="http://www.w3.org/1999/xhtml" class="labelBkg" style="display:table-cell;white-space:nowrap;line-height:1.5;max-width:200px;text-align:center"><span class="edgeLabel"/></div></foreignObject></g><g class="edgeLabel"><foreignObject width="0" height="0" class="label" data-id="L_N6_Log_N7_MapAsync_0"><div xmlns="http://www.w3.org/1999/xhtml" class="labelBkg" style="display:table-cell;white-space:nowrap;line-height:1.5;max-width:200px;text-align:center"><span class="edgeLabel"/></div></foreignObject></g><g class="edgeLabel"><foreignObject width="16.656" height="24" class="label" data-id="L_N7_MapAsync_SUCCESS_0" transform="translate(1839.797 227.25)"><div xmlns="http://www.w3.org/1999/xhtml" class="labelBkg" style="display:table-cell;white-space:nowrap;line-height:1.5;max-width:200px;text-align:center"><span class="edgeLabel"><p>ok</p></span></div></foreignObject></g></g><g class="nodes"><g id="flowchart-ENTRY_ROOT-0" class="node default operation" transform="translate(80.195 106.25)"><rect width="144.391" height="78" x="-72.195" y="-39" class="basic label-container" style="fill:#faf0e3!important"/><g class="label" style="color:#b45f2b!important" transform="translate(-42.195 -24)"><rect/><foreignObject width="84.391" height="48"><div xmlns="http://www.w3.org/1999/xhtml" style="color:#b45f2b!important;display:table-cell;white-space:nowrap;line-height:1.5;max-width:200px;text-align:center"><span class="nodeLabel" style="fill:#faf0e3!important;color:#b45f2b!important"><p>FindUser⚡<br/>→ User</p></span></div></foreignObject></g></g><g id="flowchart-N0_EnsureAsync-1" class="node default gatekeeper" transform="translate(267.117 106.25)"><rect width="129.453" height="78" x="-64.727" y="-39" class="basic label-container" style="fill:#e3e9fa!important"/><g class="label" style="color:#3f5c9a!important" transform="translate(-34.727 -24)"><rect/><foreignObject width="69.453" height="48"><div xmlns="http://www.w3.org/1999/xhtml" style="color:#3f5c9a!important;display:table-cell;white-space:nowrap;line-height:1.5;max-width:200px;text-align:center"><span class="nodeLabel" style="color:#3f5c9a!important"><p><span title="u.Role == &quot;Admin&quot;">Ensure⚡<br/>User</span></p></span></div></foreignObject></g></g><g id="flowchart-N1_FindProductAsync-4" class="node default bind" transform="translate(498.297 143.25)"><rect width="172.344" height="78" x="-86.172" y="-39" class="basic label-container" style="fill:#e3f0e8!important;stroke:#1a5c3c!important;stroke-width:3px!important"/><g class="label" style="color:#2f7a5c!important" transform="translate(-56.172 -24)"><rect/><foreignObject width="112.344" height="48"><div xmlns="http://www.w3.org/1999/xhtml" style="color:#2f7a5c!important;display:table-cell;white-space:nowrap;line-height:1.5;max-width:200px;text-align:center"><span class="nodeLabel" style="color:#2f7a5c!important"><p>FindProduct⚡<br/>User → Product</p></span></div></foreignObject></g></g><g id="flowchart-FAIL-6" class="node default failure"><g class="basic label-container outer-path"><path stroke-width="0" d="M-4.68-19.5h9.36l1.25.04 1.243.12 1.234.2 1.219.278 1.198.355 1.173.432 1.143.506 1.109.578 1.069.648 1.025.715.977.78.925.84.87.898.81.952.748 1.002.682 1.047.613 1.09.543 1.126.469 1.158.394 1.187.317 1.209.239 1.227.16 1.24.08 1.247v1.25l-.08 1.247-.16 1.24-.24 1.227-.316 1.21-.394 1.186-.47 1.158-.542 1.126-.613 1.09-.682 1.047-.748 1.002-.81.952-.87.898-.925.84-.977.78-1.025.715-1.07.648-1.108.578-1.143.506-1.173.432-1.198.355-1.219.278-1.234.2-1.244.12-1.25.04H-4.68l-1.25-.04-1.243-.12-1.234-.2-1.219-.278-1.198-.355-1.173-.432-1.143-.506-1.109-.578c-.31-.189-.62-.377-1.069-.648l-1.025-.715-.977-.78-.925-.84-.87-.898-.81-.952c-.18-.24-.36-.48-.748-1.002l-.682-1.047-.613-1.09-.543-1.126-.469-1.158-.394-1.187-.317-1.209-.239-1.227-.16-1.24-.08-1.247v-1.25l.08-1.247.16-1.24.24-1.227.316-1.21.394-1.186.47-1.158.542-1.126.613-1.09.682-1.047.748-1.002.81-.952.87-.898.925-.84.977-.78 1.025-.715 1.07-.648 1.108-.578 1.143-.506 1.173-.432 1.198-.355 1.219-.278 1.234-.2 1.244-.12 1.25-.04" style="fill:#f8e3e3!important" transform="translate(1395.414 84)"/><path fill="none" stroke="hsl(40.5882352941, 60%, 83.3333333333%)" stroke-dasharray="0 0" stroke-width="1.3" d="M-4.68-19.5h9.36m-9.36 0h9.36m0 0 1.25.04m-1.25-.04 1.25.04m0 0 1.243.12m-1.244-.12 1.244.12m0 0 1.234.2m-1.234-.2 1.234.2m0 0 1.219.278m-1.219-.278 1.219.278m0 0 1.198.355m-1.198-.355 1.198.355m0 0 1.173.432m-1.173-.432 1.173.432m0 0 1.143.506m-1.143-.506 1.143.506m0 0 1.109.578m-1.109-.578 1.109.578m0 0 1.069.648m-1.07-.648 1.07.648m0 0c.271.19.543.38 1.025.715m-1.025-.715 1.025.715m0 0 .977.78m-.977-.78.977.78m0 0 .925.84m-.925-.84.925.84m0 0 .87.898m-.87-.898.87.898m0 0 .81.952m-.81-.952.81.952m0 0 .748 1.002m-.748-1.002.748 1.002m0 0 .682 1.047m-.682-1.047.682 1.047m0 0 .613 1.09m-.613-1.09.613 1.09m0 0 .543 1.126m-.543-1.126.543 1.126m0 0c.12.299.242.598.469 1.158m-.47-1.158.47 1.158m0 0 .394 1.187m-.394-1.187.394 1.187m0 0 .317 1.209m-.317-1.21.317 1.21m0 0 .239 1.227m-.24-1.227.24 1.227m0 0 .16 1.24m-.16-1.24.16 1.24m0 0 .08 1.247m-.08-1.247.08 1.247m0 0v1.25m0-1.25v1.25m0 0-.08 1.247m.08-1.247-.08 1.247m0 0-.16 1.24m.16-1.24-.16 1.24m0 0-.24 1.227m.24-1.227-.24 1.227m0 0-.316 1.21m.317-1.21-.317 1.21m0 0-.394 1.186m.394-1.187-.394 1.187m0 0-.47 1.158m.47-1.158-.47 1.158m0 0c-.125.261-.25.522-.542 1.126m.543-1.126-.543 1.126m0 0-.613 1.09m.613-1.09-.613 1.09m0 0-.682 1.047m.682-1.047-.682 1.047m0 0-.748 1.002m.748-1.002-.748 1.002m0 0-.81.952m.81-.952-.81.952m0 0-.87.898m.87-.898-.87.898m0 0-.925.84m.925-.84-.925.84m0 0-.977.78m.977-.78-.977.78m0 0c-.388.27-.776.54-1.025.715m1.025-.715-1.025.715m0 0-1.07.648m1.07-.648c-.25.15-.499.302-1.07.648m0 0-1.108.578m1.109-.578-1.109.578m0 0c-.246.11-.493.218-1.143.506m1.143-.506-1.143.506m0 0-1.173.432m1.173-.432-1.173.432m0 0-1.198.355m1.198-.355-1.198.355m0 0-1.219.278m1.219-.278-1.219.278m0 0-1.234.2m1.234-.2-1.234.2m0 0-1.244.12m1.244-.12-1.244.12m0 0-1.25.04m1.25-.04-1.25.04m0 0H-4.68m9.36 0h-9.36m0 0-1.25-.04m1.25.04-1.25-.04m0 0-1.243-.12m1.244.12-1.244-.12m0 0-1.234-.2m1.234.2-1.234-.2m0 0-1.219-.278m1.219.278-1.219-.278m0 0-1.198-.355m1.198.355-1.198-.355m0 0-1.173-.432m1.173.432-1.173-.432m0 0-1.143-.506m1.143.506-1.143-.506m0 0-1.109-.578m1.109.578-1.109-.578m0 0-1.069-.648m1.07.648-1.07-.648m0 0-1.025-.715m1.025.715-1.025-.715m0 0-.977-.78m.977.78-.977-.78m0 0-.925-.84m.925.84-.925-.84m0 0-.87-.898m.87.898-.87-.898m0 0-.81-.952m.81.952-.81-.952m0 0-.748-1.002m.748 1.002-.748-1.002m0 0-.682-1.047m.682 1.047-.682-1.047m0 0-.613-1.09m.613 1.09-.613-1.09m0 0-.543-1.126m.543 1.126c-.15-.308-.298-.617-.543-1.126m0 0-.469-1.158m.47 1.158-.47-1.158m0 0-.394-1.187m.394 1.187-.394-1.187m0 0-.317-1.209m.317 1.21-.317-1.21m0 0-.239-1.227m.24 1.227-.24-1.227m0 0-.16-1.24m.16 1.24-.16-1.24m0 0-.08-1.247m.08 1.247-.08-1.247m0 0v-1.25m0 1.25v-1.25m0 0 .08-1.247m-.08 1.247.08-1.247m0 0 .16-1.24m-.16 1.24.16-1.24m0 0 .24-1.227m-.24 1.227.24-1.227m0 0 .316-1.21m-.317 1.21.317-1.21m0 0c.108-.325.217-.65.394-1.186m-.394 1.187.394-1.187m0 0 .47-1.158m-.47 1.158.47-1.158m0 0c.178-.372.357-.744.542-1.126m-.543 1.126.543-1.126m0 0 .613-1.09m-.613 1.09.613-1.09m0 0 .682-1.047m-.682 1.047.682-1.047m0 0 .748-1.002m-.748 1.002.748-1.002m0 0 .81-.952m-.81.952.81-.952m0 0 .87-.898m-.87.898.87-.898m0 0 .925-.84m-.925.84.925-.84m0 0 .977-.78m-.977.78.977-.78m0 0 1.025-.715m-1.025.715 1.025-.715m0 0 1.07-.648m-1.07.648 1.07-.648m0 0 1.108-.578m-1.109.578 1.109-.578m0 0 1.143-.506m-1.143.506 1.143-.506m0 0 1.173-.432m-1.173.432 1.173-.432m0 0 1.198-.355m-1.198.355 1.198-.355m0 0 1.219-.278m-1.219.278 1.219-.278m0 0 1.234-.2m-1.234.2 1.234-.2m0 0 1.244-.12m-1.244.12 1.244-.12m0 0 1.25-.04m-1.25.04 1.25-.04m0 0" style="fill:#f8e3e3!important" transform="translate(1395.414 84)"/></g><g class="label" style="color:#b13e3e!important" transform="translate(1383.61 72)"><rect/><foreignObject width="23.609" height="24"><div xmlns="http://www.w3.org/1999/xhtml" style="color:#b13e3e!important;display:table-cell;white-space:nowrap;line-height:1.5;max-width:200px;text-align:center"><span class="nodeLabel" style="fill:#f8e3e3!important;color:#b13e3e!important"><p>fail</p></span></div></foreignObject></g></g><g id="flowchart-N2_EnsureAsync-9" class="node default gatekeeper" transform="translate(715.852 180.25)"><rect width="129.453" height="78" x="-64.727" y="-39" class="basic label-container" style="fill:#e3e9fa!important"/><g class="label" style="color:#3f5c9a!important" transform="translate(-34.727 -24)"><rect/><foreignObject width="69.453" height="48"><div xmlns="http://www.w3.org/1999/xhtml" style="color:#3f5c9a!important;display:table-cell;white-space:nowrap;line-height:1.5;max-width:200px;text-align:center"><span class="nodeLabel" style="color:#3f5c9a!important"><p><span title="p.Stock &gt; 0">Ensure⚡<br/>Product</span></p></span></div></foreignObject></g></g><g id="flowchart-N3_MapAsync-14" class="node default map" transform="translate(951.563 217.25)"><rect width="181.406" height="78" x="-90.703" y="-39" class="basic label-container" style="fill:#e3f0e8!important"/><g class="label" style="color:#2f7a5c!important" transform="translate(-60.703 -24)"><rect/><foreignObject width="121.406" height="48"><div xmlns="http://www.w3.org/1999/xhtml" style="color:#2f7a5c!important;display:table-cell;white-space:nowrap;line-height:1.5;max-width:200px;text-align:center"><span class="nodeLabel" style="color:#2f7a5c!important"><p>Map⚡<br/>Product → Order</p></span></div></foreignObject></g></g><g id="flowchart-N4_SaveOrderAsync-19" class="node default bind" transform="translate(1193.625 217.25)"><rect width="155.5" height="78" x="-77.75" y="-39" class="basic label-container" style="fill:#e3f0e8!important;stroke:#1a5c3c!important;stroke-width:3px!important"/><g class="label" style="color:#2f7a5c!important" transform="translate(-47.75 -24)"><rect/><foreignObject width="95.5" height="48"><div xmlns="http://www.w3.org/1999/xhtml" style="color:#2f7a5c!important;display:table-cell;white-space:nowrap;line-height:1.5;max-width:200px;text-align:center"><span class="nodeLabel" style="color:#2f7a5c!important"><p>SaveOrder⚡<br/>Order</p></span></div></foreignObject></g></g><g id="flowchart-N5_Log-22" class="node default sideeffect" transform="translate(1395.414 239.25)"><rect width="100.859" height="78" x="-50.43" y="-39" class="basic label-container" style="fill:#fff4d9!important"/><g class="label" style="color:#b8882c!important" transform="translate(-20.43 -24)"><rect/><foreignObject width="40.859" height="48"><div xmlns="http://www.w3.org/1999/xhtml" style="color:#b8882c!important;display:table-cell;white-space:nowrap;line-height:1.5;max-width:200px;text-align:center"><span class="nodeLabel" style="color:#b8882c!important"><p>Log<br/>Order</p></span></div></foreignObject></g></g><g id="flowchart-N6_Log-27" class="node default sideeffect" transform="translate(1546.273 239.25)"><rect width="100.859" height="78" x="-50.43" y="-39" class="basic label-container" style="fill:#fff4d9!important"/><g class="label" style="color:#b8882c!important" transform="translate(-20.43 -24)"><rect/><foreignObject width="40.859" height="48"><div xmlns="http://www.w3.org/1999/xhtml" style="color:#b8882c!important;display:table-cell;white-space:nowrap;line-height:1.5;max-width:200px;text-align:center"><span class="nodeLabel" style="color:#b8882c!important"><p>Log<br/>Order</p></span></div></foreignObject></g></g><g id="flowchart-N7_MapAsync-30" class="node default map" transform="translate(1730.75 239.25)"><rect width="168.094" height="78" x="-84.047" y="-39" class="basic label-container" style="fill:#e3f0e8!important"/><g class="label" style="color:#2f7a5c!important" transform="translate(-54.047 -24)"><rect/><foreignObject width="108.094" height="48"><div xmlns="http://www.w3.org/1999/xhtml" style="color:#2f7a5c!important;display:table-cell;white-space:nowrap;line-height:1.5;max-width:200px;text-align:center"><span class="nodeLabel" style="color:#2f7a5c!important"><p>Map⚡<br/>Order → String</p></span></div></foreignObject></g></g><g id="flowchart-SUCCESS-33" class="node default success"><g class="basic label-container outer-path"><path stroke-width="0" d="M-19.25-19.5h38.5l1.25.04 1.244.12 1.234.2 1.218.278 1.199.355 1.173.432 1.143.506 1.108.578 1.069.648 1.025.715.977.78.926.84.87.898.81.952.747 1.002.682 1.047.614 1.09.542 1.126.47 1.158.393 1.187.317 1.209.239 1.227.16 1.24.08 1.247v1.25l-.08 1.247-.16 1.24-.239 1.227-.317 1.21-.394 1.186-.469 1.158-.542 1.126-.614 1.09-.682 1.047-.747 1.002-.81.952-.87.898-.926.84-.977.78-1.025.715c-.299.18-.597.362-1.069.648l-1.108.578-1.143.506-1.173.432-1.199.355-1.218.278-1.234.2-1.245.12-1.249.04h-38.5l-1.25-.04-1.244-.12-1.234-.2-1.218-.278-1.199-.355-1.173-.432-1.143-.506-1.108-.578-1.069-.648-1.025-.715-.977-.78-.926-.84-.87-.898-.81-.952-.747-1.002-.682-1.047-.614-1.09-.542-1.126-.47-1.158-.393-1.187-.317-1.209-.239-1.227-.16-1.24-.08-1.247v-1.25l.08-1.247.16-1.24.239-1.227.317-1.21.394-1.186.469-1.158.542-1.126.614-1.09.682-1.047.747-1.002.81-.952.87-.898.926-.84.977-.78 1.025-.715 1.069-.648 1.108-.578 1.143-.506 1.173-.432 1.199-.355 1.218-.278 1.234-.2 1.245-.12 1.249-.04" style="fill:#e8f4f0!important" transform="translate(1920.193 239.25)"/><path fill="none" stroke="hsl(40.5882352941, 60%, 83.3333333333%)" stroke-dasharray="0 0" stroke-width="1.3" d="M-19.25-19.5h38.5m-38.5 0h38.5m0 0 1.25.04m-1.25-.04 1.25.04m0 0 1.244.12m-1.245-.12 1.245.12m0 0 1.234.2m-1.234-.2 1.234.2m0 0 1.218.278m-1.218-.278 1.218.278m0 0 1.199.355m-1.199-.355 1.199.355m0 0 1.173.432m-1.173-.432 1.173.432m0 0 1.143.506m-1.143-.506 1.143.506m0 0 1.108.578m-1.108-.578 1.108.578m0 0 1.069.648m-1.069-.648 1.069.648m0 0 1.025.715m-1.025-.715 1.025.715m0 0 .977.78m-.977-.78.977.78m0 0 .926.84m-.926-.84.926.84m0 0 .87.898m-.87-.898.87.898m0 0 .81.952m-.81-.952.81.952m0 0 .747 1.002m-.747-1.002.747 1.002m0 0 .682 1.047m-.682-1.047.682 1.047m0 0 .614 1.09m-.614-1.09.614 1.09m0 0 .542 1.126m-.542-1.126.542 1.126m0 0 .47 1.158m-.47-1.158.47 1.158m0 0 .393 1.187m-.394-1.187.394 1.187m0 0 .317 1.209m-.317-1.21.317 1.21m0 0 .239 1.227m-.239-1.227.239 1.227m0 0 .16 1.24m-.16-1.24.16 1.24m0 0 .08 1.247m-.08-1.247.08 1.247m0 0v1.25m0-1.25v1.25m0 0-.08 1.247m.08-1.247-.08 1.247m0 0-.16 1.24m.16-1.24-.16 1.24m0 0-.239 1.227m.239-1.227-.239 1.227m0 0-.317 1.21m.317-1.21-.317 1.21m0 0-.394 1.186m.394-1.187-.394 1.187m0 0-.469 1.158m.47-1.158-.47 1.158m0 0-.542 1.126m.542-1.126-.542 1.126m0 0-.614 1.09m.614-1.09-.614 1.09m0 0-.682 1.047m.682-1.047-.682 1.047m0 0-.747 1.002m.747-1.002-.747 1.002m0 0-.81.952m.81-.952-.81.952m0 0c-.287.295-.573.59-.87.898m.87-.898-.87.898m0 0-.926.84m.926-.84-.926.84m0 0-.977.78m.977-.78-.977.78m0 0-1.025.715m1.025-.715-1.025.715m0 0c-.314.19-.629.38-1.069.648m1.069-.648-1.069.648m0 0-1.108.578m1.108-.578-1.108.578m0 0-1.143.506m1.143-.506-1.143.506m0 0-1.173.432m1.173-.432-1.173.432m0 0-1.199.355m1.199-.355-1.199.355m0 0-1.218.278m1.218-.278-1.218.278m0 0-1.234.2m1.234-.2-1.234.2m0 0-1.245.12m1.245-.12-1.245.12m0 0-1.249.04m1.25-.04-1.25.04m0 0h-38.5m38.5 0h-38.5m0 0-1.25-.04m1.25.04-1.25-.04m0 0-1.244-.12m1.245.12-1.245-.12m0 0-1.234-.2m1.234.2-1.234-.2m0 0-1.218-.278m1.218.278-1.218-.278m0 0-1.199-.355m1.199.355-1.199-.355m0 0-1.173-.432m1.173.432c-.35-.13-.702-.259-1.173-.432m0 0-1.143-.506m1.143.506-1.143-.506m0 0-1.108-.578m1.108.578-1.108-.578m0 0-1.069-.648m1.069.648-1.069-.648m0 0-1.025-.715m1.025.715-1.025-.715m0 0-.977-.78m.977.78-.977-.78m0 0-.926-.84m.926.84-.926-.84m0 0-.87-.898m.87.898-.87-.898m0 0-.81-.952m.81.952-.81-.952m0 0-.747-1.002m.747 1.002-.747-1.002m0 0-.682-1.047m.682 1.047-.682-1.047m0 0-.614-1.09m.614 1.09-.614-1.09m0 0-.542-1.126m.542 1.126-.542-1.126m0 0-.47-1.158m.47 1.158-.47-1.158m0 0c-.085-.26-.172-.52-.393-1.187m.394 1.187-.394-1.187m0 0-.317-1.209m.317 1.21-.317-1.21m0 0-.239-1.227m.239 1.227-.239-1.227m0 0-.16-1.24m.16 1.24-.16-1.24m0 0-.08-1.247m.08 1.247-.08-1.247m0 0v-1.25m0 1.25v-1.25m0 0 .08-1.247m-.08 1.247.08-1.247m0 0 .16-1.24m-.16 1.24.16-1.24m0 0 .239-1.227m-.239 1.227.239-1.227m0 0 .317-1.21m-.317 1.21.317-1.21m0 0 .394-1.186m-.394 1.187.394-1.187m0 0 .469-1.158m-.47 1.158.47-1.158m0 0 .542-1.126m-.542 1.126.542-1.126m0 0 .614-1.09m-.614 1.09.614-1.09m0 0 .682-1.047m-.682 1.047.682-1.047m0 0 .747-1.002m-.747 1.002.747-1.002m0 0 .81-.952m-.81.952c.205-.24.41-.48.81-.952m0 0 .87-.898m-.87.898.87-.898m0 0 .926-.84m-.926.84.926-.84m0 0 .977-.78m-.977.78.977-.78m0 0 1.025-.715m-1.025.715 1.025-.715m0 0 1.069-.648m-1.069.648 1.069-.648m0 0 1.108-.578m-1.108.578 1.108-.578m0 0 1.143-.506m-1.143.506 1.143-.506m0 0 1.173-.432m-1.173.432 1.173-.432m0 0 1.199-.355m-1.199.355 1.199-.355m0 0 1.218-.278m-1.218.278 1.218-.278m0 0 1.234-.2m-1.234.2 1.234-.2m0 0 1.245-.12m-1.245.12 1.245-.12m0 0 1.249-.04m-1.25.04 1.25-.04m0 0" style="fill:#e8f4f0!important" transform="translate(1920.193 239.25)"/></g><g class="label" style="color:#1c7e6f!important" transform="translate(1893.818 227.25)"><rect/><foreignObject width="52.75" height="24"><div xmlns="http://www.w3.org/1999/xhtml" style="color:#1c7e6f!important;display:table-cell;white-space:nowrap;line-height:1.5;max-width:200px;text-align:center"><span class="nodeLabel" style="fill:#e8f4f0!important;color:#1c7e6f!important"><p>success</p></span></div></foreignObject></g></g></g></g><marker id="my-svg_flowchart-v2-pointEnd__888" class="marker flowchart-v2" markerHeight="8" markerUnits="userSpaceOnUse" markerWidth="8" orient="auto" refX="5" refY="5" viewBox="0 0 10 10"><path fill="#888" stroke="#888" d="m0 0 10 5-10 5z" class="arrowMarkerPath" style="stroke-width:1;stroke-dasharray:1,0"/></marker><text x="983.467" y="-25" style="text-anchor:middle;font-size:18px;fill:#333">AdminCheckout → ⟨String⟩</text></svg>