<svg xmlns="http://www.w3.org/2000/svg" id="my-svg" aria-roledescription="flowchart-v2" class="flowchart" style="font-family:&quot;trebuchet ms&quot;,verdana,arial,sans-serif;font-size:16px;fill:#333;max-width:1220.73px;background-color:#fff" viewBox="0 -50 1220.73 254" width="900"><style><![CDATA[@keyframes edge-animation-frame{0%{stroke-dashoffset:0}}@keyframes dash{to{stroke-dashoffset:0}}#my-svg .edge-thickness-normal{stroke-width:1px}#my-svg .edge-pattern-solid{stroke-dasharray:0}#my-svg .marker{fill:#333;stroke:#333}#my-svg .marker.cross{stroke:#333}#my-svg .label,#my-svg svg{font-family:"trebuchet ms",verdana,arial,sans-serif}#my-svg svg{font-size:16px}#my-svg p{margin:0}#my-svg .label{color:#333}#my-svg .label text,#my-svg span{fill:#333;color:#333}#my-svg .node circle,#my-svg .node path,#my-svg .node rect{fill:#ececff;stroke:#9370db;stroke-width:1px}#my-svg .node .label text{text-anchor:middle}#my-svg .flowchart-link{stroke:#333;fill:none}#my-svg .edgeLabel,#my-svg .node .label{text-align:center}#my-svg .edgeLabel,#my-svg .edgeLabel p,#my-svg .edgeLabel rect{background-color:rgba(232,232,232,.8)}#my-svg .edgeLabel rect{opacity:.5;fill:rgba(232,232,232,.8)}#my-svg .labelBkg{background-color:rgba(232,232,232,.5)}#my-svg :root{--mermaid-font-family:"trebuchet ms",verdana,arial,sans-serif}#my-svg .operation>*{fill:#fef0e3!important;color:#b86a1c!important}#my-svg .bind span,#my-svg .bind>*{fill:#e3f0e8!important;color:#2f7a5c!important;stroke:#1a5c3c!important;stroke-width:3px!important}#my-svg .gatekeeper span,#my-svg .gatekeeper>*{fill:#e3e9fa!important;color:#3f5c9a!important}#my-svg .map>*{fill:#e3f0e8!important;color:#2f7a5c!important}#my-svg .success>*{fill:#e6f6ea!important;color:#1c7e4f!important}#my-svg .failure>*{fill:#f8e3e3!important;color:#b13e3e!important}]]></style><marker id="my-svg_flowchart-v2-pointEnd" class="marker flowchart-v2" markerHeight="8" markerUnits="userSpaceOnUse" markerWidth="8" orient="auto" refX="5" refY="5" viewBox="0 0 10 10"><path d="m0 0 10 5-10 5z" class="arrowMarkerPath" style="stroke-width:1;stroke-dasharray:1,0"/></marker><marker id="my-svg_flowchart-v2-pointStart" class="marker flowchart-v2" markerHeight="8" markerUnits="userSpaceOnUse" markerWidth="8" orient="auto" refX="4.5" refY="5" viewBox="0 0 10 10"><path d="m0 5 10 5V0z" class="arrowMarkerPath" style="stroke-width:1;stroke-dasharray:1,0"/></marker><marker id="my-svg_flowchart-v2-circleEnd" class="marker flowchart-v2" markerHeight="11" markerUnits="userSpaceOnUse" markerWidth="11" orient="auto" refX="11" refY="5" viewBox="0 0 10 10"><circle cx="5" cy="5" r="5" class="arrowMarkerPath" style="stroke-width:1;stroke-dasharray:1,0"/></marker><marker id="my-svg_flowchart-v2-circleStart" class="marker flowchart-v2" markerHeight="11" markerUnits="userSpaceOnUse" markerWidth="11" orient="auto" refX="-1" refY="5" viewBox="0 0 10 10"><circle cx="5" cy="5" r="5" class="arrowMarkerPath" style="stroke-width:1;stroke-dasharray:1,0"/></marker><marker id="my-svg_flowchart-v2-crossEnd" class="marker cross flowchart-v2" markerHeight="11" markerUnits="userSpaceOnUse" markerWidth="11" orient="auto" refX="12" refY="5.2" viewBox="0 0 11 11"><path d="m1 1 9 9m0-9-9 9" class="arrowMarkerPath" style="stroke-width:2;stroke-dasharray:1,0"/></marker><marker id="my-svg_flowchart-v2-crossStart" class="marker cross flowchart-v2" markerHeight="11" markerUnits="userSpaceOnUse" markerWidth="11" orient="auto" refX="-1" refY="5.2" viewBox="0 0 11 11"><path d="m1 1 9 9m0-9-9 9" class="arrowMarkerPath" style="stroke-width:2;stroke-dasharray:1,0"/></marker><g class="root"><g class="edgePaths"><path id="L_ENTRY_ROOT_N0_FindProductAsync_0" marker-end="url(#my-svg_flowchart-v2-pointEnd)" d="M152.391 80.5h46" class="edge-pattern-solid edge-thickness-normal flowchart-link" data-edge="true" data-et="edge" data-id="L_ENTRY_ROOT_N0_FindProductAsync_0" data-points="W3sieCI6MTUyLjM5MDYyNSwieSI6ODAuNX0seyJ4IjoxNzcuMzkwNjI1LCJ5Ijo4MC41fSx7IngiOjIwMi4zOTA2MjUsInkiOjgwLjV9XQ==" style="stroke-width:3.5px"/><path id="L_N0_FindProductAsync_N1_EnsureAsync_0" marker-end="url(#my-svg_flowchart-v2-pointEnd)" d="m374.734 107.181 5.555 1.72c5.555 1.72 16.664 5.159 27.107 6.879s20.219 1.72 25.107 1.72h4.888" class="edge-thickness-normal edge-pattern-solid edge-thickness-normal edge-pattern-solid flowchart-link" data-edge="true" data-et="edge" data-id="L_N0_FindProductAsync_N1_EnsureAsync_0" data-points="W3sieCI6Mzc0LjczNDM3NSwieSI6MTA3LjE4MDgzMTU4OTk1ODE2fSx7IngiOjQwOC4wNjI1LCJ5IjoxMTcuNX0seyJ4Ijo0NDEuMzkwNjI1LCJ5IjoxMTcuNX1d"/><path id="L_N0_FindProductAsync_FAIL_0" marker-end="url(#my-svg_flowchart-v2-pointEnd)" d="m365.596 41.5 7.077-3.583c7.078-3.584 21.234-10.75 44.654-14.334S473.432 20 507.253 20h476.638c38.185 0 76.369 0 103.884 3.612 27.514 3.612 44.357 10.837 52.779 14.449l8.422 3.612" class="edge-thickness-normal edge-pattern-solid edge-thickness-normal edge-pattern-solid flowchart-link" data-edge="true" data-et="edge" data-id="L_N0_FindProductAsync_FAIL_0" data-points="W3sieCI6MzY1LjU5NTU1Nzg1MTIzOTcsInkiOjQxLjV9LHsieCI6NDA4LjA2MjUsInkiOjIwfSx7IngiOjUwNi4xMTcxODc1LCJ5IjoyMH0seyJ4Ijo2MTAuOTg0Mzc1LCJ5IjoyMH0seyJ4Ijo3NDEuODI4MTI1LCJ5IjoyMH0seyJ4Ijo4NjkuMzM1OTM3NSwieSI6MjB9LHsieCI6OTgzLjg5MDYyNSwieSI6MjB9LHsieCI6MTA5OC40NDUzMTI1LCJ5IjoyMH0seyJ4IjoxMTUyLjY1MTcwMDcyMDQ1MTEsInkiOjQzLjI0OTUxMjU4MTk3NTM5NX1d"/><path id="L_N1_EnsureAsync_N2_MapAsync_0" marker-end="url(#my-svg_flowchart-v2-pointEnd)" d="m570.844 140.337 6.69 2.361c6.69 2.36 20.07 7.081 32.784 9.442s24.76 2.36 30.784 2.36h6.023" class="edge-thickness-normal edge-pattern-solid edge-thickness-normal edge-pattern-solid flowchart-link" data-edge="true" data-et="edge" data-id="L_N1_EnsureAsync_N2_MapAsync_0" data-points="W3sieCI6NTcwLjg0Mzc1LCJ5IjoxNDAuMzM3Mjk0MTk2NTI4MzV9LHsieCI6NjEwLjk4NDM3NSwieSI6MTU0LjV9LHsieCI6NjUxLjEyNSwieSI6MTU0LjV9XQ=="/><path id="L_N1_EnsureAsync_FAIL_0" marker-end="url(#my-svg_flowchart-v2-pointEnd)" d="m570.844 90.034 6.69-2.839c6.69-2.839 20.07-8.517 48.568-11.356S698.214 73 741.272 73h242.619c38.185 0 76.369 0 103.644-2.176s43.64-6.527 51.822-8.703l8.182-2.176" class="edge-thickness-normal edge-pattern-solid edge-thickness-normal edge-pattern-solid flowchart-link" data-edge="true" data-et="edge" data-id="L_N1_EnsureAsync_FAIL_0" data-points="W3sieCI6NTcwLjg0Mzc1LCJ5Ijo5MC4wMzM1MjQ1NDc0MTg2MX0seyJ4Ijo2MTAuOTg0Mzc1LCJ5Ijo3M30seyJ4Ijo3NDEuODI4MTI1LCJ5Ijo3M30seyJ4Ijo4NjkuMzM1OTM3NSwieSI6NzN9LHsieCI6OTgzLjg5MDYyNSwieSI6NzN9LHsieCI6MTA5OC40NDUzMTI1LCJ5Ijo3M30seyJ4IjoxMTUxLjQwNDc4ODAwMTUyNjYsInkiOjU4LjkxNzI1MDY5NDE3NjZ9XQ=="/><path id="L_N2_MapAsync_N3_SaveOrderAsync_0" marker-end="url(#my-svg_flowchart-v2-pointEnd)" d="M832.531 154.5h69.61" class="edge-thickness-normal edge-pattern-solid edge-thickness-normal edge-pattern-solid flowchart-link" data-edge="true" data-et="edge" data-id="L_N2_MapAsync_N3_SaveOrderAsync_0" data-points="W3sieCI6ODMyLjUzMTI1LCJ5IjoxNTQuNX0seyJ4Ijo4NjkuMzM1OTM3NSwieSI6MTU0LjV9LHsieCI6OTA2LjE0MDYyNSwieSI6MTU0LjV9XQ=="/><path id="L_N3_SaveOrderAsync_FAIL_0" marker-end="url(#my-svg_flowchart-v2-pointEnd)" d="m1061.641 135.157 6.134-1.526c6.134-1.527 18.402-4.579 34.044-15.261 15.642-10.683 34.658-28.996 44.166-38.153l9.508-9.156" class="edge-thickness-normal edge-pattern-solid edge-thickness-normal edge-pattern-solid flowchart-link" data-edge="true" data-et="edge" data-id="L_N3_SaveOrderAsync_FAIL_0" data-points="W3sieCI6MTA2MS42NDA2MjUsInkiOjEzNS4xNTY2MTg3MDAxMjk1N30seyJ4IjoxMDk4LjQ0NTMxMjUsInkiOjEyNn0seyJ4IjoxMTU4LjM3NDM4NDExNTg1NDQsInkiOjY4LjI4NjA4MTA5MDAxMDgyfV0="/><path id="L_N3_SaveOrderAsync_SUCCESS_0" marker-end="url(#my-svg_flowchart-v2-pointEnd)" d="m1061.641 169.432 6.134 1.178c6.134 1.178 18.402 3.534 30.087 4.786 11.685 1.253 22.787 1.402 28.338 1.476l5.55.074" class="edge-thickness-normal edge-pattern-solid edge-thickness-normal edge-pattern-solid flowchart-link" data-edge="true" data-et="edge" data-id="L_N3_SaveOrderAsync_SUCCESS_0" data-points="W3sieCI6MTA2MS42NDA2MjUsInkiOjE2OS40MzE3MzI5MzMyMzMzMn0seyJ4IjoxMDk4LjQ0NTMxMjUsInkiOjE3Ni41fSx7IngiOjExMzUuNzUwMDAwMDAwMDE4LCJ5IjoxNzYuOTk5OTk5OTk5OTk5OTd9XQ=="/></g><g class="edgeLabels"><g class="edgeLabel"><foreignObject width="0" height="0" class="label" data-id="L_ENTRY_ROOT_N0_FindProductAsync_0"><div xmlns="http://www.w3.org/1999/xhtml" class="labelBkg" style="display:table-cell;white-space:nowrap;line-height:1.5;max-width:200px;text-align:center"><span class="edgeLabel"/></div></foreignObject></g><g class="edgeLabel"><foreignObject width="16.656" height="24" class="label" data-id="L_N0_FindProductAsync_N1_EnsureAsync_0" transform="translate(399.734 105.5)"><div xmlns="http://www.w3.org/1999/xhtml" class="labelBkg" style="display:table-cell;white-space:nowrap;line-height:1.5;max-width:200px;text-align:center"><span class="edgeLabel"><p>ok</p></span></div></foreignObject></g><g class="edgeLabel"><foreignObject width="23.609" height="24" class="label" data-id="L_N0_FindProductAsync_FAIL_0" transform="translate(730.023 8)"><div xmlns="http://www.w3.org/1999/xhtml" class="labelBkg" style="display:table-cell;white-space:nowrap;line-height:1.5;max-width:200px;text-align:center"><span class="edgeLabel"><p>fail</p></span></div></foreignObject></g><g class="edgeLabel"><foreignObject width="30.281" height="24" class="label" data-id="L_N1_EnsureAsync_N2_MapAsync_0" transform="translate(595.844 142.5)"><div xmlns="http://www.w3.org/1999/xhtml" class="labelBkg" style="display:table-cell;white-space:nowrap;line-height:1.5;max-width:200px;text-align:center"><span class="edgeLabel"><p>pass</p></span></div></foreignObject></g><g class="edgeLabel"><foreignObject width="23.609" height="24" class="label" data-id="L_N1_EnsureAsync_FAIL_0" transform="translate(857.531 61)"><div xmlns="http://www.w3.org/1999/xhtml" class="labelBkg" style="display:table-cell;white-space:nowrap;line-height:1.5;max-width:200px;text-align:center"><span class="edgeLabel"><p>fail</p></span></div></foreignObject></g><g class="edgeLabel"><foreignObject width="0" height="0" class="label" data-id="L_N2_MapAsync_N3_SaveOrderAsync_0"><div xmlns="http://www.w3.org/1999/xhtml" class="labelBkg" style="display:table-cell;white-space:nowrap;line-height:1.5;max-width:200px;text-align:center"><span class="edgeLabel"/></div></foreignObject></g><g class="edgeLabel"><foreignObject width="23.609" height="24" class="label" data-id="L_N3_SaveOrderAsync_FAIL_0" transform="translate(1102.946 98.297)"><div xmlns="http://www.w3.org/1999/xhtml" class="labelBkg" style="display:table-cell;white-space:nowrap;line-height:1.5;max-width:200px;text-align:center"><span class="edgeLabel"><p>fail</p></span></div></foreignObject></g><g class="edgeLabel"><foreignObject width="16.656" height="24" class="label" data-id="L_N3_SaveOrderAsync_SUCCESS_0" transform="translate(1090.117 164.5)"><div xmlns="http://www.w3.org/1999/xhtml" class="labelBkg" style="display:table-cell;white-space:nowrap;line-height:1.5;max-width:200px;text-align:center"><span class="edgeLabel"><p>ok</p></span></div></foreignObject></g></g><g class="nodes"><g id="flowchart-ENTRY_ROOT-0" class="node default operation" transform="translate(80.195 80.5)"><rect width="144.391" height="78" x="-72.195" y="-39" class="basic label-container" style="fill:#fef0e3!important"/><g class="label" style="color:#b86a1c!important" transform="translate(-42.195 -24)"><rect/><foreignObject width="84.391" height="48"><div xmlns="http://www.w3.org/1999/xhtml" style="color:#b86a1c!important;display:table-cell;white-space:nowrap;line-height:1.5;max-width:200px;text-align:center"><span class="nodeLabel" style="fill:#fef0e3!important;color:#b86a1c!important"><p>FindUser⚡<br/>→ User</p></span></div></foreignObject></g></g><g id="flowchart-N0_FindProductAsync-1" class="node default bind" transform="translate(288.563 80.5)"><rect width="172.344" height="78" x="-86.172" y="-39" class="basic label-container" style="fill:#e3f0e8!important;stroke:#1a5c3c!important;stroke-width:3px!important"/><g class="label" style="color:#2f7a5c!important" transform="translate(-56.172 -24)"><rect/><foreignObject width="112.344" height="48"><div xmlns="http://www.w3.org/1999/xhtml" style="color:#2f7a5c!important;display:table-cell;white-space:nowrap;line-height:1.5;max-width:200px;text-align:center"><span class="nodeLabel" style="color:#2f7a5c!important"><p>FindProduct⚡<br/>User → Product</p></span></div></foreignObject></g></g><g id="flowchart-N1_EnsureAsync-4" class="node default gatekeeper" transform="translate(506.117 117.5)"><rect width="129.453" height="78" x="-64.727" y="-39" class="basic label-container" style="fill:#e3e9fa!important"/><g class="label" style="color:#3f5c9a!important" transform="translate(-34.727 -24)"><rect/><foreignObject width="69.453" height="48"><div xmlns="http://www.w3.org/1999/xhtml" style="color:#3f5c9a!important;display:table-cell;white-space:nowrap;line-height:1.5;max-width:200px;text-align:center"><span class="nodeLabel" style="color:#3f5c9a!important"><p><span title="p.Stock &gt; 0">Ensure⚡<br/>Product</span></p></span></div></foreignObject></g></g><g id="flowchart-FAIL-6" class="node default failure"><g class="basic label-container outer-path"><path stroke-width="0" d="M-4.68-19.5h9.36l1.25.04 1.243.12 1.234.2 1.219.278 1.198.355 1.173.432 1.143.506 1.109.578 1.069.648 1.025.715.977.78.925.84.87.898.81.952c.22.293.438.586.748 1.002l.682 1.047.613 1.09.543 1.126.469 1.158.394 1.187.317 1.209.239 1.227.16 1.24.08 1.247v1.25l-.08 1.247-.16 1.24-.24 1.227-.316 1.21-.394 1.186-.47 1.158-.542 1.126-.613 1.09-.682 1.047-.748 1.002-.81.952-.87.898-.925.84-.977.78-1.025.715-1.07.648-1.108.578-1.143.506-1.173.432-1.198.355-1.219.278-1.234.2-1.244.12-1.25.04H-4.68l-1.25-.04-1.243-.12-1.234-.2-1.219-.278-1.198-.355-1.173-.432-1.143-.506-1.109-.578-1.069-.648-1.025-.715-.977-.78-.925-.84-.87-.898-.81-.952-.748-1.002-.682-1.047-.613-1.09-.543-1.126-.469-1.158-.394-1.187-.317-1.209-.239-1.227-.16-1.24-.08-1.247v-1.25l.08-1.247.16-1.24.24-1.227.316-1.21.394-1.186.47-1.158.542-1.126.613-1.09.682-1.047.748-1.002.81-.952.87-.898.925-.84.977-.78 1.025-.715 1.07-.648 1.108-.578 1.143-.506 1.173-.432 1.198-.355 1.219-.278 1.234-.2 1.244-.12 1.25-.04" style="fill:#f8e3e3!important" transform="translate(1173.99 52)"/><path fill="none" stroke="#9370db" stroke-dasharray="0 0" stroke-width="1.3" d="M-4.68-19.5h9.36m-9.36 0h9.36m0 0 1.25.04m-1.25-.04 1.25.04m0 0 1.243.12m-1.244-.12 1.244.12m0 0 1.234.2m-1.234-.2 1.234.2m0 0 1.219.278m-1.219-.278 1.219.278m0 0 1.198.355m-1.198-.355 1.198.355m0 0 1.173.432m-1.173-.432 1.173.432m0 0 1.143.506m-1.143-.506 1.143.506m0 0 1.109.578m-1.109-.578 1.109.578m0 0 1.069.648m-1.07-.648 1.07.648m0 0 1.025.715m-1.025-.715 1.025.715m0 0 .977.78m-.977-.78.977.78m0 0 .925.84m-.925-.84.925.84m0 0 .87.898m-.87-.898.87.898m0 0 .81.952m-.81-.952.81.952m0 0 .748 1.002m-.748-1.002.748 1.002m0 0 .682 1.047m-.682-1.047.682 1.047m0 0 .613 1.09m-.613-1.09.613 1.09m0 0 .543 1.126m-.543-1.126.543 1.126m0 0 .469 1.158m-.47-1.158.47 1.158m0 0 .394 1.187m-.394-1.187.394 1.187m0 0 .317 1.209m-.317-1.21.317 1.21m0 0 .239 1.227m-.24-1.227.24 1.227m0 0 .16 1.24m-.16-1.24.16 1.24m0 0 .08 1.247m-.08-1.247.08 1.247m0 0v1.25m0-1.25v1.25m0 0c-.03.452-.058.904-.08 1.247m.08-1.247-.08 1.247m0 0-.16 1.24m.16-1.24-.16 1.24m0 0-.24 1.227m.24-1.227-.24 1.227m0 0-.316 1.21m.317-1.21-.317 1.21m0 0-.394 1.186m.394-1.187-.394 1.187m0 0-.47 1.158m.47-1.158-.47 1.158m0 0-.542 1.126m.543-1.126-.543 1.126m0 0-.613 1.09m.613-1.09-.613 1.09m0 0-.682 1.047m.682-1.047-.682 1.047m0 0-.748 1.002m.748-1.002-.748 1.002m0 0-.81.952m.81-.952-.81.952m0 0-.87.898m.87-.898-.87.898m0 0-.925.84m.925-.84-.925.84m0 0-.977.78m.977-.78-.977.78m0 0-1.025.715m1.025-.715-1.025.715m0 0-1.07.648m1.07-.648-1.07.648m0 0-1.108.578m1.109-.578-1.109.578m0 0-1.143.506m1.143-.506-1.143.506m0 0-1.173.432m1.173-.432-1.173.432m0 0-1.198.355m1.198-.355-1.198.355m0 0-1.219.278m1.219-.278c-.258.06-.516.118-1.219.278m0 0-1.234.2m1.234-.2-1.234.2m0 0-1.244.12m1.244-.12-1.244.12m0 0-1.25.04m1.25-.04-1.25.04m0 0H-4.68m9.36 0h-9.36m0 0-1.25-.04m1.25.04-1.25-.04m0 0-1.243-.12m1.244.12-1.244-.12m0 0-1.234-.2m1.234.2-1.234-.2m0 0-1.219-.278m1.219.278-1.219-.278m0 0-1.198-.355m1.198.355c-.24-.07-.48-.142-1.198-.355m0 0-1.173-.432m1.173.432-1.173-.432m0 0-1.143-.506m1.143.506-1.143-.506m0 0-1.109-.578m1.109.578-1.109-.578m0 0-1.069-.648m1.07.648-1.07-.648m0 0-1.025-.715m1.025.715-1.025-.715m0 0-.977-.78m.977.78-.977-.78m0 0-.925-.84m.925.84-.925-.84m0 0-.87-.898m.87.898-.87-.898m0 0-.81-.952m.81.952-.81-.952m0 0-.748-1.002m.748 1.002-.748-1.002m0 0-.682-1.047m.682 1.047-.682-1.047m0 0-.613-1.09m.613 1.09-.613-1.09m0 0-.543-1.126m.543 1.126-.543-1.126m0 0-.469-1.158m.47 1.158-.47-1.158m0 0-.394-1.187m.394 1.187-.394-1.187m0 0-.317-1.209m.317 1.21-.317-1.21m0 0-.239-1.227m.24 1.227-.24-1.227m0 0-.16-1.24m.16 1.24-.16-1.24m0 0-.08-1.247m.08 1.247-.08-1.247m0 0v-1.25m0 1.25v-1.25m0 0 .08-1.247m-.08 1.247c.02-.295.038-.59.08-1.247m0 0 .16-1.24m-.16 1.24.16-1.24m0 0 .24-1.227m-.24 1.227.24-1.227m0 0 .316-1.21m-.317 1.21.317-1.21m0 0 .394-1.186m-.394 1.187.394-1.187m0 0 .47-1.158m-.47 1.158c.142-.35.283-.7.47-1.158m0 0c.185-.386.37-.771.542-1.126m-.543 1.126.543-1.126m0 0 .613-1.09m-.613 1.09.613-1.09m0 0 .682-1.047m-.682 1.047.682-1.047m0 0 .748-1.002m-.748 1.002.748-1.002m0 0 .81-.952m-.81.952.81-.952m0 0 .87-.898m-.87.898.87-.898m0 0 .925-.84m-.925.84.925-.84m0 0 .977-.78m-.977.78.977-.78m0 0 1.025-.715m-1.025.715 1.025-.715m0 0 1.07-.648m-1.07.648 1.07-.648m0 0 1.108-.578m-1.109.578 1.109-.578m0 0 1.143-.506m-1.143.506 1.143-.506m0 0 1.173-.432m-1.173.432 1.173-.432m0 0 1.198-.355m-1.198.355 1.198-.355m0 0c.414-.095.828-.19 1.219-.278m-1.219.278 1.219-.278m0 0 1.234-.2m-1.234.2 1.234-.2m0 0 1.244-.12m-1.244.12 1.244-.12m0 0 1.25-.04m-1.25.04 1.25-.04m0 0" style="fill:#f8e3e3!important" transform="translate(1173.99 52)"/></g><g class="label" style="color:#b13e3e!important" transform="translate(1162.185 40)"><rect/><foreignObject width="23.609" height="24"><div xmlns="http://www.w3.org/1999/xhtml" style="color:#b13e3e!important;display:table-cell;white-space:nowrap;line-height:1.5;max-width:200px;text-align:center"><span class="nodeLabel" style="fill:#f8e3e3!important;color:#b13e3e!important"><p>fail</p></span></div></foreignObject></g></g><g id="flowchart-N2_MapAsync-9" class="node default map" transform="translate(741.828 154.5)"><rect width="181.406" height="78" x="-90.703" y="-39" class="basic label-container" style="fill:#e3f0e8!important"/><g class="label" style="color:#2f7a5c!important" transform="translate(-60.703 -24)"><rect/><foreignObject width="121.406" height="48"><div xmlns="http://www.w3.org/1999/xhtml" style="color:#2f7a5c!important;display:table-cell;white-space:nowrap;line-height:1.5;max-width:200px;text-align:center"><span class="nodeLabel" style="fill:#e3f0e8!important;color:#2f7a5c!important"><p>Map⚡<br/>Product → Order</p></span></div></foreignObject></g></g><g id="flowchart-N3_SaveOrderAsync-14" class="node default bind" transform="translate(983.89 154.5)"><rect width="155.5" height="78" x="-77.75" y="-39" class="basic label-container" style="fill:#e3f0e8!important;stroke:#1a5c3c!important;stroke-width:3px!important"/><g class="label" style="color:#2f7a5c!important" transform="translate(-47.75 -24)"><rect/><foreignObject width="95.5" height="48"><div xmlns="http://www.w3.org/1999/xhtml" style="color:#2f7a5c!important;display:table-cell;white-space:nowrap;line-height:1.5;max-width:200px;text-align:center"><span class="nodeLabel" style="color:#2f7a5c!important"><p>SaveOrder⚡<br/>Order</p></span></div></foreignObject></g></g><g id="flowchart-SUCCESS-19" class="node default success"><g class="basic label-container outer-path"><path stroke-width="0" d="M-19.25-19.5h38.5l1.25.04 1.244.12 1.234.2 1.218.278 1.199.355 1.173.432 1.143.506 1.108.578 1.069.648 1.025.715.977.78.926.84.87.898.81.952.747 1.002.682 1.047.614 1.09.542 1.126c.15.37.3.742.47 1.158l.393 1.187.317 1.209.239 1.227.16 1.24.08 1.247v1.25l-.08 1.247-.16 1.24-.239 1.227-.317 1.21-.394 1.186-.469 1.158-.542 1.126-.614 1.09-.682 1.047-.747 1.002-.81.952-.87.898-.926.84-.977.78-1.025.715-1.069.648-1.108.578-1.143.506-1.173.432-1.199.355-1.218.278-1.234.2-1.245.12-1.249.04h-38.5l-1.25-.04-1.244-.12-1.234-.2-1.218-.278-1.199-.355-1.173-.432-1.143-.506-1.108-.578-1.069-.648-1.025-.715-.977-.78-.926-.84-.87-.898-.81-.952-.747-1.002-.682-1.047-.614-1.09-.542-1.126-.47-1.158-.393-1.187-.317-1.209-.239-1.227-.16-1.24-.08-1.247v-1.25l.08-1.247.16-1.24.239-1.227.317-1.21.394-1.186.469-1.158.542-1.126.614-1.09.682-1.047.747-1.002.81-.952.87-.898.926-.84.977-.78 1.025-.715 1.069-.648 1.108-.578 1.143-.506 1.173-.432 1.199-.355 1.218-.278 1.234-.2 1.245-.12 1.249-.04" style="fill:#e6f6ea!important" transform="translate(1173.99 176.5)"/><path fill="none" stroke="#9370db" stroke-dasharray="0 0" stroke-width="1.3" d="M-19.25-19.5h38.5m-38.5 0h38.5m0 0 1.25.04m-1.25-.04 1.25.04m0 0 1.244.12m-1.245-.12 1.245.12m0 0 1.234.2m-1.234-.2 1.234.2m0 0 1.218.278m-1.218-.278 1.218.278m0 0 1.199.355m-1.199-.355 1.199.355m0 0 1.173.432m-1.173-.432 1.173.432m0 0 1.143.506m-1.143-.506 1.143.506m0 0 1.108.578m-1.108-.578 1.108.578m0 0 1.069.648m-1.069-.648 1.069.648m0 0 1.025.715m-1.025-.715 1.025.715m0 0 .977.78m-.977-.78.977.78m0 0 .926.84m-.926-.84.926.84m0 0c.318.328.635.657.87.898m-.87-.898.87.898m0 0 .81.952m-.81-.952.81.952m0 0 .747 1.002m-.747-1.002.747 1.002m0 0 .682 1.047m-.682-1.047.682 1.047m0 0 .614 1.09m-.614-1.09.614 1.09m0 0 .542 1.126m-.542-1.126.542 1.126m0 0 .47 1.158m-.47-1.158.47 1.158m0 0 .393 1.187m-.394-1.187.394 1.187m0 0 .317 1.209m-.317-1.21.317 1.21m0 0 .239 1.227m-.239-1.227.239 1.227m0 0 .16 1.24m-.16-1.24.16 1.24m0 0 .08 1.247m-.08-1.247.08 1.247m0 0v1.25m0-1.25v1.25m0 0-.08 1.247m.08-1.247-.08 1.247m0 0-.16 1.24m.16-1.24-.16 1.24m0 0-.239 1.227m.239-1.227-.239 1.227m0 0-.317 1.21m.317-1.21-.317 1.21m0 0-.394 1.186m.394-1.187-.394 1.187m0 0-.469 1.158m.47-1.158-.47 1.158m0 0-.542 1.126m.542-1.126-.542 1.126m0 0-.614 1.09m.614-1.09-.614 1.09m0 0-.682 1.047m.682-1.047-.682 1.047m0 0-.747 1.002m.747-1.002-.747 1.002m0 0-.81.952m.81-.952-.81.952m0 0-.87.898m.87-.898-.87.898m0 0-.926.84m.926-.84-.926.84m0 0-.977.78m.977-.78-.977.78m0 0-1.025.715m1.025-.715-1.025.715m0 0-1.069.648m1.069-.648-1.069.648m0 0-1.108.578m1.108-.578-1.108.578m0 0-1.143.506m1.143-.506-1.143.506m0 0-1.173.432m1.173-.432-1.173.432m0 0-1.199.355m1.199-.355-1.199.355m0 0-1.218.278m1.218-.278-1.218.278m0 0-1.234.2m1.234-.2-1.234.2m0 0-1.245.12m1.245-.12-1.245.12m0 0-1.249.04m1.25-.04-1.25.04m0 0h-38.5m38.5 0h-38.5m0 0-1.25-.04m1.25.04-1.25-.04m0 0-1.244-.12m1.245.12-1.245-.12m0 0-1.234-.2m1.234.2-1.234-.2m0 0-1.218-.278m1.218.278-1.218-.278m0 0-1.199-.355m1.199.355-1.199-.355m0 0-1.173-.432m1.173.432-1.173-.432m0 0-1.143-.506m1.143.506-1.143-.506m0 0-1.108-.578m1.108.578-1.108-.578m0 0-1.069-.648m1.069.648-1.069-.648m0 0-1.025-.715m1.025.715-1.025-.715m0 0-.977-.78m.977.78-.977-.78m0 0-.926-.84m.926.84-.926-.84m0 0-.87-.898m.87.898-.87-.898m0 0-.81-.952m.81.952-.81-.952m0 0-.747-1.002m.747 1.002-.747-1.002m0 0-.682-1.047m.682 1.047-.682-1.047m0 0-.614-1.09m.614 1.09-.614-1.09m0 0-.542-1.126m.542 1.126-.542-1.126m0 0-.47-1.158m.47 1.158-.47-1.158m0 0-.393-1.187m.394 1.187-.394-1.187m0 0-.317-1.209m.317 1.21-.317-1.21m0 0-.239-1.227m.239 1.227-.239-1.227m0 0-.16-1.24m.16 1.24-.16-1.24m0 0-.08-1.247m.08 1.247-.08-1.247m0 0v-1.25m0 1.25v-1.25m0 0 .08-1.247m-.08 1.247.08-1.247m0 0 .16-1.24m-.16 1.24.16-1.24m0 0 .239-1.227m-.239 1.227.239-1.227m0 0 .317-1.21m-.317 1.21.317-1.21m0 0 .394-1.186m-.394 1.187.394-1.187m0 0 .469-1.158m-.47 1.158.47-1.158m0 0 .542-1.126m-.542 1.126.542-1.126m0 0 .614-1.09m-.614 1.09.614-1.09m0 0 .682-1.047m-.682 1.047.682-1.047m0 0 .747-1.002m-.747 1.002.747-1.002m0 0c.26-.304.518-.608.81-.952m-.81.952.81-.952m0 0 .87-.898m-.87.898.87-.898m0 0 .926-.84m-.926.84.926-.84m0 0 .977-.78m-.977.78.977-.78m0 0 1.025-.715m-1.025.715 1.025-.715m0 0 1.069-.648m-1.069.648 1.069-.648m0 0 1.108-.578m-1.108.578 1.108-.578m0 0 1.143-.506m-1.143.506 1.143-.506m0 0 1.173-.432m-1.173.432 1.173-.432m0 0 1.199-.355m-1.199.355 1.199-.355m0 0 1.218-.278m-1.218.278 1.218-.278m0 0 1.234-.2m-1.234.2 1.234-.2m0 0 1.245-.12m-1.245.12 1.245-.12m0 0 1.249-.04m-1.25.04 1.25-.04m0 0" style="fill:#e6f6ea!important" transform="translate(1173.99 176.5)"/></g><g class="label" style="color:#1c7e4f!important" transform="translate(1147.615 164.5)"><rect/><foreignObject width="52.75" height="24"><div xmlns="http://www.w3.org/1999/xhtml" style="color:#1c7e4f!important;display:table-cell;white-space:nowrap;line-height:1.5;max-width:200px;text-align:center"><span class="nodeLabel" style="fill:#e6f6ea!important;color:#1c7e4f!important"><p>success</p></span></div></foreignObject></g></g></g></g><text x="610.365" y="-25" style="text-anchor:middle;font-size:18px;fill:#333">PlaceOrder⚡ → ⟨Order⟩</text></svg>